<svg xmlns="http://www.w3.org/2000/svg" xmlns:xlink="http://www.w3.org/1999/xlink" version="1.1" class="marks" width="1280" height="960" viewBox="0 0 640 480"><rect width="640" height="480" fill="white"/><g fill="none" stroke-miterlimit="10" transform="translate(45,34)"><g class="mark-group role-frame root" role="graphics-object" aria-roledescription="group mark container"><g transform="translate(0,0)"><path class="background" aria-hidden="true" d="M0.5,0.5h587v409h-587Z" stroke="#ddd"/><g><g class="mark-group role-axis" aria-hidden="true"><g transform="translate(0.5,409.5)"><path class="background" aria-hidden="true" d="M0,0h0v0h0Z" pointer-events="none"/><g><g class="mark-rule role-axis-grid" pointer-events="none"><line transform="translate(0,-409)" x2="0" y2="409" stroke="#ddd" stroke-width="1" opacity="1"/><line transform="translate(26,-409)" x2="0" y2="409" stroke="#ddd" stroke-width="1" opacity="1"/><line transform="translate(52,-409)" x2="0" y2="409" stroke="#ddd" stroke-width="1" opacity="1"/><line transform="translate(78,-409)" x2="0" y2="409" stroke="#ddd" stroke-width="1" opacity="1"/><line transform="translate(104,-409)" x2="0" y2="409" stroke="#ddd" stroke-width="1" opacity="1"/><line transform="translate(130,-409)" x2="0" y2="409" stroke="#ddd" stroke-width="1" opacity="1"/><line transform="translate(157,-409)" x2="0" y2="409" stroke="#ddd" stroke-width="1" opacity="1"/><line transform="translate(183,-409)" x2="0" y2="409" stroke="#ddd" stroke-width="1" opacity="1"/><line transform="translate(209,-409)" x2="0" y2="409" stroke="#ddd" stroke-width="1" opacity="1"/><line transform="translate(235,-409)" x2="0" y2="409" stroke="#ddd" stroke-width="1" opacity="1"/><line transform="translate(261,-409)" x2="0" y2="409" stroke="#ddd" stroke-width="1" opacity="1"/><line transform="translate(287,-409)" x2="0" y2="409" stroke="#ddd" stroke-width="1" opacity="1"/><line transform="translate(313,-409)" x2="0" y2="409" stroke="#ddd" stroke-width="1" opacity="1"/><line transform="translate(339,-409)" x2="0" y2="409" stroke="#ddd" stroke-width="1" opacity="1"/><line transform="translate(365,-409)" x2="0" y2="409" stroke="#ddd" stroke-width="1" opacity="1"/><line transform="translate(391,-409)" x2="0" y2="409" stroke="#ddd" stroke-width="1" opacity="1"/><line transform="translate(417,-409)" x2="0" y2="409" stroke="#ddd" stroke-width="1" opacity="1"/><line transform="translate(444,-409)" x2="0" y2="409" stroke="#ddd" stroke-width="1" opacity="1"/><line transform="translate(470,-409)" x2="0" y2="409" stroke="#ddd" stroke-width="1" opacity="1"/><line transform="translate(496,-409)" x2="0" y2="409" stroke="#ddd" stroke-width="1" opacity="1"/><line transform="translate(522,-409)" x2="0" y2="409" stroke="#ddd" stroke-width="1" opacity="1"/><line transform="translate(548,-409)" x2="0" y2="409" stroke="#ddd" stroke-width="1" opacity="1"/><line transform="translate(574,-409)" x2="0" y2="409" stroke="#ddd" stroke-width="1" opacity="1"/></g></g><path class="foreground" aria-hidden="true" d="" pointer-events="none" display="none"/></g></g><g class="mark-group role-axis" aria-hidden="true"><g transform="translate(0.5,0.5)"><path class="background" aria-hidden="true" d="M0,0h0v0h0Z" pointer-events="none"/><g><g class="mark-rule role-axis-grid" pointer-events="none"><line transform="translate(0,409)" x2="587" y2="0" stroke="#ddd" stroke-width="1" opacity="1"/><line transform="translate(0,368)" x2="587" y2="0" stroke="#ddd" stroke-width="1" opacity="1"/><line transform="translate(0,327)" x2="587" y2="0" stroke="#ddd" stroke-width="1" opacity="1"/><line transform="translate(0,286)" x2="587" y2="0" stroke="#ddd" stroke-width="1" opacity="1"/><line transform="translate(0,245)" x2="587" y2="0" stroke="#ddd" stroke-width="1" opacity="1"/><line transform="translate(0,205)" x2="587" y2="0" stroke="#ddd" stroke-width="1" opacity="1"/><line transform="translate(0,164)" x2="587" y2="0" stroke="#ddd" stroke-width="1" opacity="1"/><line transform="translate(0,123)" x2="587" y2="0" stroke="#ddd" stroke-width="1" opacity="1"/><line transform="translate(0,82)" x2="587" y2="0" stroke="#ddd" stroke-width="1" opacity="1"/><line transform="translate(0,41)" x2="587" y2="0" stroke="#ddd" stroke-width="1" opacity="1"/><line transform="translate(0,0)" x2="587" y2="0" stroke="#ddd" stroke-width="1" opacity="1"/></g></g><path class="foreground" aria-hidden="true" d="" pointer-events="none" display="none"/></g></g><g class="mark-group role-axis" role="graphics-symbol" aria-roledescription="axis" aria-label="X-axis titled 'Compression ratio' for a linear scale with values from 7 to 12"><g transform="translate(0.5,409.5)"><path class="background" aria-hidden="true" d="M0,0h0v0h0Z" pointer-events="none"/><g><g class="mark-rule role-axis-tick" pointer-events="none"><line transform="translate(0,0)" x2="0" y2="5" stroke="#888" stroke-width="1" opacity="1"/><line transform="translate(26,0)" x2="0" y2="5" stroke="#888" stroke-width="1" opacity="1"/><line transform="translate(52,0)" x2="0" y2="5" stroke="#888" stroke-width="1" opacity="1"/><line transform="translate(78,0)" x2="0" y2="5" stroke="#888" stroke-width="1" opacity="1"/><line transform="translate(104,0)" x2="0" y2="5" stroke="#888" stroke-width="1" opacity="1"/><line transform="translate(130,0)" x2="0" y2="5" stroke="#888" stroke-width="1" opacity="1"/><line transform="translate(157,0)" x2="0" y2="5" stroke="#888" stroke-width="1" opacity="1"/><line transform="translate(183,0)" x2="0" y2="5" stroke="#888" stroke-width="1" opacity="1"/><line transform="translate(209,0)" x2="0" y2="5" stroke="#888" stroke-width="1" opacity="1"/><line transform="translate(235,0)" x2="0" y2="5" stroke="#888" stroke-width="1" opacity="1"/><line transform="translate(261,0)" x2="0" y2="5" stroke="#888" stroke-width="1" opacity="1"/><line transform="translate(287,0)" x2="0" y2="5" stroke="#888" stroke-width="1" opacity="1"/><line transform="translate(313,0)" x2="0" y2="5" stroke="#888" stroke-width="1" opacity="1"/><line transform="translate(339,0)" x2="0" y2="5" stroke="#888" stroke-width="1" opacity="1"/><line transform="translate(365,0)" x2="0" y2="5" stroke="#888" stroke-width="1" opacity="1"/><line transform="translate(391,0)" x2="0" y2="5" stroke="#888" stroke-width="1" opacity="1"/><line transform="translate(417,0)" x2="0" y2="5" stroke="#888" stroke-width="1" opacity="1"/><line transform="translate(444,0)" x2="0" y2="5" stroke="#888" stroke-width="1" opacity="1"/><line transform="translate(470,0)" x2="0" y2="5" stroke="#888" stroke-width="1" opacity="1"/><line transform="translate(496,0)" x2="0" y2="5" stroke="#888" stroke-width="1" opacity="1"/><line transform="translate(522,0)" x2="0" y2="5" stroke="#888" stroke-width="1" opacity="1"/><line transform="translate(548,0)" x2="0" y2="5" stroke="#888" stroke-width="1" opacity="1"/><line transform="translate(574,0)" x2="0" y2="5" stroke="#888" stroke-width="1" opacity="1"/></g><g class="mark-text role-axis-label" pointer-events="none"><text text-anchor="start" transform="translate(0,15)" font-family="sans-serif" font-size="10px" fill="#000" opacity="1">7.0</text><text text-anchor="middle" transform="translate(26.08888888888891,15)" font-family="sans-serif" font-size="10px" fill="#000" opacity="1">7.2</text><text text-anchor="middle" transform="translate(52.17777777777782,15)" font-family="sans-serif" font-size="10px" fill="#000" opacity="1">7.4</text><text text-anchor="middle" transform="translate(78.26666666666662,15)" font-family="sans-serif" font-size="10px" fill="#000" opacity="1">7.6</text><text text-anchor="middle" transform="translate(104.35555555555553,15)" font-family="sans-serif" font-size="10px" fill="#000" opacity="1">7.8</text><text text-anchor="middle" transform="translate(130.44444444444443,15)" font-family="sans-serif" font-size="10px" fill="#000" opacity="1">8.0</text><text text-anchor="middle" transform="translate(156.53333333333325,15)" font-family="sans-serif" font-size="10px" fill="#000" opacity="1">8.2</text><text text-anchor="middle" transform="translate(182.62222222222226,15)" font-family="sans-serif" font-size="10px" fill="#000" opacity="1">8.4</text><text text-anchor="middle" transform="translate(208.71111111111105,15)" font-family="sans-serif" font-size="10px" fill="#000" opacity="1">8.6</text><text text-anchor="middle" transform="translate(234.80000000000007,15)" font-family="sans-serif" font-size="10px" fill="#000" opacity="1">8.8</text><text text-anchor="middle" transform="translate(260.88888888888886,15)" font-family="sans-serif" font-size="10px" fill="#000" opacity="1">9.0</text><text text-anchor="middle" transform="translate(286.97777777777765,15)" font-family="sans-serif" font-size="10px" fill="#000" opacity="1">9.2</text><text text-anchor="middle" transform="translate(313.0666666666667,15)" font-family="sans-serif" font-size="10px" fill="#000" opacity="1">9.4</text><text text-anchor="middle" transform="translate(339.1555555555555,15)" font-family="sans-serif" font-size="10px" fill="#000" opacity="1">9.6</text><text text-anchor="middle" transform="translate(365.2444444444445,15)" font-family="sans-serif" font-size="10px" fill="#000" opacity="1">9.8</text><text text-anchor="middle" transform="translate(391.3333333333333,15)" font-family="sans-serif" font-size="10px" fill="#000" opacity="1">10.0</text><text text-anchor="middle" transform="translate(417.4222222222221,15)" font-family="sans-serif" font-size="10px" fill="#000" opacity="1">10.2</text><text text-anchor="middle" transform="translate(443.5111111111112,15)" font-family="sans-serif" font-size="10px" fill="#000" opacity="1">10.4</text><text text-anchor="middle" transform="translate(469.59999999999997,15)" font-family="sans-serif" font-size="10px" fill="#000" opacity="1">10.6</text><text text-anchor="middle" transform="translate(495.6888888888889,15)" font-family="sans-serif" font-size="10px" fill="#000" opacity="1">10.8</text><text text-anchor="middle" transform="translate(521.7777777777777,15)" font-family="sans-serif" font-size="10px" fill="#000" opacity="1">11.0</text><text text-anchor="middle" transform="translate(547.8666666666666,15)" font-family="sans-serif" font-size="10px" fill="#000" opacity="1">11.2</text><text text-anchor="middle" transform="translate(573.9555555555556,15)" font-family="sans-serif" font-size="10px" fill="#000" opacity="1">11.4</text></g><g class="mark-rule role-axis-domain" pointer-events="none"><line transform="translate(0,0)" x2="587" y2="0" stroke="#888" stroke-width="1" opacity="1"/></g><g class="mark-text role-axis-title" pointer-events="none"><text text-anchor="middle" transform="translate(293.5,30)" font-family="sans-serif" font-size="11px" font-weight="bold" fill="#000" opacity="1">Compression ratio</text></g></g><path class="foreground" aria-hidden="true" d="" pointer-events="none" display="none"/></g></g><g class="mark-group role-axis" role="graphics-symbol" aria-roledescription="axis" aria-label="Y-axis titled 'Throughput (kb/ms)' for a linear scale with values from 0 to 200"><g transform="translate(0.5,0.5)"><path class="background" aria-hidden="true" d="M0,0h0v0h0Z" pointer-events="none"/><g><g class="mark-rule role-axis-tick" pointer-events="none"><line transform="translate(0,409)" x2="-5" y2="0" stroke="#888" stroke-width="1" opacity="1"/><line transform="translate(0,368)" x2="-5" y2="0" stroke="#888" stroke-width="1" opacity="1"/><line transform="translate(0,327)" x2="-5" y2="0" stroke="#888" stroke-width="1" opacity="1"/><line transform="translate(0,286)" x2="-5" y2="0" stroke="#888" stroke-width="1" opacity="1"/><line transform="translate(0,245)" x2="-5" y2="0" stroke="#888" stroke-width="1" opacity="1"/><line transform="translate(0,205)" x2="-5" y2="0" stroke="#888" stroke-width="1" opacity="1"/><line transform="translate(0,164)" x2="-5" y2="0" stroke="#888" stroke-width="1" opacity="1"/><line transform="translate(0,123)" x2="-5" y2="0" stroke="#888" stroke-width="1" opacity="1"/><line transform="translate(0,82)" x2="-5" y2="0" stroke="#888" stroke-width="1" opacity="1"/><line transform="translate(0,41)" x2="-5" y2="0" stroke="#888" stroke-width="1" opacity="1"/><line transform="translate(0,0)" x2="-5" y2="0" stroke="#888" stroke-width="1" opacity="1"/></g><g class="mark-text role-axis-label" pointer-events="none"><text text-anchor="end" transform="translate(-7,412)" font-family="sans-serif" font-size="10px" fill="#000" opacity="1">0</text><text text-anchor="end" transform="translate(-7,371.1)" font-family="sans-serif" font-size="10px" fill="#000" opacity="1">20</text><text text-anchor="end" transform="translate(-7,330.20000000000005)" font-family="sans-serif" font-size="10px" fill="#000" opacity="1">40</text><text text-anchor="end" transform="translate(-7,289.29999999999995)" font-family="sans-serif" font-size="10px" fill="#000" opacity="1">60</text><text text-anchor="end" transform="translate(-7,248.39999999999998)" font-family="sans-serif" font-size="10px" fill="#000" opacity="1">80</text><text text-anchor="end" transform="translate(-7,207.5)" font-family="sans-serif" font-size="10px" fill="#000" opacity="1">100</text><text text-anchor="end" transform="translate(-7,166.60000000000002)" font-family="sans-serif" font-size="10px" fill="#000" opacity="1">120</text><text text-anchor="end" transform="translate(-7,125.70000000000002)" font-family="sans-serif" font-size="10px" fill="#000" opacity="1">140</text><text text-anchor="end" transform="translate(-7,84.79999999999998)" font-family="sans-serif" font-size="10px" fill="#000" opacity="1">160</text><text text-anchor="end" transform="translate(-7,43.89999999999999)" font-family="sans-serif" font-size="10px" fill="#000" opacity="1">180</text><text text-anchor="end" transform="translate(-7,3)" font-family="sans-serif" font-size="10px" fill="#000" opacity="1">200</text></g><g class="mark-rule role-axis-domain" pointer-events="none"><line transform="translate(0,409)" x2="0" y2="-409" stroke="#888" stroke-width="1" opacity="1"/></g><g class="mark-text role-axis-title" pointer-events="none"><text text-anchor="middle" transform="translate(-29,204.5) rotate(-90) translate(0,-2)" font-family="sans-serif" font-size="11px" font-weight="bold" fill="#000" opacity="1">Throughput (kb/ms)</text></g></g><path class="foreground" aria-hidden="true" d="" pointer-events="none" display="none"/></g></g><g class="mark-group role-scope layer_0_layer_0_layer_0_pathgroup" role="graphics-object" aria-roledescription="group mark container"><g transform="translate(0,0)"><path class="background" aria-hidden="true" d="M0,0h587v409h-587Z"/><g><g class="mark-line role-mark layer_0_layer_0_layer_0_marks" role="graphics-object" aria-roledescription="line mark container"><path aria-label="Compression ratio: 8.08; Throughput (kb/ms): 183.608; new-type: ristretto19-chromium" role="graphics-symbol" aria-roledescription="line mark" d="M140.88000000000002,33.52164000000001L191.75333333333342,48.97366000000003L240.01777777777775,72.71611000000004L307.8488888888888,189.71873999999997L425.24888888888887,216.84770999999998L455.25111111111113,286.42269999999996L480.0355555555555,307.35123L530.9088888888889,360.87706000000003L551.7800000000001,382.58268999999996" stroke="#4c78a8" stroke-width="2"/></g></g><path class="foreground" aria-hidden="true" d="" display="none"/></g><g transform="translate(0,0)"><path class="background" aria-hidden="true" d="M0,0h587v409h-587Z"/><g><g class="mark-line role-mark layer_0_layer_0_layer_0_marks" role="graphics-object" aria-roledescription="line mark container"><path aria-label="Compression ratio: 8.08; Throughput (kb/ms): 198.912; new-type: ristretto19-cloudflare" role="graphics-symbol" aria-roledescription="line mark" d="M140.88000000000002,2.2249600000000003L191.75333333333342,15.726049999999994L240.01777777777775,35.476659999999974L307.8488888888888,161.12554999999998L425.24888888888887,190.29952L482.64444444444433,235.27725L506.1244444444446,262.73341999999997L554.3888888888889,335.88307000000003L570.0422222222221,364.97933" stroke="#f58518" stroke-width="2"/></g></g><path class="foreground" aria-hidden="true" d="" display="none"/></g><g transform="translate(0,0)"><path class="background" aria-hidden="true" d="M0,0h587v409h-587Z"/><g><g class="mark-line role-mark layer_0_layer_0_layer_0_marks" role="graphics-object" aria-roledescription="line mark container"><path aria-label="Compression ratio: 7.26; Throughput (kb/ms): 124.812; new-type: ristretto19-madler" role="graphics-symbol" aria-roledescription="line mark" d="M33.91555555555553,153.75946L104.35555555555553,168.00902000000002L178.7088888888888,194.59402L264.80222222222216,249.15053L382.2022222222222,276.01365L453.9466666666667,310.59051L480.0355555555555,327.17546L530.9088888888889,371.06933999999995L551.7800000000001,388.21871" stroke="#e45756" stroke-width="2"/></g></g><path class="foreground" aria-hidden="true" d="" display="none"/></g><g transform="translate(0,0)"><path class="background" aria-hidden="true" d="M0,0h587v409h-587Z"/><g><g class="mark-line role-mark layer_0_layer_0_layer_0_marks" role="graphics-object" aria-roledescription="line mark container"><path aria-label="Compression ratio: 7.26; Throughput (kb/ms): 124.716; new-type: ristretto19-system" role="graphics-symbol" aria-roledescription="line mark" d="M33.91555555555553,153.95578L104.35555555555553,165.56320000000002L178.7088888888888,191.71875L264.80222222222216,240.88464000000005L382.2022222222222,270.22221L453.9466666666667,304.52913L480.0355555555555,324.24702L530.9088888888889,370.55400000000003L551.7800000000001,388.14509" stroke="#72b7b2" stroke-width="2"/></g></g><path class="foreground" aria-hidden="true" d="" display="none"/></g></g><g class="mark-symbol role-mark layer_0_layer_0_layer_1_marks" role="graphics-object" aria-roledescription="symbol mark container"><path aria-label="Compression ratio: 8.08; Throughput (kb/ms): 183.608; new-type: ristretto19-chromium" role="graphics-symbol" aria-roledescription="point" transform="translate(140.88000000000002,33.52164000000001)" d="M2.7386127875258306,0A2.7386127875258306,2.7386127875258306,0,1,1,-2.7386127875258306,0A2.7386127875258306,2.7386127875258306,0,1,1,2.7386127875258306,0" fill="#4c78a8" stroke-width="2" opacity="1"/><path aria-label="Compression ratio: 8.47; Throughput (kb/ms): 176.052; new-type: ristretto19-chromium" role="graphics-symbol" aria-roledescription="point" transform="translate(191.75333333333342,48.97366000000003)" d="M2.7386127875258306,0A2.7386127875258306,2.7386127875258306,0,1,1,-2.7386127875258306,0A2.7386127875258306,2.7386127875258306,0,1,1,2.7386127875258306,0" fill="#4c78a8" stroke-width="2" opacity="1"/><path aria-label="Compression ratio: 8.84; Throughput (kb/ms): 164.442; new-type: ristretto19-chromium" role="graphics-symbol" aria-roledescription="point" transform="translate(240.01777777777775,72.71611000000004)" d="M2.7386127875258306,0A2.7386127875258306,2.7386127875258306,0,1,1,-2.7386127875258306,0A2.7386127875258306,2.7386127875258306,0,1,1,2.7386127875258306,0" fill="#4c78a8" stroke-width="2" opacity="1"/><path aria-label="Compression ratio: 9.36; Throughput (kb/ms): 107.228; new-type: ristretto19-chromium" role="graphics-symbol" aria-roledescription="point" transform="translate(307.8488888888888,189.71873999999997)" d="M2.7386127875258306,0A2.7386127875258306,2.7386127875258306,0,1,1,-2.7386127875258306,0A2.7386127875258306,2.7386127875258306,0,1,1,2.7386127875258306,0" fill="#4c78a8" stroke-width="2" opacity="1"/><path aria-label="Compression ratio: 10.26; Throughput (kb/ms): 93.962; new-type: ristretto19-chromium" role="graphics-symbol" aria-roledescription="point" transform="translate(425.24888888888887,216.84770999999998)" d="M2.7386127875258306,0A2.7386127875258306,2.7386127875258306,0,1,1,-2.7386127875258306,0A2.7386127875258306,2.7386127875258306,0,1,1,2.7386127875258306,0" fill="#4c78a8" stroke-width="2" opacity="1"/><path aria-label="Compression ratio: 10.49; Throughput (kb/ms): 59.94; new-type: ristretto19-chromium" role="graphics-symbol" aria-roledescription="point" transform="translate(455.25111111111113,286.42269999999996)" d="M2.7386127875258306,0A2.7386127875258306,2.7386127875258306,0,1,1,-2.7386127875258306,0A2.7386127875258306,2.7386127875258306,0,1,1,2.7386127875258306,0" fill="#4c78a8" stroke-width="2" opacity="1"/><path aria-label="Compression ratio: 10.68; Throughput (kb/ms): 49.706; new-type: ristretto19-chromium" role="graphics-symbol" aria-roledescription="point" transform="translate(480.0355555555555,307.35123)" d="M2.7386127875258306,0A2.7386127875258306,2.7386127875258306,0,1,1,-2.7386127875258306,0A2.7386127875258306,2.7386127875258306,0,1,1,2.7386127875258306,0" fill="#4c78a8" stroke-width="2" opacity="1"/><path aria-label="Compression ratio: 11.07; Throughput (kb/ms): 23.532; new-type: ristretto19-chromium" role="graphics-symbol" aria-roledescription="point" transform="translate(530.9088888888889,360.87706000000003)" d="M2.7386127875258306,0A2.7386127875258306,2.7386127875258306,0,1,1,-2.7386127875258306,0A2.7386127875258306,2.7386127875258306,0,1,1,2.7386127875258306,0" fill="#4c78a8" stroke-width="2" opacity="1"/><path aria-label="Compression ratio: 11.23; Throughput (kb/ms): 12.918; new-type: ristretto19-chromium" role="graphics-symbol" aria-roledescription="point" transform="translate(551.7800000000001,382.58268999999996)" d="M2.7386127875258306,0A2.7386127875258306,2.7386127875258306,0,1,1,-2.7386127875258306,0A2.7386127875258306,2.7386127875258306,0,1,1,2.7386127875258306,0" fill="#4c78a8" stroke-width="2" opacity="1"/><path aria-label="Compression ratio: 8.08; Throughput (kb/ms): 198.912; new-type: ristretto19-cloudflare" role="graphics-symbol" aria-roledescription="point" transform="translate(140.88000000000002,2.2249600000000003)" d="M2.7386127875258306,0A2.7386127875258306,2.7386127875258306,0,1,1,-2.7386127875258306,0A2.7386127875258306,2.7386127875258306,0,1,1,2.7386127875258306,0" fill="#f58518" stroke-width="2" opacity="1"/><path aria-label="Compression ratio: 8.47; Throughput (kb/ms): 192.31; new-type: ristretto19-cloudflare" role="graphics-symbol" aria-roledescription="point" transform="translate(191.75333333333342,15.726049999999994)" d="M2.7386127875258306,0A2.7386127875258306,2.7386127875258306,0,1,1,-2.7386127875258306,0A2.7386127875258306,2.7386127875258306,0,1,1,2.7386127875258306,0" fill="#f58518" stroke-width="2" opacity="1"/><path aria-label="Compression ratio: 8.84; Throughput (kb/ms): 182.652; new-type: ristretto19-cloudflare" role="graphics-symbol" aria-roledescription="point" transform="translate(240.01777777777775,35.476659999999974)" d="M2.7386127875258306,0A2.7386127875258306,2.7386127875258306,0,1,1,-2.7386127875258306,0A2.7386127875258306,2.7386127875258306,0,1,1,2.7386127875258306,0" fill="#f58518" stroke-width="2" opacity="1"/><path aria-label="Compression ratio: 9.36; Throughput (kb/ms): 121.21; new-type: ristretto19-cloudflare" role="graphics-symbol" aria-roledescription="point" transform="translate(307.8488888888888,161.12554999999998)" d="M2.7386127875258306,0A2.7386127875258306,2.7386127875258306,0,1,1,-2.7386127875258306,0A2.7386127875258306,2.7386127875258306,0,1,1,2.7386127875258306,0" fill="#f58518" stroke-width="2" opacity="1"/><path aria-label="Compression ratio: 10.26; Throughput (kb/ms): 106.944; new-type: ristretto19-cloudflare" role="graphics-symbol" aria-roledescription="point" transform="translate(425.24888888888887,190.29952)" d="M2.7386127875258306,0A2.7386127875258306,2.7386127875258306,0,1,1,-2.7386127875258306,0A2.7386127875258306,2.7386127875258306,0,1,1,2.7386127875258306,0" fill="#f58518" stroke-width="2" opacity="1"/><path aria-label="Compression ratio: 10.7; Throughput (kb/ms): 84.95; new-type: ristretto19-cloudflare" role="graphics-symbol" aria-roledescription="point" transform="translate(482.64444444444433,235.27725)" d="M2.7386127875258306,0A2.7386127875258306,2.7386127875258306,0,1,1,-2.7386127875258306,0A2.7386127875258306,2.7386127875258306,0,1,1,2.7386127875258306,0" fill="#f58518" stroke-width="2" opacity="1"/><path aria-label="Compression ratio: 10.88; Throughput (kb/ms): 71.524; new-type: ristretto19-cloudflare" role="graphics-symbol" aria-roledescription="point" transform="translate(506.1244444444446,262.73341999999997)" d="M2.7386127875258306,0A2.7386127875258306,2.7386127875258306,0,1,1,-2.7386127875258306,0A2.7386127875258306,2.7386127875258306,0,1,1,2.7386127875258306,0" fill="#f58518" stroke-width="2" opacity="1"/><path aria-label="Compression ratio: 11.25; Throughput (kb/ms): 35.754; new-type: ristretto19-cloudflare" role="graphics-symbol" aria-roledescription="point" transform="translate(554.3888888888889,335.88307000000003)" d="M2.7386127875258306,0A2.7386127875258306,2.7386127875258306,0,1,1,-2.7386127875258306,0A2.7386127875258306,2.7386127875258306,0,1,1,2.7386127875258306,0" fill="#f58518" stroke-width="2" opacity="1"/><path aria-label="Compression ratio: 11.37; Throughput (kb/ms): 21.526; new-type: ristretto19-cloudflare" role="graphics-symbol" aria-roledescription="point" transform="translate(570.0422222222221,364.97933)" d="M2.7386127875258306,0A2.7386127875258306,2.7386127875258306,0,1,1,-2.7386127875258306,0A2.7386127875258306,2.7386127875258306,0,1,1,2.7386127875258306,0" fill="#f58518" stroke-width="2" opacity="1"/><path aria-label="Compression ratio: 7.26; Throughput (kb/ms): 124.812; new-type: ristretto19-madler" role="graphics-symbol" aria-roledescription="point" transform="translate(33.91555555555553,153.75946)" d="M2.7386127875258306,0A2.7386127875258306,2.7386127875258306,0,1,1,-2.7386127875258306,0A2.7386127875258306,2.7386127875258306,0,1,1,2.7386127875258306,0" fill="#e45756" stroke-width="2" opacity="1"/><path aria-label="Compression ratio: 7.8; Throughput (kb/ms): 117.844; new-type: ristretto19-madler" role="graphics-symbol" aria-roledescription="point" transform="translate(104.35555555555553,168.00902000000002)" d="M2.7386127875258306,0A2.7386127875258306,2.7386127875258306,0,1,1,-2.7386127875258306,0A2.7386127875258306,2.7386127875258306,0,1,1,2.7386127875258306,0" fill="#e45756" stroke-width="2" opacity="1"/><path aria-label="Compression ratio: 8.37; Throughput (kb/ms): 104.844; new-type: ristretto19-madler" role="graphics-symbol" aria-roledescription="point" transform="translate(178.7088888888888,194.59402)" d="M2.7386127875258306,0A2.7386127875258306,2.7386127875258306,0,1,1,-2.7386127875258306,0A2.7386127875258306,2.7386127875258306,0,1,1,2.7386127875258306,0" fill="#e45756" stroke-width="2" opacity="1"/><path aria-label="Compression ratio: 9.03; Throughput (kb/ms): 78.166; new-type: ristretto19-madler" role="graphics-symbol" aria-roledescription="point" transform="translate(264.80222222222216,249.15053)" d="M2.7386127875258306,0A2.7386127875258306,2.7386127875258306,0,1,1,-2.7386127875258306,0A2.7386127875258306,2.7386127875258306,0,1,1,2.7386127875258306,0" fill="#e45756" stroke-width="2" opacity="1"/><path aria-label="Compression ratio: 9.93; Throughput (kb/ms): 65.03; new-type: ristretto19-madler" role="graphics-symbol" aria-roledescription="point" transform="translate(382.2022222222222,276.01365)" d="M2.7386127875258306,0A2.7386127875258306,2.7386127875258306,0,1,1,-2.7386127875258306,0A2.7386127875258306,2.7386127875258306,0,1,1,2.7386127875258306,0" fill="#e45756" stroke-width="2" opacity="1"/><path aria-label="Compression ratio: 10.48; Throughput (kb/ms): 48.122; new-type: ristretto19-madler" role="graphics-symbol" aria-roledescription="point" transform="translate(453.9466666666667,310.59051)" d="M2.7386127875258306,0A2.7386127875258306,2.7386127875258306,0,1,1,-2.7386127875258306,0A2.7386127875258306,2.7386127875258306,0,1,1,2.7386127875258306,0" fill="#e45756" stroke-width="2" opacity="1"/><path aria-label="Compression ratio: 10.68; Throughput (kb/ms): 40.012; new-type: ristretto19-madler" role="graphics-symbol" aria-roledescription="point" transform="translate(480.0355555555555,327.17546)" d="M2.7386127875258306,0A2.7386127875258306,2.7386127875258306,0,1,1,-2.7386127875258306,0A2.7386127875258306,2.7386127875258306,0,1,1,2.7386127875258306,0" fill="#e45756" stroke-width="2" opacity="1"/><path aria-label="Compression ratio: 11.07; Throughput (kb/ms): 18.548; new-type: ristretto19-madler" role="graphics-symbol" aria-roledescription="point" transform="translate(530.9088888888889,371.06933999999995)" d="M2.7386127875258306,0A2.7386127875258306,2.7386127875258306,0,1,1,-2.7386127875258306,0A2.7386127875258306,2.7386127875258306,0,1,1,2.7386127875258306,0" fill="#e45756" stroke-width="2" opacity="1"/><path aria-label="Compression ratio: 11.23; Throughput (kb/ms): 10.162; new-type: ristretto19-madler" role="graphics-symbol" aria-roledescription="point" transform="translate(551.7800000000001,388.21871)" d="M2.7386127875258306,0A2.7386127875258306,2.7386127875258306,0,1,1,-2.7386127875258306,0A2.7386127875258306,2.7386127875258306,0,1,1,2.7386127875258306,0" fill="#e45756" stroke-width="2" opacity="1"/><path aria-label="Compression ratio: 7.26; Throughput (kb/ms): 124.716; new-type: ristretto19-system" role="graphics-symbol" aria-roledescription="point" transform="translate(33.91555555555553,153.95578)" d="M2.7386127875258306,0A2.7386127875258306,2.7386127875258306,0,1,1,-2.7386127875258306,0A2.7386127875258306,2.7386127875258306,0,1,1,2.7386127875258306,0" fill="#72b7b2" stroke-width="2" opacity="1"/><path aria-label="Compression ratio: 7.8; Throughput (kb/ms): 119.04; new-type: ristretto19-system" role="graphics-symbol" aria-roledescription="point" transform="translate(104.35555555555553,165.56320000000002)" d="M2.7386127875258306,0A2.7386127875258306,2.7386127875258306,0,1,1,-2.7386127875258306,0A2.7386127875258306,2.7386127875258306,0,1,1,2.7386127875258306,0" fill="#72b7b2" stroke-width="2" opacity="1"/><path aria-label="Compression ratio: 8.37; Throughput (kb/ms): 106.25; new-type: ristretto19-system" role="graphics-symbol" aria-roledescription="point" transform="translate(178.7088888888888,191.71875)" d="M2.7386127875258306,0A2.7386127875258306,2.7386127875258306,0,1,1,-2.7386127875258306,0A2.7386127875258306,2.7386127875258306,0,1,1,2.7386127875258306,0" fill="#72b7b2" stroke-width="2" opacity="1"/><path aria-label="Compression ratio: 9.03; Throughput (kb/ms): 82.208; new-type: ristretto19-system" role="graphics-symbol" aria-roledescription="point" transform="translate(264.80222222222216,240.88464000000005)" d="M2.7386127875258306,0A2.7386127875258306,2.7386127875258306,0,1,1,-2.7386127875258306,0A2.7386127875258306,2.7386127875258306,0,1,1,2.7386127875258306,0" fill="#72b7b2" stroke-width="2" opacity="1"/><path aria-label="Compression ratio: 9.93; Throughput (kb/ms): 67.862; new-type: ristretto19-system" role="graphics-symbol" aria-roledescription="point" transform="translate(382.2022222222222,270.22221)" d="M2.7386127875258306,0A2.7386127875258306,2.7386127875258306,0,1,1,-2.7386127875258306,0A2.7386127875258306,2.7386127875258306,0,1,1,2.7386127875258306,0" fill="#72b7b2" stroke-width="2" opacity="1"/><path aria-label="Compression ratio: 10.48; Throughput (kb/ms): 51.086; new-type: ristretto19-system" role="graphics-symbol" aria-roledescription="point" transform="translate(453.9466666666667,304.52913)" d="M2.7386127875258306,0A2.7386127875258306,2.7386127875258306,0,1,1,-2.7386127875258306,0A2.7386127875258306,2.7386127875258306,0,1,1,2.7386127875258306,0" fill="#72b7b2" stroke-width="2" opacity="1"/><path aria-label="Compression ratio: 10.68; Throughput (kb/ms): 41.444; new-type: ristretto19-system" role="graphics-symbol" aria-roledescription="point" transform="translate(480.0355555555555,324.24702)" d="M2.7386127875258306,0A2.7386127875258306,2.7386127875258306,0,1,1,-2.7386127875258306,0A2.7386127875258306,2.7386127875258306,0,1,1,2.7386127875258306,0" fill="#72b7b2" stroke-width="2" opacity="1"/><path aria-label="Compression ratio: 11.07; Throughput (kb/ms): 18.8; new-type: ristretto19-system" role="graphics-symbol" aria-roledescription="point" transform="translate(530.9088888888889,370.55400000000003)" d="M2.7386127875258306,0A2.7386127875258306,2.7386127875258306,0,1,1,-2.7386127875258306,0A2.7386127875258306,2.7386127875258306,0,1,1,2.7386127875258306,0" fill="#72b7b2" stroke-width="2" opacity="1"/><path aria-label="Compression ratio: 11.23; Throughput (kb/ms): 10.198; new-type: ristretto19-system" role="graphics-symbol" aria-roledescription="point" transform="translate(551.7800000000001,388.14509)" d="M2.7386127875258306,0A2.7386127875258306,2.7386127875258306,0,1,1,-2.7386127875258306,0A2.7386127875258306,2.7386127875258306,0,1,1,2.7386127875258306,0" fill="#72b7b2" stroke-width="2" opacity="1"/></g><g class="mark-text role-mark layer_0_layer_1_marks" role="graphics-object" aria-roledescription="text mark container"><text aria-label="Compression ratio: 8.08; Throughput (kb/ms): 183.608; new-type: ristretto19-chromium; level: 1" role="graphics-symbol" aria-roledescription="text mark" text-anchor="end" transform="translate(145.88000000000002,28.521640000000012)" font-family="sans-serif" font-size="11px" fill="#4c78a8">1</text><text aria-label="Compression ratio: 8.47; Throughput (kb/ms): 176.052; new-type: ristretto19-chromium; level: 2" role="graphics-symbol" aria-roledescription="text mark" text-anchor="end" transform="translate(196.75333333333342,43.97366000000003)" font-family="sans-serif" font-size="11px" fill="#4c78a8">2</text><text aria-label="Compression ratio: 8.84; Throughput (kb/ms): 164.442; new-type: ristretto19-chromium; level: 3" role="graphics-symbol" aria-roledescription="text mark" text-anchor="end" transform="translate(245.01777777777775,67.71611000000004)" font-family="sans-serif" font-size="11px" fill="#4c78a8">3</text><text aria-label="Compression ratio: 9.36; Throughput (kb/ms): 107.228; new-type: ristretto19-chromium; level: 4" role="graphics-symbol" aria-roledescription="text mark" text-anchor="end" transform="translate(312.8488888888888,184.71873999999997)" font-family="sans-serif" font-size="11px" fill="#4c78a8">4</text><text aria-label="Compression ratio: 10.26; Throughput (kb/ms): 93.962; new-type: ristretto19-chromium; level: 5" role="graphics-symbol" aria-roledescription="text mark" text-anchor="end" transform="translate(430.24888888888887,211.84770999999998)" font-family="sans-serif" font-size="11px" fill="#4c78a8">5</text><text aria-label="Compression ratio: 10.49; Throughput (kb/ms): 59.94; new-type: ristretto19-chromium; level: 6" role="graphics-symbol" aria-roledescription="text mark" text-anchor="end" transform="translate(460.25111111111113,281.42269999999996)" font-family="sans-serif" font-size="11px" fill="#4c78a8">6</text><text aria-label="Compression ratio: 10.68; Throughput (kb/ms): 49.706; new-type: ristretto19-chromium; level: 7" role="graphics-symbol" aria-roledescription="text mark" text-anchor="end" transform="translate(485.0355555555555,302.35123)" font-family="sans-serif" font-size="11px" fill="#4c78a8">7</text><text aria-label="Compression ratio: 11.07; Throughput (kb/ms): 23.532; new-type: ristretto19-chromium; level: 8" role="graphics-symbol" aria-roledescription="text mark" text-anchor="end" transform="translate(535.9088888888889,355.87706000000003)" font-family="sans-serif" font-size="11px" fill="#4c78a8">8</text><text aria-label="Compression ratio: 11.23; Throughput (kb/ms): 12.918; new-type: ristretto19-chromium; level: 9" role="graphics-symbol" aria-roledescription="text mark" text-anchor="end" transform="translate(556.7800000000001,377.58268999999996)" font-family="sans-serif" font-size="11px" fill="#4c78a8">9</text><text aria-label="Compression ratio: 8.08; Throughput (kb/ms): 198.912; new-type: ristretto19-cloudflare; level: 1" role="graphics-symbol" aria-roledescription="text mark" text-anchor="end" transform="translate(145.88000000000002,-2.7750399999999997)" font-family="sans-serif" font-size="11px" fill="#f58518">1</text><text aria-label="Compression ratio: 8.47; Throughput (kb/ms): 192.31; new-type: ristretto19-cloudflare; level: 2" role="graphics-symbol" aria-roledescription="text mark" text-anchor="end" transform="translate(196.75333333333342,10.726049999999994)" font-family="sans-serif" font-size="11px" fill="#f58518">2</text><text aria-label="Compression ratio: 8.84; Throughput (kb/ms): 182.652; new-type: ristretto19-cloudflare; level: 3" role="graphics-symbol" aria-roledescription="text mark" text-anchor="end" transform="translate(245.01777777777775,30.476659999999974)" font-family="sans-serif" font-size="11px" fill="#f58518">3</text><text aria-label="Compression ratio: 9.36; Throughput (kb/ms): 121.21; new-type: ristretto19-cloudflare; level: 4" role="graphics-symbol" aria-roledescription="text mark" text-anchor="end" transform="translate(312.8488888888888,156.12554999999998)" font-family="sans-serif" font-size="11px" fill="#f58518">4</text><text aria-label="Compression ratio: 10.26; Throughput (kb/ms): 106.944; new-type: ristretto19-cloudflare; level: 5" role="graphics-symbol" aria-roledescription="text mark" text-anchor="end" transform="translate(430.24888888888887,185.29952)" font-family="sans-serif" font-size="11px" fill="#f58518">5</text><text aria-label="Compression ratio: 10.7; Throughput (kb/ms): 84.95; new-type: ristretto19-cloudflare; level: 6" role="graphics-symbol" aria-roledescription="text mark" text-anchor="end" transform="translate(487.64444444444433,230.27725)" font-family="sans-serif" font-size="11px" fill="#f58518">6</text><text aria-label="Compression ratio: 10.88; Throughput (kb/ms): 71.524; new-type: ristretto19-cloudflare; level: 7" role="graphics-symbol" aria-roledescription="text mark" text-anchor="end" transform="translate(511.1244444444446,257.73341999999997)" font-family="sans-serif" font-size="11px" fill="#f58518">7</text><text aria-label="Compression ratio: 11.25; Throughput (kb/ms): 35.754; new-type: ristretto19-cloudflare; level: 8" role="graphics-symbol" aria-roledescription="text mark" text-anchor="end" transform="translate(559.3888888888889,330.88307000000003)" font-family="sans-serif" font-size="11px" fill="#f58518">8</text><text aria-label="Compression ratio: 11.37; Throughput (kb/ms): 21.526; new-type: ristretto19-cloudflare; level: 9" role="graphics-symbol" aria-roledescription="text mark" text-anchor="end" transform="translate(575.0422222222221,359.97933)" font-family="sans-serif" font-size="11px" fill="#f58518">9</text><text aria-label="Compression ratio: 7.26; Throughput (kb/ms): 124.812; new-type: ristretto19-madler; level: 1" role="graphics-symbol" aria-roledescription="text mark" text-anchor="end" transform="translate(38.91555555555553,148.75946)" font-family="sans-serif" font-size="11px" fill="#e45756">1</text><text aria-label="Compression ratio: 7.8; Throughput (kb/ms): 117.844; new-type: ristretto19-madler; level: 2" role="graphics-symbol" aria-roledescription="text mark" text-anchor="end" transform="translate(109.35555555555553,163.00902000000002)" font-family="sans-serif" font-size="11px" fill="#e45756">2</text><text aria-label="Compression ratio: 8.37; Throughput (kb/ms): 104.844; new-type: ristretto19-madler; level: 3" role="graphics-symbol" aria-roledescription="text mark" text-anchor="end" transform="translate(183.7088888888888,189.59402)" font-family="sans-serif" font-size="11px" fill="#e45756">3</text><text aria-label="Compression ratio: 9.03; Throughput (kb/ms): 78.166; new-type: ristretto19-madler; level: 4" role="graphics-symbol" aria-roledescription="text mark" text-anchor="end" transform="translate(269.80222222222216,244.15053)" font-family="sans-serif" font-size="11px" fill="#e45756">4</text><text aria-label="Compression ratio: 9.93; Throughput (kb/ms): 65.03; new-type: ristretto19-madler; level: 5" role="graphics-symbol" aria-roledescription="text mark" text-anchor="end" transform="translate(387.2022222222222,271.01365)" font-family="sans-serif" font-size="11px" fill="#e45756">5</text><text aria-label="Compression ratio: 10.48; Throughput (kb/ms): 48.122; new-type: ristretto19-madler; level: 6" role="graphics-symbol" aria-roledescription="text mark" text-anchor="end" transform="translate(458.9466666666667,305.59051)" font-family="sans-serif" font-size="11px" fill="#e45756">6</text><text aria-label="Compression ratio: 10.68; Throughput (kb/ms): 40.012; new-type: ristretto19-madler; level: 7" role="graphics-symbol" aria-roledescription="text mark" text-anchor="end" transform="translate(485.0355555555555,322.17546)" font-family="sans-serif" font-size="11px" fill="#e45756">7</text><text aria-label="Compression ratio: 11.07; Throughput (kb/ms): 18.548; new-type: ristretto19-madler; level: 8" role="graphics-symbol" aria-roledescription="text mark" text-anchor="end" transform="translate(535.9088888888889,366.06933999999995)" font-family="sans-serif" font-size="11px" fill="#e45756">8</text><text aria-label="Compression ratio: 11.23; Throughput (kb/ms): 10.162; new-type: ristretto19-madler; level: 9" role="graphics-symbol" aria-roledescription="text mark" text-anchor="end" transform="translate(556.7800000000001,383.21871)" font-family="sans-serif" font-size="11px" fill="#e45756">9</text><text aria-label="Compression ratio: 7.26; Throughput (kb/ms): 124.716; new-type: ristretto19-system; level: 1" role="graphics-symbol" aria-roledescription="text mark" text-anchor="end" transform="translate(38.91555555555553,148.95578)" font-family="sans-serif" font-size="11px" fill="#72b7b2">1</text><text aria-label="Compression ratio: 7.8; Throughput (kb/ms): 119.04; new-type: ristretto19-system; level: 2" role="graphics-symbol" aria-roledescription="text mark" text-anchor="end" transform="translate(109.35555555555553,160.56320000000002)" font-family="sans-serif" font-size="11px" fill="#72b7b2">2</text><text aria-label="Compression ratio: 8.37; Throughput (kb/ms): 106.25; new-type: ristretto19-system; level: 3" role="graphics-symbol" aria-roledescription="text mark" text-anchor="end" transform="translate(183.7088888888888,186.71875)" font-family="sans-serif" font-size="11px" fill="#72b7b2">3</text><text aria-label="Compression ratio: 9.03; Throughput (kb/ms): 82.208; new-type: ristretto19-system; level: 4" role="graphics-symbol" aria-roledescription="text mark" text-anchor="end" transform="translate(269.80222222222216,235.88464000000005)" font-family="sans-serif" font-size="11px" fill="#72b7b2">4</text><text aria-label="Compression ratio: 9.93; Throughput (kb/ms): 67.862; new-type: ristretto19-system; level: 5" role="graphics-symbol" aria-roledescription="text mark" text-anchor="end" transform="translate(387.2022222222222,265.22221)" font-family="sans-serif" font-size="11px" fill="#72b7b2">5</text><text aria-label="Compression ratio: 10.48; Throughput (kb/ms): 51.086; new-type: ristretto19-system; level: 6" role="graphics-symbol" aria-roledescription="text mark" text-anchor="end" transform="translate(458.9466666666667,299.52913)" font-family="sans-serif" font-size="11px" fill="#72b7b2">6</text><text aria-label="Compression ratio: 10.68; Throughput (kb/ms): 41.444; new-type: ristretto19-system; level: 7" role="graphics-symbol" aria-roledescription="text mark" text-anchor="end" transform="translate(485.0355555555555,319.24702)" font-family="sans-serif" font-size="11px" fill="#72b7b2">7</text><text aria-label="Compression ratio: 11.07; Throughput (kb/ms): 18.8; new-type: ristretto19-system; level: 8" role="graphics-symbol" aria-roledescription="text mark" text-anchor="end" transform="translate(535.9088888888889,365.55400000000003)" font-family="sans-serif" font-size="11px" fill="#72b7b2">8</text><text aria-label="Compression ratio: 11.23; Throughput (kb/ms): 10.198; new-type: ristretto19-system; level: 9" role="graphics-symbol" aria-roledescription="text mark" text-anchor="end" transform="translate(556.7800000000001,383.14509)" font-family="sans-serif" font-size="11px" fill="#72b7b2">9</text></g><g class="mark-group role-title"><g transform="translate(293.5,-28.77504)"><path class="background" aria-hidden="true" d="M0,0h0v0h0Z" pointer-events="none"/><g><g class="mark-text role-title-text" role="graphics-symbol" aria-roledescription="title" aria-label="Title text 'Deflater throughput/ratio per level for 'silesia/nci' on Xeon E5-2686 v4 / 1900MHz'" pointer-events="none"><text text-anchor="middle" transform="translate(0,10)" font-family="sans-serif" font-size="13px" font-weight="bold" fill="#000" opacity="1">Deflater throughput/ratio per level for 'silesia/nci' on Xeon E5-2686 v4 / 1900MHz</text></g></g><path class="foreground" aria-hidden="true" d="" pointer-events="none" display="none"/></g></g><g class="mark-group role-legend" role="graphics-symbol" aria-roledescription="legend" aria-label="Symbol legend for fill color and stroke color with 4 values: ristretto19-chromium, ristretto19-cloudflare, ristretto19-madler, ristretto19-system"><g transform="translate(451,0)"><path class="background" aria-hidden="true" d="M0.5,0.5h138v77h-138Z" pointer-events="none" fill="#ffffff" stroke="#000000"/><g><g class="mark-group role-legend-entry"><g transform="translate(8,8)"><path class="background" aria-hidden="true" d="M0,0h0v0h0Z" pointer-events="none"/><g><g class="mark-group role-scope" role="graphics-object" aria-roledescription="group mark container"><g transform="translate(0,0)"><path class="background" aria-hidden="true" d="M0,0h122v12.5h-122Z" pointer-events="none" opacity="1"/><g><g class="mark-symbol role-legend-symbol" pointer-events="none"><path transform="translate(6,6)" d="M5,0A5,5,0,1,1,-5,0A5,5,0,1,1,5,0" fill="#4c78a8" stroke="#4c78a8" stroke-width="1.5" opacity="1"/></g><g class="mark-text role-legend-label" pointer-events="none"><text text-anchor="start" transform="translate(16,9)" font-family="sans-serif" font-size="10px" fill="#000" opacity="1">ristretto19-chromium</text></g></g><path class="foreground" aria-hidden="true" d="" pointer-events="none" display="none"/></g><g transform="translate(0,16)"><path class="background" aria-hidden="true" d="M0,0h122v12.5h-122Z" pointer-events="none" opacity="1"/><g><g class="mark-symbol role-legend-symbol" pointer-events="none"><path transform="translate(6,6)" d="M5,0A5,5,0,1,1,-5,0A5,5,0,1,1,5,0" fill="#f58518" stroke="#f58518" stroke-width="1.5" opacity="1"/></g><g class="mark-text role-legend-label" pointer-events="none"><text text-anchor="start" transform="translate(16,9)" font-family="sans-serif" font-size="10px" fill="#000" opacity="1">ristretto19-cloudflare</text></g></g><path class="foreground" aria-hidden="true" d="" pointer-events="none" display="none"/></g><g transform="translate(0,32)"><path class="background" aria-hidden="true" d="M0,0h122v12.5h-122Z" pointer-events="none" opacity="1"/><g><g class="mark-symbol role-legend-symbol" pointer-events="none"><path transform="translate(6,6)" d="M5,0A5,5,0,1,1,-5,0A5,5,0,1,1,5,0" fill="#e45756" stroke="#e45756" stroke-width="1.5" opacity="1"/></g><g class="mark-text role-legend-label" pointer-events="none"><text text-anchor="start" transform="translate(16,9)" font-family="sans-serif" font-size="10px" fill="#000" opacity="1">ristretto19-madler</text></g></g><path class="foreground" aria-hidden="true" d="" pointer-events="none" display="none"/></g><g transform="translate(0,48)"><path class="background" aria-hidden="true" d="M0,0h122v12.5h-122Z" pointer-events="none" opacity="1"/><g><g class="mark-symbol role-legend-symbol" pointer-events="none"><path transform="translate(6,6)" d="M5,0A5,5,0,1,1,-5,0A5,5,0,1,1,5,0" fill="#72b7b2" stroke="#72b7b2" stroke-width="1.5" opacity="1"/></g><g class="mark-text role-legend-label" pointer-events="none"><text text-anchor="start" transform="translate(16,9)" font-family="sans-serif" font-size="10px" fill="#000" opacity="1">ristretto19-system</text></g></g><path class="foreground" aria-hidden="true" d="" pointer-events="none" display="none"/></g></g></g><path class="foreground" aria-hidden="true" d="" pointer-events="none" display="none"/></g></g></g><path class="foreground" aria-hidden="true" d="" pointer-events="none" display="none"/></g></g></g><path class="foreground" aria-hidden="true" d="" display="none"/></g></g></g></svg>