<svg xmlns="http://www.w3.org/2000/svg" xmlns:xlink="http://www.w3.org/1999/xlink" version="1.1" class="marks" width="1280" height="960" viewBox="0 0 640 480"><rect width="640" height="480" fill="white"/><g fill="none" stroke-miterlimit="10" transform="translate(39,27)"><g class="mark-group role-frame root" role="graphics-object" aria-roledescription="group mark container"><g transform="translate(0,0)"><path class="background" aria-hidden="true" d="M0.5,0.5h591v416h-591Z" stroke="#ddd"/><g><g class="mark-group role-axis" aria-hidden="true"><g transform="translate(0.5,416.5)"><path class="background" aria-hidden="true" d="M0,0h0v0h0Z" pointer-events="none"/><g><g class="mark-rule role-axis-grid" pointer-events="none"><line transform="translate(0,-416)" x2="0" y2="416" stroke="#ddd" stroke-width="1" opacity="1"/><line transform="translate(49,-416)" x2="0" y2="416" stroke="#ddd" stroke-width="1" opacity="1"/><line transform="translate(99,-416)" x2="0" y2="416" stroke="#ddd" stroke-width="1" opacity="1"/><line transform="translate(148,-416)" x2="0" y2="416" stroke="#ddd" stroke-width="1" opacity="1"/><line transform="translate(197,-416)" x2="0" y2="416" stroke="#ddd" stroke-width="1" opacity="1"/><line transform="translate(246,-416)" x2="0" y2="416" stroke="#ddd" stroke-width="1" opacity="1"/><line transform="translate(296,-416)" x2="0" y2="416" stroke="#ddd" stroke-width="1" opacity="1"/><line transform="translate(345,-416)" x2="0" y2="416" stroke="#ddd" stroke-width="1" opacity="1"/><line transform="translate(394,-416)" x2="0" y2="416" stroke="#ddd" stroke-width="1" opacity="1"/><line transform="translate(443,-416)" x2="0" y2="416" stroke="#ddd" stroke-width="1" opacity="1"/><line transform="translate(493,-416)" x2="0" y2="416" stroke="#ddd" stroke-width="1" opacity="1"/><line transform="translate(542,-416)" x2="0" y2="416" stroke="#ddd" stroke-width="1" opacity="1"/><line transform="translate(591,-416)" x2="0" y2="416" stroke="#ddd" stroke-width="1" opacity="1"/></g></g><path class="foreground" aria-hidden="true" d="" pointer-events="none" display="none"/></g></g><g class="mark-group role-axis" aria-hidden="true"><g transform="translate(0.5,0.5)"><path class="background" aria-hidden="true" d="M0,0h0v0h0Z" pointer-events="none"/><g><g class="mark-rule role-axis-grid" pointer-events="none"><line transform="translate(0,416)" x2="591" y2="0" stroke="#ddd" stroke-width="1" opacity="1"/><line transform="translate(0,364)" x2="591" y2="0" stroke="#ddd" stroke-width="1" opacity="1"/><line transform="translate(0,312)" x2="591" y2="0" stroke="#ddd" stroke-width="1" opacity="1"/><line transform="translate(0,260)" x2="591" y2="0" stroke="#ddd" stroke-width="1" opacity="1"/><line transform="translate(0,208)" x2="591" y2="0" stroke="#ddd" stroke-width="1" opacity="1"/><line transform="translate(0,156)" x2="591" y2="0" stroke="#ddd" stroke-width="1" opacity="1"/><line transform="translate(0,104)" x2="591" y2="0" stroke="#ddd" stroke-width="1" opacity="1"/><line transform="translate(0,52)" x2="591" y2="0" stroke="#ddd" stroke-width="1" opacity="1"/><line transform="translate(0,0)" x2="591" y2="0" stroke="#ddd" stroke-width="1" opacity="1"/></g></g><path class="foreground" aria-hidden="true" d="" pointer-events="none" display="none"/></g></g><g class="mark-group role-axis" role="graphics-symbol" aria-roledescription="axis" aria-label="X-axis titled 'Compression ratio' for a linear scale with values from 1.30 to 1.36"><g transform="translate(0.5,416.5)"><path class="background" aria-hidden="true" d="M0,0h0v0h0Z" pointer-events="none"/><g><g class="mark-rule role-axis-tick" pointer-events="none"><line transform="translate(0,0)" x2="0" y2="5" stroke="#888" stroke-width="1" opacity="1"/><line transform="translate(49,0)" x2="0" y2="5" stroke="#888" stroke-width="1" opacity="1"/><line transform="translate(99,0)" x2="0" y2="5" stroke="#888" stroke-width="1" opacity="1"/><line transform="translate(148,0)" x2="0" y2="5" stroke="#888" stroke-width="1" opacity="1"/><line transform="translate(197,0)" x2="0" y2="5" stroke="#888" stroke-width="1" opacity="1"/><line transform="translate(246,0)" x2="0" y2="5" stroke="#888" stroke-width="1" opacity="1"/><line transform="translate(296,0)" x2="0" y2="5" stroke="#888" stroke-width="1" opacity="1"/><line transform="translate(345,0)" x2="0" y2="5" stroke="#888" stroke-width="1" opacity="1"/><line transform="translate(394,0)" x2="0" y2="5" stroke="#888" stroke-width="1" opacity="1"/><line transform="translate(443,0)" x2="0" y2="5" stroke="#888" stroke-width="1" opacity="1"/><line transform="translate(493,0)" x2="0" y2="5" stroke="#888" stroke-width="1" opacity="1"/><line transform="translate(542,0)" x2="0" y2="5" stroke="#888" stroke-width="1" opacity="1"/><line transform="translate(591,0)" x2="0" y2="5" stroke="#888" stroke-width="1" opacity="1"/></g><g class="mark-text role-axis-label" pointer-events="none"><text text-anchor="start" transform="translate(0,15)" font-family="sans-serif" font-size="10px" fill="#000" opacity="1">1.300</text><text text-anchor="middle" transform="translate(49.249999999998906,15)" font-family="sans-serif" font-size="10px" fill="#000" opacity="1">1.305</text><text text-anchor="middle" transform="translate(98.5,15)" font-family="sans-serif" font-size="10px" fill="#000" opacity="1">1.310</text><text text-anchor="middle" transform="translate(147.7499999999989,15)" font-family="sans-serif" font-size="10px" fill="#000" opacity="1">1.315</text><text text-anchor="middle" transform="translate(197,15)" font-family="sans-serif" font-size="10px" fill="#000" opacity="1">1.320</text><text text-anchor="middle" transform="translate(246.2499999999989,15)" font-family="sans-serif" font-size="10px" fill="#000" opacity="1">1.325</text><text text-anchor="middle" transform="translate(295.5,15)" font-family="sans-serif" font-size="10px" fill="#000" opacity="1">1.330</text><text text-anchor="middle" transform="translate(344.7499999999989,15)" font-family="sans-serif" font-size="10px" fill="#000" opacity="1">1.335</text><text text-anchor="middle" transform="translate(394,15)" font-family="sans-serif" font-size="10px" fill="#000" opacity="1">1.340</text><text text-anchor="middle" transform="translate(443.24999999999886,15)" font-family="sans-serif" font-size="10px" fill="#000" opacity="1">1.345</text><text text-anchor="middle" transform="translate(492.5,15)" font-family="sans-serif" font-size="10px" fill="#000" opacity="1">1.350</text><text text-anchor="middle" transform="translate(541.749999999999,15)" font-family="sans-serif" font-size="10px" fill="#000" opacity="1">1.355</text><text text-anchor="end" transform="translate(591,15)" font-family="sans-serif" font-size="10px" fill="#000" opacity="1">1.360</text></g><g class="mark-rule role-axis-domain" pointer-events="none"><line transform="translate(0,0)" x2="591" y2="0" stroke="#888" stroke-width="1" opacity="1"/></g><g class="mark-text role-axis-title" pointer-events="none"><text text-anchor="middle" transform="translate(295.5,30)" font-family="sans-serif" font-size="11px" font-weight="bold" fill="#000" opacity="1">Compression ratio</text></g></g><path class="foreground" aria-hidden="true" d="" pointer-events="none" display="none"/></g></g><g class="mark-group role-axis" role="graphics-symbol" aria-roledescription="axis" aria-label="Y-axis titled 'Throughput (kb/ms)' for a linear scale with values from 0 to 40"><g transform="translate(0.5,0.5)"><path class="background" aria-hidden="true" d="M0,0h0v0h0Z" pointer-events="none"/><g><g class="mark-rule role-axis-tick" pointer-events="none"><line transform="translate(0,416)" x2="-5" y2="0" stroke="#888" stroke-width="1" opacity="1"/><line transform="translate(0,364)" x2="-5" y2="0" stroke="#888" stroke-width="1" opacity="1"/><line transform="translate(0,312)" x2="-5" y2="0" stroke="#888" stroke-width="1" opacity="1"/><line transform="translate(0,260)" x2="-5" y2="0" stroke="#888" stroke-width="1" opacity="1"/><line transform="translate(0,208)" x2="-5" y2="0" stroke="#888" stroke-width="1" opacity="1"/><line transform="translate(0,156)" x2="-5" y2="0" stroke="#888" stroke-width="1" opacity="1"/><line transform="translate(0,104)" x2="-5" y2="0" stroke="#888" stroke-width="1" opacity="1"/><line transform="translate(0,52)" x2="-5" y2="0" stroke="#888" stroke-width="1" opacity="1"/><line transform="translate(0,0)" x2="-5" y2="0" stroke="#888" stroke-width="1" opacity="1"/></g><g class="mark-text role-axis-label" pointer-events="none"><text text-anchor="end" transform="translate(-7,419)" font-family="sans-serif" font-size="10px" fill="#000" opacity="1">0</text><text text-anchor="end" transform="translate(-7,367)" font-family="sans-serif" font-size="10px" fill="#000" opacity="1">5</text><text text-anchor="end" transform="translate(-7,315)" font-family="sans-serif" font-size="10px" fill="#000" opacity="1">10</text><text text-anchor="end" transform="translate(-7,263)" font-family="sans-serif" font-size="10px" fill="#000" opacity="1">15</text><text text-anchor="end" transform="translate(-7,211)" font-family="sans-serif" font-size="10px" fill="#000" opacity="1">20</text><text text-anchor="end" transform="translate(-7,159)" font-family="sans-serif" font-size="10px" fill="#000" opacity="1">25</text><text text-anchor="end" transform="translate(-7,107)" font-family="sans-serif" font-size="10px" fill="#000" opacity="1">30</text><text text-anchor="end" transform="translate(-7,55)" font-family="sans-serif" font-size="10px" fill="#000" opacity="1">35</text><text text-anchor="end" transform="translate(-7,3)" font-family="sans-serif" font-size="10px" fill="#000" opacity="1">40</text></g><g class="mark-rule role-axis-domain" pointer-events="none"><line transform="translate(0,416)" x2="0" y2="-416" stroke="#888" stroke-width="1" opacity="1"/></g><g class="mark-text role-axis-title" pointer-events="none"><text text-anchor="middle" transform="translate(-23,208) rotate(-90) translate(0,-2)" font-family="sans-serif" font-size="11px" font-weight="bold" fill="#000" opacity="1">Throughput (kb/ms)</text></g></g><path class="foreground" aria-hidden="true" d="" pointer-events="none" display="none"/></g></g><g class="mark-group role-scope layer_0_layer_0_layer_0_pathgroup" role="graphics-object" aria-roledescription="group mark container"><g transform="translate(0,0)"><path class="background" aria-hidden="true" d="M0,0h591v416h-591Z"/><g><g class="mark-line role-mark layer_0_layer_0_layer_0_marks" role="graphics-object" aria-roledescription="line mark container"><path aria-label="Compression ratio: 1.3; Throughput (kb/ms): 35.372; new-type: ristretto19-chromium" role="graphics-symbol" aria-roledescription="line mark" d="M0,48.13120000000001L98.5,73.09120000000007L295.5,113.71359999999999L295.5,123.09439999999998L295.5,175.656L591,270.6704L591,282.5888L591,298.4176L591,298.376" stroke="#4c78a8" stroke-width="2"/></g></g><path class="foreground" aria-hidden="true" d="" display="none"/></g><g transform="translate(0,0)"><path class="background" aria-hidden="true" d="M0,0h591v416h-591Z"/><g><g class="mark-line role-mark layer_0_layer_0_layer_0_marks" role="graphics-object" aria-roledescription="line mark container"><path aria-label="Compression ratio: 1.3; Throughput (kb/ms): 37.808; new-type: ristretto19-cloudflare" role="graphics-symbol" aria-roledescription="line mark" d="M0,22.796799999999983L98.5,47.756800000000005L295.5,95.05600000000001L295.5,100.87999999999997L295.5,156.9152L394,177.98559999999998L394,183.664L394,187.17920000000004L394,187.0752" stroke="#f58518" stroke-width="2"/></g></g><path class="foreground" aria-hidden="true" d="" display="none"/></g><g transform="translate(0,0)"><path class="background" aria-hidden="true" d="M0,0h591v416h-591Z"/><g><g class="mark-line role-mark layer_0_layer_0_layer_0_marks" role="graphics-object" aria-roledescription="line mark container"><path aria-label="Compression ratio: 1.3; Throughput (kb/ms): 29.304; new-type: ristretto19-madler" role="graphics-symbol" aria-roledescription="line mark" d="M0,111.23840000000004L197,136.656L295.5,185.9312L394,183.7056L492.5,249.8496L591,291.8032L591,301.1216L591,313.91360000000003L591,313.9136" stroke="#e45756" stroke-width="2"/></g></g><path class="foreground" aria-hidden="true" d="" display="none"/></g><g transform="translate(0,0)"><path class="background" aria-hidden="true" d="M0,0h591v416h-591Z"/><g><g class="mark-line role-mark layer_0_layer_0_layer_0_marks" role="graphics-object" aria-roledescription="line mark container"><path aria-label="Compression ratio: 1.3; Throughput (kb/ms): 29.438; new-type: ristretto19-system" role="graphics-symbol" aria-roledescription="line mark" d="M0,109.8448L197,134.38880000000003L295.5,185.12000000000003L394,180.46079999999998L492.5,248.53920000000002L591,291.30400000000003L591,300.7264L591,313.87199999999996L591,313.8304" stroke="#72b7b2" stroke-width="2"/></g></g><path class="foreground" aria-hidden="true" d="" display="none"/></g></g><g class="mark-symbol role-mark layer_0_layer_0_layer_1_marks" role="graphics-object" aria-roledescription="symbol mark container"><path aria-label="Compression ratio: 1.3; Throughput (kb/ms): 35.372; new-type: ristretto19-chromium" role="graphics-symbol" aria-roledescription="point" transform="translate(0,48.13120000000001)" d="M2.7386127875258306,0A2.7386127875258306,2.7386127875258306,0,1,1,-2.7386127875258306,0A2.7386127875258306,2.7386127875258306,0,1,1,2.7386127875258306,0" fill="#4c78a8" stroke-width="2" opacity="1"/><path aria-label="Compression ratio: 1.31; Throughput (kb/ms): 32.972; new-type: ristretto19-chromium" role="graphics-symbol" aria-roledescription="point" transform="translate(98.5,73.09120000000007)" d="M2.7386127875258306,0A2.7386127875258306,2.7386127875258306,0,1,1,-2.7386127875258306,0A2.7386127875258306,2.7386127875258306,0,1,1,2.7386127875258306,0" fill="#4c78a8" stroke-width="2" opacity="1"/><path aria-label="Compression ratio: 1.33; Throughput (kb/ms): 29.066; new-type: ristretto19-chromium" role="graphics-symbol" aria-roledescription="point" transform="translate(295.5,113.71359999999999)" d="M2.7386127875258306,0A2.7386127875258306,2.7386127875258306,0,1,1,-2.7386127875258306,0A2.7386127875258306,2.7386127875258306,0,1,1,2.7386127875258306,0" fill="#4c78a8" stroke-width="2" opacity="1"/><path aria-label="Compression ratio: 1.33; Throughput (kb/ms): 28.164; new-type: ristretto19-chromium" role="graphics-symbol" aria-roledescription="point" transform="translate(295.5,123.09439999999998)" d="M2.7386127875258306,0A2.7386127875258306,2.7386127875258306,0,1,1,-2.7386127875258306,0A2.7386127875258306,2.7386127875258306,0,1,1,2.7386127875258306,0" fill="#4c78a8" stroke-width="2" opacity="1"/><path aria-label="Compression ratio: 1.33; Throughput (kb/ms): 23.11; new-type: ristretto19-chromium" role="graphics-symbol" aria-roledescription="point" transform="translate(295.5,175.656)" d="M2.7386127875258306,0A2.7386127875258306,2.7386127875258306,0,1,1,-2.7386127875258306,0A2.7386127875258306,2.7386127875258306,0,1,1,2.7386127875258306,0" fill="#4c78a8" stroke-width="2" opacity="1"/><path aria-label="Compression ratio: 1.36; Throughput (kb/ms): 13.974; new-type: ristretto19-chromium" role="graphics-symbol" aria-roledescription="point" transform="translate(591,270.6704)" d="M2.7386127875258306,0A2.7386127875258306,2.7386127875258306,0,1,1,-2.7386127875258306,0A2.7386127875258306,2.7386127875258306,0,1,1,2.7386127875258306,0" fill="#4c78a8" stroke-width="2" opacity="1"/><path aria-label="Compression ratio: 1.36; Throughput (kb/ms): 12.828; new-type: ristretto19-chromium" role="graphics-symbol" aria-roledescription="point" transform="translate(591,282.5888)" d="M2.7386127875258306,0A2.7386127875258306,2.7386127875258306,0,1,1,-2.7386127875258306,0A2.7386127875258306,2.7386127875258306,0,1,1,2.7386127875258306,0" fill="#4c78a8" stroke-width="2" opacity="1"/><path aria-label="Compression ratio: 1.36; Throughput (kb/ms): 11.306; new-type: ristretto19-chromium" role="graphics-symbol" aria-roledescription="point" transform="translate(591,298.4176)" d="M2.7386127875258306,0A2.7386127875258306,2.7386127875258306,0,1,1,-2.7386127875258306,0A2.7386127875258306,2.7386127875258306,0,1,1,2.7386127875258306,0" fill="#4c78a8" stroke-width="2" opacity="1"/><path aria-label="Compression ratio: 1.36; Throughput (kb/ms): 11.31; new-type: ristretto19-chromium" role="graphics-symbol" aria-roledescription="point" transform="translate(591,298.376)" d="M2.7386127875258306,0A2.7386127875258306,2.7386127875258306,0,1,1,-2.7386127875258306,0A2.7386127875258306,2.7386127875258306,0,1,1,2.7386127875258306,0" fill="#4c78a8" stroke-width="2" opacity="1"/><path aria-label="Compression ratio: 1.3; Throughput (kb/ms): 37.808; new-type: ristretto19-cloudflare" role="graphics-symbol" aria-roledescription="point" transform="translate(0,22.796799999999983)" d="M2.7386127875258306,0A2.7386127875258306,2.7386127875258306,0,1,1,-2.7386127875258306,0A2.7386127875258306,2.7386127875258306,0,1,1,2.7386127875258306,0" fill="#f58518" stroke-width="2" opacity="1"/><path aria-label="Compression ratio: 1.31; Throughput (kb/ms): 35.408; new-type: ristretto19-cloudflare" role="graphics-symbol" aria-roledescription="point" transform="translate(98.5,47.756800000000005)" d="M2.7386127875258306,0A2.7386127875258306,2.7386127875258306,0,1,1,-2.7386127875258306,0A2.7386127875258306,2.7386127875258306,0,1,1,2.7386127875258306,0" fill="#f58518" stroke-width="2" opacity="1"/><path aria-label="Compression ratio: 1.33; Throughput (kb/ms): 30.86; new-type: ristretto19-cloudflare" role="graphics-symbol" aria-roledescription="point" transform="translate(295.5,95.05600000000001)" d="M2.7386127875258306,0A2.7386127875258306,2.7386127875258306,0,1,1,-2.7386127875258306,0A2.7386127875258306,2.7386127875258306,0,1,1,2.7386127875258306,0" fill="#f58518" stroke-width="2" opacity="1"/><path aria-label="Compression ratio: 1.33; Throughput (kb/ms): 30.3; new-type: ristretto19-cloudflare" role="graphics-symbol" aria-roledescription="point" transform="translate(295.5,100.87999999999997)" d="M2.7386127875258306,0A2.7386127875258306,2.7386127875258306,0,1,1,-2.7386127875258306,0A2.7386127875258306,2.7386127875258306,0,1,1,2.7386127875258306,0" fill="#f58518" stroke-width="2" opacity="1"/><path aria-label="Compression ratio: 1.33; Throughput (kb/ms): 24.912; new-type: ristretto19-cloudflare" role="graphics-symbol" aria-roledescription="point" transform="translate(295.5,156.9152)" d="M2.7386127875258306,0A2.7386127875258306,2.7386127875258306,0,1,1,-2.7386127875258306,0A2.7386127875258306,2.7386127875258306,0,1,1,2.7386127875258306,0" fill="#f58518" stroke-width="2" opacity="1"/><path aria-label="Compression ratio: 1.34; Throughput (kb/ms): 22.886; new-type: ristretto19-cloudflare" role="graphics-symbol" aria-roledescription="point" transform="translate(394,177.98559999999998)" d="M2.7386127875258306,0A2.7386127875258306,2.7386127875258306,0,1,1,-2.7386127875258306,0A2.7386127875258306,2.7386127875258306,0,1,1,2.7386127875258306,0" fill="#f58518" stroke-width="2" opacity="1"/><path aria-label="Compression ratio: 1.34; Throughput (kb/ms): 22.34; new-type: ristretto19-cloudflare" role="graphics-symbol" aria-roledescription="point" transform="translate(394,183.664)" d="M2.7386127875258306,0A2.7386127875258306,2.7386127875258306,0,1,1,-2.7386127875258306,0A2.7386127875258306,2.7386127875258306,0,1,1,2.7386127875258306,0" fill="#f58518" stroke-width="2" opacity="1"/><path aria-label="Compression ratio: 1.34; Throughput (kb/ms): 22.002; new-type: ristretto19-cloudflare" role="graphics-symbol" aria-roledescription="point" transform="translate(394,187.17920000000004)" d="M2.7386127875258306,0A2.7386127875258306,2.7386127875258306,0,1,1,-2.7386127875258306,0A2.7386127875258306,2.7386127875258306,0,1,1,2.7386127875258306,0" fill="#f58518" stroke-width="2" opacity="1"/><path aria-label="Compression ratio: 1.34; Throughput (kb/ms): 22.012; new-type: ristretto19-cloudflare" role="graphics-symbol" aria-roledescription="point" transform="translate(394,187.0752)" d="M2.7386127875258306,0A2.7386127875258306,2.7386127875258306,0,1,1,-2.7386127875258306,0A2.7386127875258306,2.7386127875258306,0,1,1,2.7386127875258306,0" fill="#f58518" stroke-width="2" opacity="1"/><path aria-label="Compression ratio: 1.3; Throughput (kb/ms): 29.304; new-type: ristretto19-madler" role="graphics-symbol" aria-roledescription="point" transform="translate(0,111.23840000000004)" d="M2.7386127875258306,0A2.7386127875258306,2.7386127875258306,0,1,1,-2.7386127875258306,0A2.7386127875258306,2.7386127875258306,0,1,1,2.7386127875258306,0" fill="#e45756" stroke-width="2" opacity="1"/><path aria-label="Compression ratio: 1.32; Throughput (kb/ms): 26.86; new-type: ristretto19-madler" role="graphics-symbol" aria-roledescription="point" transform="translate(197,136.656)" d="M2.7386127875258306,0A2.7386127875258306,2.7386127875258306,0,1,1,-2.7386127875258306,0A2.7386127875258306,2.7386127875258306,0,1,1,2.7386127875258306,0" fill="#e45756" stroke-width="2" opacity="1"/><path aria-label="Compression ratio: 1.33; Throughput (kb/ms): 22.122; new-type: ristretto19-madler" role="graphics-symbol" aria-roledescription="point" transform="translate(295.5,185.9312)" d="M2.7386127875258306,0A2.7386127875258306,2.7386127875258306,0,1,1,-2.7386127875258306,0A2.7386127875258306,2.7386127875258306,0,1,1,2.7386127875258306,0" fill="#e45756" stroke-width="2" opacity="1"/><path aria-label="Compression ratio: 1.34; Throughput (kb/ms): 22.336; new-type: ristretto19-madler" role="graphics-symbol" aria-roledescription="point" transform="translate(394,183.7056)" d="M2.7386127875258306,0A2.7386127875258306,2.7386127875258306,0,1,1,-2.7386127875258306,0A2.7386127875258306,2.7386127875258306,0,1,1,2.7386127875258306,0" fill="#e45756" stroke-width="2" opacity="1"/><path aria-label="Compression ratio: 1.35; Throughput (kb/ms): 15.976; new-type: ristretto19-madler" role="graphics-symbol" aria-roledescription="point" transform="translate(492.5,249.8496)" d="M2.7386127875258306,0A2.7386127875258306,2.7386127875258306,0,1,1,-2.7386127875258306,0A2.7386127875258306,2.7386127875258306,0,1,1,2.7386127875258306,0" fill="#e45756" stroke-width="2" opacity="1"/><path aria-label="Compression ratio: 1.36; Throughput (kb/ms): 11.942; new-type: ristretto19-madler" role="graphics-symbol" aria-roledescription="point" transform="translate(591,291.8032)" d="M2.7386127875258306,0A2.7386127875258306,2.7386127875258306,0,1,1,-2.7386127875258306,0A2.7386127875258306,2.7386127875258306,0,1,1,2.7386127875258306,0" fill="#e45756" stroke-width="2" opacity="1"/><path aria-label="Compression ratio: 1.36; Throughput (kb/ms): 11.046; new-type: ristretto19-madler" role="graphics-symbol" aria-roledescription="point" transform="translate(591,301.1216)" d="M2.7386127875258306,0A2.7386127875258306,2.7386127875258306,0,1,1,-2.7386127875258306,0A2.7386127875258306,2.7386127875258306,0,1,1,2.7386127875258306,0" fill="#e45756" stroke-width="2" opacity="1"/><path aria-label="Compression ratio: 1.36; Throughput (kb/ms): 9.816; new-type: ristretto19-madler" role="graphics-symbol" aria-roledescription="point" transform="translate(591,313.91360000000003)" d="M2.7386127875258306,0A2.7386127875258306,2.7386127875258306,0,1,1,-2.7386127875258306,0A2.7386127875258306,2.7386127875258306,0,1,1,2.7386127875258306,0" fill="#e45756" stroke-width="2" opacity="1"/><path aria-label="Compression ratio: 1.36; Throughput (kb/ms): 9.816; new-type: ristretto19-madler" role="graphics-symbol" aria-roledescription="point" transform="translate(591,313.9136)" d="M2.7386127875258306,0A2.7386127875258306,2.7386127875258306,0,1,1,-2.7386127875258306,0A2.7386127875258306,2.7386127875258306,0,1,1,2.7386127875258306,0" fill="#e45756" stroke-width="2" opacity="1"/><path aria-label="Compression ratio: 1.3; Throughput (kb/ms): 29.438; new-type: ristretto19-system" role="graphics-symbol" aria-roledescription="point" transform="translate(0,109.8448)" d="M2.7386127875258306,0A2.7386127875258306,2.7386127875258306,0,1,1,-2.7386127875258306,0A2.7386127875258306,2.7386127875258306,0,1,1,2.7386127875258306,0" fill="#72b7b2" stroke-width="2" opacity="1"/><path aria-label="Compression ratio: 1.32; Throughput (kb/ms): 27.078; new-type: ristretto19-system" role="graphics-symbol" aria-roledescription="point" transform="translate(197,134.38880000000003)" d="M2.7386127875258306,0A2.7386127875258306,2.7386127875258306,0,1,1,-2.7386127875258306,0A2.7386127875258306,2.7386127875258306,0,1,1,2.7386127875258306,0" fill="#72b7b2" stroke-width="2" opacity="1"/><path aria-label="Compression ratio: 1.33; Throughput (kb/ms): 22.2; new-type: ristretto19-system" role="graphics-symbol" aria-roledescription="point" transform="translate(295.5,185.12000000000003)" d="M2.7386127875258306,0A2.7386127875258306,2.7386127875258306,0,1,1,-2.7386127875258306,0A2.7386127875258306,2.7386127875258306,0,1,1,2.7386127875258306,0" fill="#72b7b2" stroke-width="2" opacity="1"/><path aria-label="Compression ratio: 1.34; Throughput (kb/ms): 22.648; new-type: ristretto19-system" role="graphics-symbol" aria-roledescription="point" transform="translate(394,180.46079999999998)" d="M2.7386127875258306,0A2.7386127875258306,2.7386127875258306,0,1,1,-2.7386127875258306,0A2.7386127875258306,2.7386127875258306,0,1,1,2.7386127875258306,0" fill="#72b7b2" stroke-width="2" opacity="1"/><path aria-label="Compression ratio: 1.35; Throughput (kb/ms): 16.102; new-type: ristretto19-system" role="graphics-symbol" aria-roledescription="point" transform="translate(492.5,248.53920000000002)" d="M2.7386127875258306,0A2.7386127875258306,2.7386127875258306,0,1,1,-2.7386127875258306,0A2.7386127875258306,2.7386127875258306,0,1,1,2.7386127875258306,0" fill="#72b7b2" stroke-width="2" opacity="1"/><path aria-label="Compression ratio: 1.36; Throughput (kb/ms): 11.99; new-type: ristretto19-system" role="graphics-symbol" aria-roledescription="point" transform="translate(591,291.30400000000003)" d="M2.7386127875258306,0A2.7386127875258306,2.7386127875258306,0,1,1,-2.7386127875258306,0A2.7386127875258306,2.7386127875258306,0,1,1,2.7386127875258306,0" fill="#72b7b2" stroke-width="2" opacity="1"/><path aria-label="Compression ratio: 1.36; Throughput (kb/ms): 11.084; new-type: ristretto19-system" role="graphics-symbol" aria-roledescription="point" transform="translate(591,300.7264)" d="M2.7386127875258306,0A2.7386127875258306,2.7386127875258306,0,1,1,-2.7386127875258306,0A2.7386127875258306,2.7386127875258306,0,1,1,2.7386127875258306,0" fill="#72b7b2" stroke-width="2" opacity="1"/><path aria-label="Compression ratio: 1.36; Throughput (kb/ms): 9.82; new-type: ristretto19-system" role="graphics-symbol" aria-roledescription="point" transform="translate(591,313.87199999999996)" d="M2.7386127875258306,0A2.7386127875258306,2.7386127875258306,0,1,1,-2.7386127875258306,0A2.7386127875258306,2.7386127875258306,0,1,1,2.7386127875258306,0" fill="#72b7b2" stroke-width="2" opacity="1"/><path aria-label="Compression ratio: 1.36; Throughput (kb/ms): 9.824; new-type: ristretto19-system" role="graphics-symbol" aria-roledescription="point" transform="translate(591,313.8304)" d="M2.7386127875258306,0A2.7386127875258306,2.7386127875258306,0,1,1,-2.7386127875258306,0A2.7386127875258306,2.7386127875258306,0,1,1,2.7386127875258306,0" fill="#72b7b2" stroke-width="2" opacity="1"/></g><g class="mark-text role-mark layer_0_layer_1_marks" role="graphics-object" aria-roledescription="text mark container"><text aria-label="Compression ratio: 1.3; Throughput (kb/ms): 35.372; new-type: ristretto19-chromium; level: 1" role="graphics-symbol" aria-roledescription="text mark" text-anchor="end" transform="translate(5,43.13120000000001)" font-family="sans-serif" font-size="11px" fill="#4c78a8">1</text><text aria-label="Compression ratio: 1.31; Throughput (kb/ms): 32.972; new-type: ristretto19-chromium; level: 2" role="graphics-symbol" aria-roledescription="text mark" text-anchor="end" transform="translate(103.5,68.09120000000007)" font-family="sans-serif" font-size="11px" fill="#4c78a8">2</text><text aria-label="Compression ratio: 1.33; Throughput (kb/ms): 29.066; new-type: ristretto19-chromium; level: 3" role="graphics-symbol" aria-roledescription="text mark" text-anchor="end" transform="translate(300.5,108.71359999999999)" font-family="sans-serif" font-size="11px" fill="#4c78a8">3</text><text aria-label="Compression ratio: 1.33; Throughput (kb/ms): 28.164; new-type: ristretto19-chromium; level: 4" role="graphics-symbol" aria-roledescription="text mark" text-anchor="end" transform="translate(300.5,118.09439999999998)" font-family="sans-serif" font-size="11px" fill="#4c78a8">4</text><text aria-label="Compression ratio: 1.33; Throughput (kb/ms): 23.11; new-type: ristretto19-chromium; level: 5" role="graphics-symbol" aria-roledescription="text mark" text-anchor="end" transform="translate(300.5,170.656)" font-family="sans-serif" font-size="11px" fill="#4c78a8">5</text><text aria-label="Compression ratio: 1.36; Throughput (kb/ms): 13.974; new-type: ristretto19-chromium; level: 6" role="graphics-symbol" aria-roledescription="text mark" text-anchor="end" transform="translate(596,265.6704)" font-family="sans-serif" font-size="11px" fill="#4c78a8">6</text><text aria-label="Compression ratio: 1.36; Throughput (kb/ms): 12.828; new-type: ristretto19-chromium; level: 7" role="graphics-symbol" aria-roledescription="text mark" text-anchor="end" transform="translate(596,277.5888)" font-family="sans-serif" font-size="11px" fill="#4c78a8">7</text><text aria-label="Compression ratio: 1.36; Throughput (kb/ms): 11.306; new-type: ristretto19-chromium; level: 8" role="graphics-symbol" aria-roledescription="text mark" text-anchor="end" transform="translate(596,293.4176)" font-family="sans-serif" font-size="11px" fill="#4c78a8">8</text><text aria-label="Compression ratio: 1.36; Throughput (kb/ms): 11.31; new-type: ristretto19-chromium; level: 9" role="graphics-symbol" aria-roledescription="text mark" text-anchor="end" transform="translate(596,293.376)" font-family="sans-serif" font-size="11px" fill="#4c78a8">9</text><text aria-label="Compression ratio: 1.3; Throughput (kb/ms): 37.808; new-type: ristretto19-cloudflare; level: 1" role="graphics-symbol" aria-roledescription="text mark" text-anchor="end" transform="translate(5,17.796799999999983)" font-family="sans-serif" font-size="11px" fill="#f58518">1</text><text aria-label="Compression ratio: 1.31; Throughput (kb/ms): 35.408; new-type: ristretto19-cloudflare; level: 2" role="graphics-symbol" aria-roledescription="text mark" text-anchor="end" transform="translate(103.5,42.756800000000005)" font-family="sans-serif" font-size="11px" fill="#f58518">2</text><text aria-label="Compression ratio: 1.33; Throughput (kb/ms): 30.86; new-type: ristretto19-cloudflare; level: 3" role="graphics-symbol" aria-roledescription="text mark" text-anchor="end" transform="translate(300.5,90.05600000000001)" font-family="sans-serif" font-size="11px" fill="#f58518">3</text><text aria-label="Compression ratio: 1.33; Throughput (kb/ms): 30.3; new-type: ristretto19-cloudflare; level: 4" role="graphics-symbol" aria-roledescription="text mark" text-anchor="end" transform="translate(300.5,95.87999999999997)" font-family="sans-serif" font-size="11px" fill="#f58518">4</text><text aria-label="Compression ratio: 1.33; Throughput (kb/ms): 24.912; new-type: ristretto19-cloudflare; level: 5" role="graphics-symbol" aria-roledescription="text mark" text-anchor="end" transform="translate(300.5,151.9152)" font-family="sans-serif" font-size="11px" fill="#f58518">5</text><text aria-label="Compression ratio: 1.34; Throughput (kb/ms): 22.886; new-type: ristretto19-cloudflare; level: 6" role="graphics-symbol" aria-roledescription="text mark" text-anchor="end" transform="translate(399,172.98559999999998)" font-family="sans-serif" font-size="11px" fill="#f58518">6</text><text aria-label="Compression ratio: 1.34; Throughput (kb/ms): 22.34; new-type: ristretto19-cloudflare; level: 7" role="graphics-symbol" aria-roledescription="text mark" text-anchor="end" transform="translate(399,178.664)" font-family="sans-serif" font-size="11px" fill="#f58518">7</text><text aria-label="Compression ratio: 1.34; Throughput (kb/ms): 22.002; new-type: ristretto19-cloudflare; level: 8" role="graphics-symbol" aria-roledescription="text mark" text-anchor="end" transform="translate(399,182.17920000000004)" font-family="sans-serif" font-size="11px" fill="#f58518">8</text><text aria-label="Compression ratio: 1.34; Throughput (kb/ms): 22.012; new-type: ristretto19-cloudflare; level: 9" role="graphics-symbol" aria-roledescription="text mark" text-anchor="end" transform="translate(399,182.0752)" font-family="sans-serif" font-size="11px" fill="#f58518">9</text><text aria-label="Compression ratio: 1.3; Throughput (kb/ms): 29.304; new-type: ristretto19-madler; level: 1" role="graphics-symbol" aria-roledescription="text mark" text-anchor="end" transform="translate(5,106.23840000000004)" font-family="sans-serif" font-size="11px" fill="#e45756">1</text><text aria-label="Compression ratio: 1.32; Throughput (kb/ms): 26.86; new-type: ristretto19-madler; level: 2" role="graphics-symbol" aria-roledescription="text mark" text-anchor="end" transform="translate(202,131.656)" font-family="sans-serif" font-size="11px" fill="#e45756">2</text><text aria-label="Compression ratio: 1.33; Throughput (kb/ms): 22.122; new-type: ristretto19-madler; level: 3" role="graphics-symbol" aria-roledescription="text mark" text-anchor="end" transform="translate(300.5,180.9312)" font-family="sans-serif" font-size="11px" fill="#e45756">3</text><text aria-label="Compression ratio: 1.34; Throughput (kb/ms): 22.336; new-type: ristretto19-madler; level: 4" role="graphics-symbol" aria-roledescription="text mark" text-anchor="end" transform="translate(399,178.7056)" font-family="sans-serif" font-size="11px" fill="#e45756">4</text><text aria-label="Compression ratio: 1.35; Throughput (kb/ms): 15.976; new-type: ristretto19-madler; level: 5" role="graphics-symbol" aria-roledescription="text mark" text-anchor="end" transform="translate(497.5,244.8496)" font-family="sans-serif" font-size="11px" fill="#e45756">5</text><text aria-label="Compression ratio: 1.36; Throughput (kb/ms): 11.942; new-type: ristretto19-madler; level: 6" role="graphics-symbol" aria-roledescription="text mark" text-anchor="end" transform="translate(596,286.8032)" font-family="sans-serif" font-size="11px" fill="#e45756">6</text><text aria-label="Compression ratio: 1.36; Throughput (kb/ms): 11.046; new-type: ristretto19-madler; level: 7" role="graphics-symbol" aria-roledescription="text mark" text-anchor="end" transform="translate(596,296.1216)" font-family="sans-serif" font-size="11px" fill="#e45756">7</text><text aria-label="Compression ratio: 1.36; Throughput (kb/ms): 9.816; new-type: ristretto19-madler; level: 8" role="graphics-symbol" aria-roledescription="text mark" text-anchor="end" transform="translate(596,308.91360000000003)" font-family="sans-serif" font-size="11px" fill="#e45756">8</text><text aria-label="Compression ratio: 1.36; Throughput (kb/ms): 9.816; new-type: ristretto19-madler; level: 9" role="graphics-symbol" aria-roledescription="text mark" text-anchor="end" transform="translate(596,308.9136)" font-family="sans-serif" font-size="11px" fill="#e45756">9</text><text aria-label="Compression ratio: 1.3; Throughput (kb/ms): 29.438; new-type: ristretto19-system; level: 1" role="graphics-symbol" aria-roledescription="text mark" text-anchor="end" transform="translate(5,104.8448)" font-family="sans-serif" font-size="11px" fill="#72b7b2">1</text><text aria-label="Compression ratio: 1.32; Throughput (kb/ms): 27.078; new-type: ristretto19-system; level: 2" role="graphics-symbol" aria-roledescription="text mark" text-anchor="end" transform="translate(202,129.38880000000003)" font-family="sans-serif" font-size="11px" fill="#72b7b2">2</text><text aria-label="Compression ratio: 1.33; Throughput (kb/ms): 22.2; new-type: ristretto19-system; level: 3" role="graphics-symbol" aria-roledescription="text mark" text-anchor="end" transform="translate(300.5,180.12000000000003)" font-family="sans-serif" font-size="11px" fill="#72b7b2">3</text><text aria-label="Compression ratio: 1.34; Throughput (kb/ms): 22.648; new-type: ristretto19-system; level: 4" role="graphics-symbol" aria-roledescription="text mark" text-anchor="end" transform="translate(399,175.46079999999998)" font-family="sans-serif" font-size="11px" fill="#72b7b2">4</text><text aria-label="Compression ratio: 1.35; Throughput (kb/ms): 16.102; new-type: ristretto19-system; level: 5" role="graphics-symbol" aria-roledescription="text mark" text-anchor="end" transform="translate(497.5,243.53920000000002)" font-family="sans-serif" font-size="11px" fill="#72b7b2">5</text><text aria-label="Compression ratio: 1.36; Throughput (kb/ms): 11.99; new-type: ristretto19-system; level: 6" role="graphics-symbol" aria-roledescription="text mark" text-anchor="end" transform="translate(596,286.30400000000003)" font-family="sans-serif" font-size="11px" fill="#72b7b2">6</text><text aria-label="Compression ratio: 1.36; Throughput (kb/ms): 11.084; new-type: ristretto19-system; level: 7" role="graphics-symbol" aria-roledescription="text mark" text-anchor="end" transform="translate(596,295.7264)" font-family="sans-serif" font-size="11px" fill="#72b7b2">7</text><text aria-label="Compression ratio: 1.36; Throughput (kb/ms): 9.82; new-type: ristretto19-system; level: 8" role="graphics-symbol" aria-roledescription="text mark" text-anchor="end" transform="translate(596,308.87199999999996)" font-family="sans-serif" font-size="11px" fill="#72b7b2">8</text><text aria-label="Compression ratio: 1.36; Throughput (kb/ms): 9.824; new-type: ristretto19-system; level: 9" role="graphics-symbol" aria-roledescription="text mark" text-anchor="end" transform="translate(596,308.8304)" font-family="sans-serif" font-size="11px" fill="#72b7b2">9</text></g><g class="mark-group role-title"><g transform="translate(295.5,-22)"><path class="background" aria-hidden="true" d="M0,0h0v0h0Z" pointer-events="none"/><g><g class="mark-text role-title-text" role="graphics-symbol" aria-roledescription="title" aria-label="Title text 'Deflater throughput/ratio per level for 'silesia/sao' on Xeon E5-2686 v4 / 1900MHz'" pointer-events="none"><text text-anchor="middle" transform="translate(0,10)" font-family="sans-serif" font-size="13px" font-weight="bold" fill="#000" opacity="1">Deflater throughput/ratio per level for 'silesia/sao' on Xeon E5-2686 v4 / 1900MHz</text></g></g><path class="foreground" aria-hidden="true" d="" pointer-events="none" display="none"/></g></g><g class="mark-group role-legend" role="graphics-symbol" aria-roledescription="legend" aria-label="Symbol legend for fill color and stroke color with 4 values: ristretto19-chromium, ristretto19-cloudflare, ristretto19-madler, ristretto19-system"><g transform="translate(457,0)"><path class="background" aria-hidden="true" d="M0.5,0.5h138v77h-138Z" pointer-events="none" fill="#ffffff" stroke="#000000"/><g><g class="mark-group role-legend-entry"><g transform="translate(8,8)"><path class="background" aria-hidden="true" d="M0,0h0v0h0Z" pointer-events="none"/><g><g class="mark-group role-scope" role="graphics-object" aria-roledescription="group mark container"><g transform="translate(0,0)"><path class="background" aria-hidden="true" d="M0,0h122v12.5h-122Z" pointer-events="none" opacity="1"/><g><g class="mark-symbol role-legend-symbol" pointer-events="none"><path transform="translate(6,6)" d="M5,0A5,5,0,1,1,-5,0A5,5,0,1,1,5,0" fill="#4c78a8" stroke="#4c78a8" stroke-width="1.5" opacity="1"/></g><g class="mark-text role-legend-label" pointer-events="none"><text text-anchor="start" transform="translate(16,9)" font-family="sans-serif" font-size="10px" fill="#000" opacity="1">ristretto19-chromium</text></g></g><path class="foreground" aria-hidden="true" d="" pointer-events="none" display="none"/></g><g transform="translate(0,16)"><path class="background" aria-hidden="true" d="M0,0h122v12.5h-122Z" pointer-events="none" opacity="1"/><g><g class="mark-symbol role-legend-symbol" pointer-events="none"><path transform="translate(6,6)" d="M5,0A5,5,0,1,1,-5,0A5,5,0,1,1,5,0" fill="#f58518" stroke="#f58518" stroke-width="1.5" opacity="1"/></g><g class="mark-text role-legend-label" pointer-events="none"><text text-anchor="start" transform="translate(16,9)" font-family="sans-serif" font-size="10px" fill="#000" opacity="1">ristretto19-cloudflare</text></g></g><path class="foreground" aria-hidden="true" d="" pointer-events="none" display="none"/></g><g transform="translate(0,32)"><path class="background" aria-hidden="true" d="M0,0h122v12.5h-122Z" pointer-events="none" opacity="1"/><g><g class="mark-symbol role-legend-symbol" pointer-events="none"><path transform="translate(6,6)" d="M5,0A5,5,0,1,1,-5,0A5,5,0,1,1,5,0" fill="#e45756" stroke="#e45756" stroke-width="1.5" opacity="1"/></g><g class="mark-text role-legend-label" pointer-events="none"><text text-anchor="start" transform="translate(16,9)" font-family="sans-serif" font-size="10px" fill="#000" opacity="1">ristretto19-madler</text></g></g><path class="foreground" aria-hidden="true" d="" pointer-events="none" display="none"/></g><g transform="translate(0,48)"><path class="background" aria-hidden="true" d="M0,0h122v12.5h-122Z" pointer-events="none" opacity="1"/><g><g class="mark-symbol role-legend-symbol" pointer-events="none"><path transform="translate(6,6)" d="M5,0A5,5,0,1,1,-5,0A5,5,0,1,1,5,0" fill="#72b7b2" stroke="#72b7b2" stroke-width="1.5" opacity="1"/></g><g class="mark-text role-legend-label" pointer-events="none"><text text-anchor="start" transform="translate(16,9)" font-family="sans-serif" font-size="10px" fill="#000" opacity="1">ristretto19-system</text></g></g><path class="foreground" aria-hidden="true" d="" pointer-events="none" display="none"/></g></g></g><path class="foreground" aria-hidden="true" d="" pointer-events="none" display="none"/></g></g></g><path class="foreground" aria-hidden="true" d="" pointer-events="none" display="none"/></g></g></g><path class="foreground" aria-hidden="true" d="" display="none"/></g></g></g></svg>