<svg xmlns="http://www.w3.org/2000/svg" xmlns:xlink="http://www.w3.org/1999/xlink" version="1.1" class="marks" width="1280" height="960" viewBox="0 0 640 480"><rect width="640" height="480" fill="white"/><g fill="none" stroke-miterlimit="10" transform="translate(45,36)"><g class="mark-group role-frame root" role="graphics-object" aria-roledescription="group mark container"><g transform="translate(0,0)"><path class="background" aria-hidden="true" d="M0.5,0.5h587v407h-587Z" stroke="#ddd"/><g><g class="mark-group role-axis" aria-hidden="true"><g transform="translate(0.5,407.5)"><path class="background" aria-hidden="true" d="M0,0h0v0h0Z" pointer-events="none"/><g><g class="mark-rule role-axis-grid" pointer-events="none"><line transform="translate(0,-407)" x2="0" y2="407" stroke="#ddd" stroke-width="1" opacity="1"/><line transform="translate(42,-407)" x2="0" y2="407" stroke="#ddd" stroke-width="1" opacity="1"/><line transform="translate(84,-407)" x2="0" y2="407" stroke="#ddd" stroke-width="1" opacity="1"/><line transform="translate(126,-407)" x2="0" y2="407" stroke="#ddd" stroke-width="1" opacity="1"/><line transform="translate(168,-407)" x2="0" y2="407" stroke="#ddd" stroke-width="1" opacity="1"/><line transform="translate(210,-407)" x2="0" y2="407" stroke="#ddd" stroke-width="1" opacity="1"/><line transform="translate(252,-407)" x2="0" y2="407" stroke="#ddd" stroke-width="1" opacity="1"/><line transform="translate(294,-407)" x2="0" y2="407" stroke="#ddd" stroke-width="1" opacity="1"/><line transform="translate(335,-407)" x2="0" y2="407" stroke="#ddd" stroke-width="1" opacity="1"/><line transform="translate(377,-407)" x2="0" y2="407" stroke="#ddd" stroke-width="1" opacity="1"/><line transform="translate(419,-407)" x2="0" y2="407" stroke="#ddd" stroke-width="1" opacity="1"/><line transform="translate(461,-407)" x2="0" y2="407" stroke="#ddd" stroke-width="1" opacity="1"/><line transform="translate(503,-407)" x2="0" y2="407" stroke="#ddd" stroke-width="1" opacity="1"/><line transform="translate(545,-407)" x2="0" y2="407" stroke="#ddd" stroke-width="1" opacity="1"/><line transform="translate(587,-407)" x2="0" y2="407" stroke="#ddd" stroke-width="1" opacity="1"/></g></g><path class="foreground" aria-hidden="true" d="" pointer-events="none" display="none"/></g></g><g class="mark-group role-axis" aria-hidden="true"><g transform="translate(0.5,0.5)"><path class="background" aria-hidden="true" d="M0,0h0v0h0Z" pointer-events="none"/><g><g class="mark-rule role-axis-grid" pointer-events="none"><line transform="translate(0,407)" x2="587" y2="0" stroke="#ddd" stroke-width="1" opacity="1"/><line transform="translate(0,356)" x2="587" y2="0" stroke="#ddd" stroke-width="1" opacity="1"/><line transform="translate(0,305)" x2="587" y2="0" stroke="#ddd" stroke-width="1" opacity="1"/><line transform="translate(0,254)" x2="587" y2="0" stroke="#ddd" stroke-width="1" opacity="1"/><line transform="translate(0,204)" x2="587" y2="0" stroke="#ddd" stroke-width="1" opacity="1"/><line transform="translate(0,153)" x2="587" y2="0" stroke="#ddd" stroke-width="1" opacity="1"/><line transform="translate(0,102)" x2="587" y2="0" stroke="#ddd" stroke-width="1" opacity="1"/><line transform="translate(0,51)" x2="587" y2="0" stroke="#ddd" stroke-width="1" opacity="1"/><line transform="translate(0,0)" x2="587" y2="0" stroke="#ddd" stroke-width="1" opacity="1"/></g></g><path class="foreground" aria-hidden="true" d="" pointer-events="none" display="none"/></g></g><g class="mark-group role-axis" role="graphics-symbol" aria-roledescription="axis" aria-label="X-axis titled 'Compression ratio' for a linear scale with values from 5.4 to 8.2"><g transform="translate(0.5,407.5)"><path class="background" aria-hidden="true" d="M0,0h0v0h0Z" pointer-events="none"/><g><g class="mark-rule role-axis-tick" pointer-events="none"><line transform="translate(0,0)" x2="0" y2="5" stroke="#888" stroke-width="1" opacity="1"/><line transform="translate(42,0)" x2="0" y2="5" stroke="#888" stroke-width="1" opacity="1"/><line transform="translate(84,0)" x2="0" y2="5" stroke="#888" stroke-width="1" opacity="1"/><line transform="translate(126,0)" x2="0" y2="5" stroke="#888" stroke-width="1" opacity="1"/><line transform="translate(168,0)" x2="0" y2="5" stroke="#888" stroke-width="1" opacity="1"/><line transform="translate(210,0)" x2="0" y2="5" stroke="#888" stroke-width="1" opacity="1"/><line transform="translate(252,0)" x2="0" y2="5" stroke="#888" stroke-width="1" opacity="1"/><line transform="translate(294,0)" x2="0" y2="5" stroke="#888" stroke-width="1" opacity="1"/><line transform="translate(335,0)" x2="0" y2="5" stroke="#888" stroke-width="1" opacity="1"/><line transform="translate(377,0)" x2="0" y2="5" stroke="#888" stroke-width="1" opacity="1"/><line transform="translate(419,0)" x2="0" y2="5" stroke="#888" stroke-width="1" opacity="1"/><line transform="translate(461,0)" x2="0" y2="5" stroke="#888" stroke-width="1" opacity="1"/><line transform="translate(503,0)" x2="0" y2="5" stroke="#888" stroke-width="1" opacity="1"/><line transform="translate(545,0)" x2="0" y2="5" stroke="#888" stroke-width="1" opacity="1"/><line transform="translate(587,0)" x2="0" y2="5" stroke="#888" stroke-width="1" opacity="1"/></g><g class="mark-text role-axis-label" pointer-events="none"><text text-anchor="start" transform="translate(0,15)" font-family="sans-serif" font-size="10px" fill="#000" opacity="1">5.4</text><text text-anchor="middle" transform="translate(41.928571428571296,15)" font-family="sans-serif" font-size="10px" fill="#000" opacity="1">5.6</text><text text-anchor="middle" transform="translate(83.85714285714278,15)" font-family="sans-serif" font-size="10px" fill="#000" opacity="1">5.8</text><text text-anchor="middle" transform="translate(125.78571428571426,15)" font-family="sans-serif" font-size="10px" fill="#000" opacity="1">6.0</text><text text-anchor="middle" transform="translate(167.71428571428575,15)" font-family="sans-serif" font-size="10px" fill="#000" opacity="1">6.2</text><text text-anchor="middle" transform="translate(209.64285714285722,15)" font-family="sans-serif" font-size="10px" fill="#000" opacity="1">6.4</text><text text-anchor="middle" transform="translate(251.57142857142853,15)" font-family="sans-serif" font-size="10px" fill="#000" opacity="1">6.6</text><text text-anchor="middle" transform="translate(293.5,15)" font-family="sans-serif" font-size="10px" fill="#000" opacity="1">6.8</text><text text-anchor="middle" transform="translate(335.4285714285715,15)" font-family="sans-serif" font-size="10px" fill="#000" opacity="1">7.0</text><text text-anchor="middle" transform="translate(377.35714285714295,15)" font-family="sans-serif" font-size="10px" fill="#000" opacity="1">7.2</text><text text-anchor="middle" transform="translate(419.28571428571445,15)" font-family="sans-serif" font-size="10px" fill="#000" opacity="1">7.4</text><text text-anchor="middle" transform="translate(461.2142857142858,15)" font-family="sans-serif" font-size="10px" fill="#000" opacity="1">7.6</text><text text-anchor="middle" transform="translate(503.1428571428572,15)" font-family="sans-serif" font-size="10px" fill="#000" opacity="1">7.8</text><text text-anchor="middle" transform="translate(545.0714285714287,15)" font-family="sans-serif" font-size="10px" fill="#000" opacity="1">8.0</text><text text-anchor="end" transform="translate(587,15)" font-family="sans-serif" font-size="10px" fill="#000" opacity="1">8.2</text></g><g class="mark-rule role-axis-domain" pointer-events="none"><line transform="translate(0,0)" x2="587" y2="0" stroke="#888" stroke-width="1" opacity="1"/></g><g class="mark-text role-axis-title" pointer-events="none"><text text-anchor="middle" transform="translate(293.5,30)" font-family="sans-serif" font-size="11px" font-weight="bold" fill="#000" opacity="1">Compression ratio</text></g></g><path class="foreground" aria-hidden="true" d="" pointer-events="none" display="none"/></g></g><g class="mark-group role-axis" role="graphics-symbol" aria-roledescription="axis" aria-label="Y-axis titled 'Throughput (kb/ms)' for a linear scale with values from 0 to 160"><g transform="translate(0.5,0.5)"><path class="background" aria-hidden="true" d="M0,0h0v0h0Z" pointer-events="none"/><g><g class="mark-rule role-axis-tick" pointer-events="none"><line transform="translate(0,407)" x2="-5" y2="0" stroke="#888" stroke-width="1" opacity="1"/><line transform="translate(0,356)" x2="-5" y2="0" stroke="#888" stroke-width="1" opacity="1"/><line transform="translate(0,305)" x2="-5" y2="0" stroke="#888" stroke-width="1" opacity="1"/><line transform="translate(0,254)" x2="-5" y2="0" stroke="#888" stroke-width="1" opacity="1"/><line transform="translate(0,204)" x2="-5" y2="0" stroke="#888" stroke-width="1" opacity="1"/><line transform="translate(0,153)" x2="-5" y2="0" stroke="#888" stroke-width="1" opacity="1"/><line transform="translate(0,102)" x2="-5" y2="0" stroke="#888" stroke-width="1" opacity="1"/><line transform="translate(0,51)" x2="-5" y2="0" stroke="#888" stroke-width="1" opacity="1"/><line transform="translate(0,0)" x2="-5" y2="0" stroke="#888" stroke-width="1" opacity="1"/></g><g class="mark-text role-axis-label" pointer-events="none"><text text-anchor="end" transform="translate(-7,410)" font-family="sans-serif" font-size="10px" fill="#000" opacity="1">0</text><text text-anchor="end" transform="translate(-7,359.125)" font-family="sans-serif" font-size="10px" fill="#000" opacity="1">20</text><text text-anchor="end" transform="translate(-7,308.25)" font-family="sans-serif" font-size="10px" fill="#000" opacity="1">40</text><text text-anchor="end" transform="translate(-7,257.375)" font-family="sans-serif" font-size="10px" fill="#000" opacity="1">60</text><text text-anchor="end" transform="translate(-7,206.5)" font-family="sans-serif" font-size="10px" fill="#000" opacity="1">80</text><text text-anchor="end" transform="translate(-7,155.625)" font-family="sans-serif" font-size="10px" fill="#000" opacity="1">100</text><text text-anchor="end" transform="translate(-7,104.75)" font-family="sans-serif" font-size="10px" fill="#000" opacity="1">120</text><text text-anchor="end" transform="translate(-7,53.875)" font-family="sans-serif" font-size="10px" fill="#000" opacity="1">140</text><text text-anchor="end" transform="translate(-7,3)" font-family="sans-serif" font-size="10px" fill="#000" opacity="1">160</text></g><g class="mark-rule role-axis-domain" pointer-events="none"><line transform="translate(0,407)" x2="0" y2="-407" stroke="#888" stroke-width="1" opacity="1"/></g><g class="mark-text role-axis-title" pointer-events="none"><text text-anchor="middle" transform="translate(-29,203.5) rotate(-90) translate(0,-2)" font-family="sans-serif" font-size="11px" font-weight="bold" fill="#000" opacity="1">Throughput (kb/ms)</text></g></g><path class="foreground" aria-hidden="true" d="" pointer-events="none" display="none"/></g></g><g class="mark-group role-scope layer_0_layer_0_layer_0_pathgroup" role="graphics-object" aria-roledescription="group mark container"><g transform="translate(0,0)"><path class="background" aria-hidden="true" d="M0,0h587v407h-587Z"/><g><g class="mark-line role-mark layer_0_layer_0_layer_0_marks" role="graphics-object" aria-roledescription="line mark container"><path aria-label="Compression ratio: 5.88; Throughput (kb/ms): 152.216; new-type: ristretto19-chromium" role="graphics-symbol" aria-roledescription="line mark" d="M100.62857142857136,19.800550000000033L194.96785714285716,32.91103749999998L262.05357142857156,75.99198749999998L299.78928571428577,170.421075L438.1535714285716,209.6864L496.8535714285714,289.3210375L530.3964285714286,308.59757499999995L566.0357142857143,342.8211875L568.1321428571429,348.6921625" stroke="#4c78a8" stroke-width="2"/></g></g><path class="foreground" aria-hidden="true" d="" display="none"/></g><g transform="translate(0,0)"><path class="background" aria-hidden="true" d="M0,0h587v407h-587Z"/><g><g class="mark-line role-mark layer_0_layer_0_layer_0_marks" role="graphics-object" aria-roledescription="line mark container"><path aria-label="Compression ratio: 5.88; Throughput (kb/ms): 159.924; new-type: ristretto19-cloudflare" role="graphics-symbol" aria-roledescription="line mark" d="M100.62857142857136,0.1933250000000465L194.96785714285716,8.821724999999955L262.05357142857156,53.85118749999998L299.78928571428577,140.59306249999997L438.1535714285716,187.5049L505.23928571428576,233.4145L538.782142857143,260.4850875L568.1321428571429,311.833225L570.2285714285714,318.8031" stroke="#f58518" stroke-width="2"/></g></g><path class="foreground" aria-hidden="true" d="" display="none"/></g><g transform="translate(0,0)"><path class="background" aria-hidden="true" d="M0,0h587v407h-587Z"/><g><g class="mark-line role-mark layer_0_layer_0_layer_0_marks" role="graphics-object" aria-roledescription="line mark container"><path aria-label="Compression ratio: 5.54; Throughput (kb/ms): 104.378; new-type: ristretto19-madler" role="graphics-symbol" aria-roledescription="line mark" d="M29.349999999999945,141.48846250000003L129.9785714285713,152.62500000000006L230.6071428571429,195.6703375L255.76428571428576,237.95255L402.51428571428585,273.28523750000005L496.8535714285714,310.6631L530.3964285714286,325.6661375L566.0357142857143,352.248325L568.1321428571429,356.8016375" stroke="#e45756" stroke-width="2"/></g></g><path class="foreground" aria-hidden="true" d="" display="none"/></g><g transform="translate(0,0)"><path class="background" aria-hidden="true" d="M0,0h587v407h-587Z"/><g><g class="mark-line role-mark layer_0_layer_0_layer_0_marks" role="graphics-object" aria-roledescription="line mark container"><path aria-label="Compression ratio: 5.54; Throughput (kb/ms): 104.444; new-type: ristretto19-system" role="graphics-symbol" aria-roledescription="line mark" d="M29.349999999999945,141.320575L129.9785714285713,151.38873750000005L230.6071428571429,194.06268750000004L255.76428571428576,231.511775L402.51428571428585,268.9201625L496.8535714285714,307.987075L530.3964285714286,323.9058625L566.0357142857143,351.373275L568.1321428571429,356.0588625" stroke="#72b7b2" stroke-width="2"/></g></g><path class="foreground" aria-hidden="true" d="" display="none"/></g></g><g class="mark-symbol role-mark layer_0_layer_0_layer_1_marks" role="graphics-object" aria-roledescription="symbol mark container"><path aria-label="Compression ratio: 5.88; Throughput (kb/ms): 152.216; new-type: ristretto19-chromium" role="graphics-symbol" aria-roledescription="point" transform="translate(100.62857142857136,19.800550000000033)" d="M2.7386127875258306,0A2.7386127875258306,2.7386127875258306,0,1,1,-2.7386127875258306,0A2.7386127875258306,2.7386127875258306,0,1,1,2.7386127875258306,0" fill="#4c78a8" stroke-width="2" opacity="1"/><path aria-label="Compression ratio: 6.33; Throughput (kb/ms): 147.062; new-type: ristretto19-chromium" role="graphics-symbol" aria-roledescription="point" transform="translate(194.96785714285716,32.91103749999998)" d="M2.7386127875258306,0A2.7386127875258306,2.7386127875258306,0,1,1,-2.7386127875258306,0A2.7386127875258306,2.7386127875258306,0,1,1,2.7386127875258306,0" fill="#4c78a8" stroke-width="2" opacity="1"/><path aria-label="Compression ratio: 6.65; Throughput (kb/ms): 130.126; new-type: ristretto19-chromium" role="graphics-symbol" aria-roledescription="point" transform="translate(262.05357142857156,75.99198749999998)" d="M2.7386127875258306,0A2.7386127875258306,2.7386127875258306,0,1,1,-2.7386127875258306,0A2.7386127875258306,2.7386127875258306,0,1,1,2.7386127875258306,0" fill="#4c78a8" stroke-width="2" opacity="1"/><path aria-label="Compression ratio: 6.83; Throughput (kb/ms): 93.004; new-type: ristretto19-chromium" role="graphics-symbol" aria-roledescription="point" transform="translate(299.78928571428577,170.421075)" d="M2.7386127875258306,0A2.7386127875258306,2.7386127875258306,0,1,1,-2.7386127875258306,0A2.7386127875258306,2.7386127875258306,0,1,1,2.7386127875258306,0" fill="#4c78a8" stroke-width="2" opacity="1"/><path aria-label="Compression ratio: 7.49; Throughput (kb/ms): 77.568; new-type: ristretto19-chromium" role="graphics-symbol" aria-roledescription="point" transform="translate(438.1535714285716,209.6864)" d="M2.7386127875258306,0A2.7386127875258306,2.7386127875258306,0,1,1,-2.7386127875258306,0A2.7386127875258306,2.7386127875258306,0,1,1,2.7386127875258306,0" fill="#4c78a8" stroke-width="2" opacity="1"/><path aria-label="Compression ratio: 7.77; Throughput (kb/ms): 46.262; new-type: ristretto19-chromium" role="graphics-symbol" aria-roledescription="point" transform="translate(496.8535714285714,289.3210375)" d="M2.7386127875258306,0A2.7386127875258306,2.7386127875258306,0,1,1,-2.7386127875258306,0A2.7386127875258306,2.7386127875258306,0,1,1,2.7386127875258306,0" fill="#4c78a8" stroke-width="2" opacity="1"/><path aria-label="Compression ratio: 7.93; Throughput (kb/ms): 38.684; new-type: ristretto19-chromium" role="graphics-symbol" aria-roledescription="point" transform="translate(530.3964285714286,308.59757499999995)" d="M2.7386127875258306,0A2.7386127875258306,2.7386127875258306,0,1,1,-2.7386127875258306,0A2.7386127875258306,2.7386127875258306,0,1,1,2.7386127875258306,0" fill="#4c78a8" stroke-width="2" opacity="1"/><path aria-label="Compression ratio: 8.1; Throughput (kb/ms): 25.23; new-type: ristretto19-chromium" role="graphics-symbol" aria-roledescription="point" transform="translate(566.0357142857143,342.8211875)" d="M2.7386127875258306,0A2.7386127875258306,2.7386127875258306,0,1,1,-2.7386127875258306,0A2.7386127875258306,2.7386127875258306,0,1,1,2.7386127875258306,0" fill="#4c78a8" stroke-width="2" opacity="1"/><path aria-label="Compression ratio: 8.11; Throughput (kb/ms): 22.922; new-type: ristretto19-chromium" role="graphics-symbol" aria-roledescription="point" transform="translate(568.1321428571429,348.6921625)" d="M2.7386127875258306,0A2.7386127875258306,2.7386127875258306,0,1,1,-2.7386127875258306,0A2.7386127875258306,2.7386127875258306,0,1,1,2.7386127875258306,0" fill="#4c78a8" stroke-width="2" opacity="1"/><path aria-label="Compression ratio: 5.88; Throughput (kb/ms): 159.924; new-type: ristretto19-cloudflare" role="graphics-symbol" aria-roledescription="point" transform="translate(100.62857142857136,0.1933250000000465)" d="M2.7386127875258306,0A2.7386127875258306,2.7386127875258306,0,1,1,-2.7386127875258306,0A2.7386127875258306,2.7386127875258306,0,1,1,2.7386127875258306,0" fill="#f58518" stroke-width="2" opacity="1"/><path aria-label="Compression ratio: 6.33; Throughput (kb/ms): 156.532; new-type: ristretto19-cloudflare" role="graphics-symbol" aria-roledescription="point" transform="translate(194.96785714285716,8.821724999999955)" d="M2.7386127875258306,0A2.7386127875258306,2.7386127875258306,0,1,1,-2.7386127875258306,0A2.7386127875258306,2.7386127875258306,0,1,1,2.7386127875258306,0" fill="#f58518" stroke-width="2" opacity="1"/><path aria-label="Compression ratio: 6.65; Throughput (kb/ms): 138.83; new-type: ristretto19-cloudflare" role="graphics-symbol" aria-roledescription="point" transform="translate(262.05357142857156,53.85118749999998)" d="M2.7386127875258306,0A2.7386127875258306,2.7386127875258306,0,1,1,-2.7386127875258306,0A2.7386127875258306,2.7386127875258306,0,1,1,2.7386127875258306,0" fill="#f58518" stroke-width="2" opacity="1"/><path aria-label="Compression ratio: 6.83; Throughput (kb/ms): 104.73; new-type: ristretto19-cloudflare" role="graphics-symbol" aria-roledescription="point" transform="translate(299.78928571428577,140.59306249999997)" d="M2.7386127875258306,0A2.7386127875258306,2.7386127875258306,0,1,1,-2.7386127875258306,0A2.7386127875258306,2.7386127875258306,0,1,1,2.7386127875258306,0" fill="#f58518" stroke-width="2" opacity="1"/><path aria-label="Compression ratio: 7.49; Throughput (kb/ms): 86.288; new-type: ristretto19-cloudflare" role="graphics-symbol" aria-roledescription="point" transform="translate(438.1535714285716,187.5049)" d="M2.7386127875258306,0A2.7386127875258306,2.7386127875258306,0,1,1,-2.7386127875258306,0A2.7386127875258306,2.7386127875258306,0,1,1,2.7386127875258306,0" fill="#f58518" stroke-width="2" opacity="1"/><path aria-label="Compression ratio: 7.81; Throughput (kb/ms): 68.24; new-type: ristretto19-cloudflare" role="graphics-symbol" aria-roledescription="point" transform="translate(505.23928571428576,233.4145)" d="M2.7386127875258306,0A2.7386127875258306,2.7386127875258306,0,1,1,-2.7386127875258306,0A2.7386127875258306,2.7386127875258306,0,1,1,2.7386127875258306,0" fill="#f58518" stroke-width="2" opacity="1"/><path aria-label="Compression ratio: 7.97; Throughput (kb/ms): 57.598; new-type: ristretto19-cloudflare" role="graphics-symbol" aria-roledescription="point" transform="translate(538.782142857143,260.4850875)" d="M2.7386127875258306,0A2.7386127875258306,2.7386127875258306,0,1,1,-2.7386127875258306,0A2.7386127875258306,2.7386127875258306,0,1,1,2.7386127875258306,0" fill="#f58518" stroke-width="2" opacity="1"/><path aria-label="Compression ratio: 8.11; Throughput (kb/ms): 37.412; new-type: ristretto19-cloudflare" role="graphics-symbol" aria-roledescription="point" transform="translate(568.1321428571429,311.833225)" d="M2.7386127875258306,0A2.7386127875258306,2.7386127875258306,0,1,1,-2.7386127875258306,0A2.7386127875258306,2.7386127875258306,0,1,1,2.7386127875258306,0" fill="#f58518" stroke-width="2" opacity="1"/><path aria-label="Compression ratio: 8.12; Throughput (kb/ms): 34.672; new-type: ristretto19-cloudflare" role="graphics-symbol" aria-roledescription="point" transform="translate(570.2285714285714,318.8031)" d="M2.7386127875258306,0A2.7386127875258306,2.7386127875258306,0,1,1,-2.7386127875258306,0A2.7386127875258306,2.7386127875258306,0,1,1,2.7386127875258306,0" fill="#f58518" stroke-width="2" opacity="1"/><path aria-label="Compression ratio: 5.54; Throughput (kb/ms): 104.378; new-type: ristretto19-madler" role="graphics-symbol" aria-roledescription="point" transform="translate(29.349999999999945,141.48846250000003)" d="M2.7386127875258306,0A2.7386127875258306,2.7386127875258306,0,1,1,-2.7386127875258306,0A2.7386127875258306,2.7386127875258306,0,1,1,2.7386127875258306,0" fill="#e45756" stroke-width="2" opacity="1"/><path aria-label="Compression ratio: 6.02; Throughput (kb/ms): 100; new-type: ristretto19-madler" role="graphics-symbol" aria-roledescription="point" transform="translate(129.9785714285713,152.62500000000006)" d="M2.7386127875258306,0A2.7386127875258306,2.7386127875258306,0,1,1,-2.7386127875258306,0A2.7386127875258306,2.7386127875258306,0,1,1,2.7386127875258306,0" fill="#e45756" stroke-width="2" opacity="1"/><path aria-label="Compression ratio: 6.5; Throughput (kb/ms): 83.078; new-type: ristretto19-madler" role="graphics-symbol" aria-roledescription="point" transform="translate(230.6071428571429,195.6703375)" d="M2.7386127875258306,0A2.7386127875258306,2.7386127875258306,0,1,1,-2.7386127875258306,0A2.7386127875258306,2.7386127875258306,0,1,1,2.7386127875258306,0" fill="#e45756" stroke-width="2" opacity="1"/><path aria-label="Compression ratio: 6.62; Throughput (kb/ms): 66.456; new-type: ristretto19-madler" role="graphics-symbol" aria-roledescription="point" transform="translate(255.76428571428576,237.95255)" d="M2.7386127875258306,0A2.7386127875258306,2.7386127875258306,0,1,1,-2.7386127875258306,0A2.7386127875258306,2.7386127875258306,0,1,1,2.7386127875258306,0" fill="#e45756" stroke-width="2" opacity="1"/><path aria-label="Compression ratio: 7.32; Throughput (kb/ms): 52.566; new-type: ristretto19-madler" role="graphics-symbol" aria-roledescription="point" transform="translate(402.51428571428585,273.28523750000005)" d="M2.7386127875258306,0A2.7386127875258306,2.7386127875258306,0,1,1,-2.7386127875258306,0A2.7386127875258306,2.7386127875258306,0,1,1,2.7386127875258306,0" fill="#e45756" stroke-width="2" opacity="1"/><path aria-label="Compression ratio: 7.77; Throughput (kb/ms): 37.872; new-type: ristretto19-madler" role="graphics-symbol" aria-roledescription="point" transform="translate(496.8535714285714,310.6631)" d="M2.7386127875258306,0A2.7386127875258306,2.7386127875258306,0,1,1,-2.7386127875258306,0A2.7386127875258306,2.7386127875258306,0,1,1,2.7386127875258306,0" fill="#e45756" stroke-width="2" opacity="1"/><path aria-label="Compression ratio: 7.93; Throughput (kb/ms): 31.974; new-type: ristretto19-madler" role="graphics-symbol" aria-roledescription="point" transform="translate(530.3964285714286,325.6661375)" d="M2.7386127875258306,0A2.7386127875258306,2.7386127875258306,0,1,1,-2.7386127875258306,0A2.7386127875258306,2.7386127875258306,0,1,1,2.7386127875258306,0" fill="#e45756" stroke-width="2" opacity="1"/><path aria-label="Compression ratio: 8.1; Throughput (kb/ms): 21.524; new-type: ristretto19-madler" role="graphics-symbol" aria-roledescription="point" transform="translate(566.0357142857143,352.248325)" d="M2.7386127875258306,0A2.7386127875258306,2.7386127875258306,0,1,1,-2.7386127875258306,0A2.7386127875258306,2.7386127875258306,0,1,1,2.7386127875258306,0" fill="#e45756" stroke-width="2" opacity="1"/><path aria-label="Compression ratio: 8.11; Throughput (kb/ms): 19.734; new-type: ristretto19-madler" role="graphics-symbol" aria-roledescription="point" transform="translate(568.1321428571429,356.8016375)" d="M2.7386127875258306,0A2.7386127875258306,2.7386127875258306,0,1,1,-2.7386127875258306,0A2.7386127875258306,2.7386127875258306,0,1,1,2.7386127875258306,0" fill="#e45756" stroke-width="2" opacity="1"/><path aria-label="Compression ratio: 5.54; Throughput (kb/ms): 104.444; new-type: ristretto19-system" role="graphics-symbol" aria-roledescription="point" transform="translate(29.349999999999945,141.320575)" d="M2.7386127875258306,0A2.7386127875258306,2.7386127875258306,0,1,1,-2.7386127875258306,0A2.7386127875258306,2.7386127875258306,0,1,1,2.7386127875258306,0" fill="#72b7b2" stroke-width="2" opacity="1"/><path aria-label="Compression ratio: 6.02; Throughput (kb/ms): 100.486; new-type: ristretto19-system" role="graphics-symbol" aria-roledescription="point" transform="translate(129.9785714285713,151.38873750000005)" d="M2.7386127875258306,0A2.7386127875258306,2.7386127875258306,0,1,1,-2.7386127875258306,0A2.7386127875258306,2.7386127875258306,0,1,1,2.7386127875258306,0" fill="#72b7b2" stroke-width="2" opacity="1"/><path aria-label="Compression ratio: 6.5; Throughput (kb/ms): 83.71; new-type: ristretto19-system" role="graphics-symbol" aria-roledescription="point" transform="translate(230.6071428571429,194.06268750000004)" d="M2.7386127875258306,0A2.7386127875258306,2.7386127875258306,0,1,1,-2.7386127875258306,0A2.7386127875258306,2.7386127875258306,0,1,1,2.7386127875258306,0" fill="#72b7b2" stroke-width="2" opacity="1"/><path aria-label="Compression ratio: 6.62; Throughput (kb/ms): 68.988; new-type: ristretto19-system" role="graphics-symbol" aria-roledescription="point" transform="translate(255.76428571428576,231.511775)" d="M2.7386127875258306,0A2.7386127875258306,2.7386127875258306,0,1,1,-2.7386127875258306,0A2.7386127875258306,2.7386127875258306,0,1,1,2.7386127875258306,0" fill="#72b7b2" stroke-width="2" opacity="1"/><path aria-label="Compression ratio: 7.32; Throughput (kb/ms): 54.282; new-type: ristretto19-system" role="graphics-symbol" aria-roledescription="point" transform="translate(402.51428571428585,268.9201625)" d="M2.7386127875258306,0A2.7386127875258306,2.7386127875258306,0,1,1,-2.7386127875258306,0A2.7386127875258306,2.7386127875258306,0,1,1,2.7386127875258306,0" fill="#72b7b2" stroke-width="2" opacity="1"/><path aria-label="Compression ratio: 7.77; Throughput (kb/ms): 38.924; new-type: ristretto19-system" role="graphics-symbol" aria-roledescription="point" transform="translate(496.8535714285714,307.987075)" d="M2.7386127875258306,0A2.7386127875258306,2.7386127875258306,0,1,1,-2.7386127875258306,0A2.7386127875258306,2.7386127875258306,0,1,1,2.7386127875258306,0" fill="#72b7b2" stroke-width="2" opacity="1"/><path aria-label="Compression ratio: 7.93; Throughput (kb/ms): 32.666; new-type: ristretto19-system" role="graphics-symbol" aria-roledescription="point" transform="translate(530.3964285714286,323.9058625)" d="M2.7386127875258306,0A2.7386127875258306,2.7386127875258306,0,1,1,-2.7386127875258306,0A2.7386127875258306,2.7386127875258306,0,1,1,2.7386127875258306,0" fill="#72b7b2" stroke-width="2" opacity="1"/><path aria-label="Compression ratio: 8.1; Throughput (kb/ms): 21.868; new-type: ristretto19-system" role="graphics-symbol" aria-roledescription="point" transform="translate(566.0357142857143,351.373275)" d="M2.7386127875258306,0A2.7386127875258306,2.7386127875258306,0,1,1,-2.7386127875258306,0A2.7386127875258306,2.7386127875258306,0,1,1,2.7386127875258306,0" fill="#72b7b2" stroke-width="2" opacity="1"/><path aria-label="Compression ratio: 8.11; Throughput (kb/ms): 20.026; new-type: ristretto19-system" role="graphics-symbol" aria-roledescription="point" transform="translate(568.1321428571429,356.0588625)" d="M2.7386127875258306,0A2.7386127875258306,2.7386127875258306,0,1,1,-2.7386127875258306,0A2.7386127875258306,2.7386127875258306,0,1,1,2.7386127875258306,0" fill="#72b7b2" stroke-width="2" opacity="1"/></g><g class="mark-text role-mark layer_0_layer_1_marks" role="graphics-object" aria-roledescription="text mark container"><text aria-label="Compression ratio: 5.88; Throughput (kb/ms): 152.216; new-type: ristretto19-chromium; level: 1" role="graphics-symbol" aria-roledescription="text mark" text-anchor="end" transform="translate(105.62857142857136,14.800550000000033)" font-family="sans-serif" font-size="11px" fill="#4c78a8">1</text><text aria-label="Compression ratio: 6.33; Throughput (kb/ms): 147.062; new-type: ristretto19-chromium; level: 2" role="graphics-symbol" aria-roledescription="text mark" text-anchor="end" transform="translate(199.96785714285716,27.911037499999978)" font-family="sans-serif" font-size="11px" fill="#4c78a8">2</text><text aria-label="Compression ratio: 6.65; Throughput (kb/ms): 130.126; new-type: ristretto19-chromium; level: 3" role="graphics-symbol" aria-roledescription="text mark" text-anchor="end" transform="translate(267.05357142857156,70.99198749999998)" font-family="sans-serif" font-size="11px" fill="#4c78a8">3</text><text aria-label="Compression ratio: 6.83; Throughput (kb/ms): 93.004; new-type: ristretto19-chromium; level: 4" role="graphics-symbol" aria-roledescription="text mark" text-anchor="end" transform="translate(304.78928571428577,165.421075)" font-family="sans-serif" font-size="11px" fill="#4c78a8">4</text><text aria-label="Compression ratio: 7.49; Throughput (kb/ms): 77.568; new-type: ristretto19-chromium; level: 5" role="graphics-symbol" aria-roledescription="text mark" text-anchor="end" transform="translate(443.1535714285716,204.6864)" font-family="sans-serif" font-size="11px" fill="#4c78a8">5</text><text aria-label="Compression ratio: 7.77; Throughput (kb/ms): 46.262; new-type: ristretto19-chromium; level: 6" role="graphics-symbol" aria-roledescription="text mark" text-anchor="end" transform="translate(501.8535714285714,284.3210375)" font-family="sans-serif" font-size="11px" fill="#4c78a8">6</text><text aria-label="Compression ratio: 7.93; Throughput (kb/ms): 38.684; new-type: ristretto19-chromium; level: 7" role="graphics-symbol" aria-roledescription="text mark" text-anchor="end" transform="translate(535.3964285714286,303.59757499999995)" font-family="sans-serif" font-size="11px" fill="#4c78a8">7</text><text aria-label="Compression ratio: 8.1; Throughput (kb/ms): 25.23; new-type: ristretto19-chromium; level: 8" role="graphics-symbol" aria-roledescription="text mark" text-anchor="end" transform="translate(571.0357142857143,337.8211875)" font-family="sans-serif" font-size="11px" fill="#4c78a8">8</text><text aria-label="Compression ratio: 8.11; Throughput (kb/ms): 22.922; new-type: ristretto19-chromium; level: 9" role="graphics-symbol" aria-roledescription="text mark" text-anchor="end" transform="translate(573.1321428571429,343.6921625)" font-family="sans-serif" font-size="11px" fill="#4c78a8">9</text><text aria-label="Compression ratio: 5.88; Throughput (kb/ms): 159.924; new-type: ristretto19-cloudflare; level: 1" role="graphics-symbol" aria-roledescription="text mark" text-anchor="end" transform="translate(105.62857142857136,-4.806674999999953)" font-family="sans-serif" font-size="11px" fill="#f58518">1</text><text aria-label="Compression ratio: 6.33; Throughput (kb/ms): 156.532; new-type: ristretto19-cloudflare; level: 2" role="graphics-symbol" aria-roledescription="text mark" text-anchor="end" transform="translate(199.96785714285716,3.8217249999999545)" font-family="sans-serif" font-size="11px" fill="#f58518">2</text><text aria-label="Compression ratio: 6.65; Throughput (kb/ms): 138.83; new-type: ristretto19-cloudflare; level: 3" role="graphics-symbol" aria-roledescription="text mark" text-anchor="end" transform="translate(267.05357142857156,48.85118749999998)" font-family="sans-serif" font-size="11px" fill="#f58518">3</text><text aria-label="Compression ratio: 6.83; Throughput (kb/ms): 104.73; new-type: ristretto19-cloudflare; level: 4" role="graphics-symbol" aria-roledescription="text mark" text-anchor="end" transform="translate(304.78928571428577,135.59306249999997)" font-family="sans-serif" font-size="11px" fill="#f58518">4</text><text aria-label="Compression ratio: 7.49; Throughput (kb/ms): 86.288; new-type: ristretto19-cloudflare; level: 5" role="graphics-symbol" aria-roledescription="text mark" text-anchor="end" transform="translate(443.1535714285716,182.5049)" font-family="sans-serif" font-size="11px" fill="#f58518">5</text><text aria-label="Compression ratio: 7.81; Throughput (kb/ms): 68.24; new-type: ristretto19-cloudflare; level: 6" role="graphics-symbol" aria-roledescription="text mark" text-anchor="end" transform="translate(510.23928571428576,228.4145)" font-family="sans-serif" font-size="11px" fill="#f58518">6</text><text aria-label="Compression ratio: 7.97; Throughput (kb/ms): 57.598; new-type: ristretto19-cloudflare; level: 7" role="graphics-symbol" aria-roledescription="text mark" text-anchor="end" transform="translate(543.782142857143,255.48508750000002)" font-family="sans-serif" font-size="11px" fill="#f58518">7</text><text aria-label="Compression ratio: 8.11; Throughput (kb/ms): 37.412; new-type: ristretto19-cloudflare; level: 8" role="graphics-symbol" aria-roledescription="text mark" text-anchor="end" transform="translate(573.1321428571429,306.833225)" font-family="sans-serif" font-size="11px" fill="#f58518">8</text><text aria-label="Compression ratio: 8.12; Throughput (kb/ms): 34.672; new-type: ristretto19-cloudflare; level: 9" role="graphics-symbol" aria-roledescription="text mark" text-anchor="end" transform="translate(575.2285714285714,313.8031)" font-family="sans-serif" font-size="11px" fill="#f58518">9</text><text aria-label="Compression ratio: 5.54; Throughput (kb/ms): 104.378; new-type: ristretto19-madler; level: 1" role="graphics-symbol" aria-roledescription="text mark" text-anchor="end" transform="translate(34.349999999999945,136.48846250000003)" font-family="sans-serif" font-size="11px" fill="#e45756">1</text><text aria-label="Compression ratio: 6.02; Throughput (kb/ms): 100; new-type: ristretto19-madler; level: 2" role="graphics-symbol" aria-roledescription="text mark" text-anchor="end" transform="translate(134.9785714285713,147.62500000000006)" font-family="sans-serif" font-size="11px" fill="#e45756">2</text><text aria-label="Compression ratio: 6.5; Throughput (kb/ms): 83.078; new-type: ristretto19-madler; level: 3" role="graphics-symbol" aria-roledescription="text mark" text-anchor="end" transform="translate(235.6071428571429,190.6703375)" font-family="sans-serif" font-size="11px" fill="#e45756">3</text><text aria-label="Compression ratio: 6.62; Throughput (kb/ms): 66.456; new-type: ristretto19-madler; level: 4" role="graphics-symbol" aria-roledescription="text mark" text-anchor="end" transform="translate(260.76428571428573,232.95255)" font-family="sans-serif" font-size="11px" fill="#e45756">4</text><text aria-label="Compression ratio: 7.32; Throughput (kb/ms): 52.566; new-type: ristretto19-madler; level: 5" role="graphics-symbol" aria-roledescription="text mark" text-anchor="end" transform="translate(407.51428571428585,268.28523750000005)" font-family="sans-serif" font-size="11px" fill="#e45756">5</text><text aria-label="Compression ratio: 7.77; Throughput (kb/ms): 37.872; new-type: ristretto19-madler; level: 6" role="graphics-symbol" aria-roledescription="text mark" text-anchor="end" transform="translate(501.8535714285714,305.6631)" font-family="sans-serif" font-size="11px" fill="#e45756">6</text><text aria-label="Compression ratio: 7.93; Throughput (kb/ms): 31.974; new-type: ristretto19-madler; level: 7" role="graphics-symbol" aria-roledescription="text mark" text-anchor="end" transform="translate(535.3964285714286,320.6661375)" font-family="sans-serif" font-size="11px" fill="#e45756">7</text><text aria-label="Compression ratio: 8.1; Throughput (kb/ms): 21.524; new-type: ristretto19-madler; level: 8" role="graphics-symbol" aria-roledescription="text mark" text-anchor="end" transform="translate(571.0357142857143,347.248325)" font-family="sans-serif" font-size="11px" fill="#e45756">8</text><text aria-label="Compression ratio: 8.11; Throughput (kb/ms): 19.734; new-type: ristretto19-madler; level: 9" role="graphics-symbol" aria-roledescription="text mark" text-anchor="end" transform="translate(573.1321428571429,351.8016375)" font-family="sans-serif" font-size="11px" fill="#e45756">9</text><text aria-label="Compression ratio: 5.54; Throughput (kb/ms): 104.444; new-type: ristretto19-system; level: 1" role="graphics-symbol" aria-roledescription="text mark" text-anchor="end" transform="translate(34.349999999999945,136.320575)" font-family="sans-serif" font-size="11px" fill="#72b7b2">1</text><text aria-label="Compression ratio: 6.02; Throughput (kb/ms): 100.486; new-type: ristretto19-system; level: 2" role="graphics-symbol" aria-roledescription="text mark" text-anchor="end" transform="translate(134.9785714285713,146.38873750000005)" font-family="sans-serif" font-size="11px" fill="#72b7b2">2</text><text aria-label="Compression ratio: 6.5; Throughput (kb/ms): 83.71; new-type: ristretto19-system; level: 3" role="graphics-symbol" aria-roledescription="text mark" text-anchor="end" transform="translate(235.6071428571429,189.06268750000004)" font-family="sans-serif" font-size="11px" fill="#72b7b2">3</text><text aria-label="Compression ratio: 6.62; Throughput (kb/ms): 68.988; new-type: ristretto19-system; level: 4" role="graphics-symbol" aria-roledescription="text mark" text-anchor="end" transform="translate(260.76428571428573,226.511775)" font-family="sans-serif" font-size="11px" fill="#72b7b2">4</text><text aria-label="Compression ratio: 7.32; Throughput (kb/ms): 54.282; new-type: ristretto19-system; level: 5" role="graphics-symbol" aria-roledescription="text mark" text-anchor="end" transform="translate(407.51428571428585,263.9201625)" font-family="sans-serif" font-size="11px" fill="#72b7b2">5</text><text aria-label="Compression ratio: 7.77; Throughput (kb/ms): 38.924; new-type: ristretto19-system; level: 6" role="graphics-symbol" aria-roledescription="text mark" text-anchor="end" transform="translate(501.8535714285714,302.987075)" font-family="sans-serif" font-size="11px" fill="#72b7b2">6</text><text aria-label="Compression ratio: 7.93; Throughput (kb/ms): 32.666; new-type: ristretto19-system; level: 7" role="graphics-symbol" aria-roledescription="text mark" text-anchor="end" transform="translate(535.3964285714286,318.9058625)" font-family="sans-serif" font-size="11px" fill="#72b7b2">7</text><text aria-label="Compression ratio: 8.1; Throughput (kb/ms): 21.868; new-type: ristretto19-system; level: 8" role="graphics-symbol" aria-roledescription="text mark" text-anchor="end" transform="translate(571.0357142857143,346.373275)" font-family="sans-serif" font-size="11px" fill="#72b7b2">8</text><text aria-label="Compression ratio: 8.11; Throughput (kb/ms): 20.026; new-type: ristretto19-system; level: 9" role="graphics-symbol" aria-roledescription="text mark" text-anchor="end" transform="translate(573.1321428571429,351.0588625)" font-family="sans-serif" font-size="11px" fill="#72b7b2">9</text></g><g class="mark-group role-title"><g transform="translate(293.5,-30.806674999999956)"><path class="background" aria-hidden="true" d="M0,0h0v0h0Z" pointer-events="none"/><g><g class="mark-text role-title-text" role="graphics-symbol" aria-roledescription="title" aria-label="Title text 'Deflater throughput/ratio per level for 'silesia/xml' on Xeon E5-2686 v4 / 1900MHz'" pointer-events="none"><text text-anchor="middle" transform="translate(0,10)" font-family="sans-serif" font-size="13px" font-weight="bold" fill="#000" opacity="1">Deflater throughput/ratio per level for 'silesia/xml' on Xeon E5-2686 v4 / 1900MHz</text></g></g><path class="foreground" aria-hidden="true" d="" pointer-events="none" display="none"/></g></g><g class="mark-group role-legend" role="graphics-symbol" aria-roledescription="legend" aria-label="Symbol legend for fill color and stroke color with 4 values: ristretto19-chromium, ristretto19-cloudflare, ristretto19-madler, ristretto19-system"><g transform="translate(451,0)"><path class="background" aria-hidden="true" d="M0.5,0.5h138v77h-138Z" pointer-events="none" fill="#ffffff" stroke="#000000"/><g><g class="mark-group role-legend-entry"><g transform="translate(8,8)"><path class="background" aria-hidden="true" d="M0,0h0v0h0Z" pointer-events="none"/><g><g class="mark-group role-scope" role="graphics-object" aria-roledescription="group mark container"><g transform="translate(0,0)"><path class="background" aria-hidden="true" d="M0,0h122v12.5h-122Z" pointer-events="none" opacity="1"/><g><g class="mark-symbol role-legend-symbol" pointer-events="none"><path transform="translate(6,6)" d="M5,0A5,5,0,1,1,-5,0A5,5,0,1,1,5,0" fill="#4c78a8" stroke="#4c78a8" stroke-width="1.5" opacity="1"/></g><g class="mark-text role-legend-label" pointer-events="none"><text text-anchor="start" transform="translate(16,9)" font-family="sans-serif" font-size="10px" fill="#000" opacity="1">ristretto19-chromium</text></g></g><path class="foreground" aria-hidden="true" d="" pointer-events="none" display="none"/></g><g transform="translate(0,16)"><path class="background" aria-hidden="true" d="M0,0h122v12.5h-122Z" pointer-events="none" opacity="1"/><g><g class="mark-symbol role-legend-symbol" pointer-events="none"><path transform="translate(6,6)" d="M5,0A5,5,0,1,1,-5,0A5,5,0,1,1,5,0" fill="#f58518" stroke="#f58518" stroke-width="1.5" opacity="1"/></g><g class="mark-text role-legend-label" pointer-events="none"><text text-anchor="start" transform="translate(16,9)" font-family="sans-serif" font-size="10px" fill="#000" opacity="1">ristretto19-cloudflare</text></g></g><path class="foreground" aria-hidden="true" d="" pointer-events="none" display="none"/></g><g transform="translate(0,32)"><path class="background" aria-hidden="true" d="M0,0h122v12.5h-122Z" pointer-events="none" opacity="1"/><g><g class="mark-symbol role-legend-symbol" pointer-events="none"><path transform="translate(6,6)" d="M5,0A5,5,0,1,1,-5,0A5,5,0,1,1,5,0" fill="#e45756" stroke="#e45756" stroke-width="1.5" opacity="1"/></g><g class="mark-text role-legend-label" pointer-events="none"><text text-anchor="start" transform="translate(16,9)" font-family="sans-serif" font-size="10px" fill="#000" opacity="1">ristretto19-madler</text></g></g><path class="foreground" aria-hidden="true" d="" pointer-events="none" display="none"/></g><g transform="translate(0,48)"><path class="background" aria-hidden="true" d="M0,0h122v12.5h-122Z" pointer-events="none" opacity="1"/><g><g class="mark-symbol role-legend-symbol" pointer-events="none"><path transform="translate(6,6)" d="M5,0A5,5,0,1,1,-5,0A5,5,0,1,1,5,0" fill="#72b7b2" stroke="#72b7b2" stroke-width="1.5" opacity="1"/></g><g class="mark-text role-legend-label" pointer-events="none"><text text-anchor="start" transform="translate(16,9)" font-family="sans-serif" font-size="10px" fill="#000" opacity="1">ristretto19-system</text></g></g><path class="foreground" aria-hidden="true" d="" pointer-events="none" display="none"/></g></g></g><path class="foreground" aria-hidden="true" d="" pointer-events="none" display="none"/></g></g></g><path class="foreground" aria-hidden="true" d="" pointer-events="none" display="none"/></g></g></g><path class="foreground" aria-hidden="true" d="" display="none"/></g></g></g></svg>