<svg xmlns="http://www.w3.org/2000/svg" xmlns:xlink="http://www.w3.org/1999/xlink" version="1.1" class="marks" width="1280" height="960" viewBox="0 0 640 480"><rect width="640" height="480" fill="white"/><g fill="none" stroke-miterlimit="10" transform="translate(77,27)"><g class="mark-group role-frame root" role="graphics-object" aria-roledescription="group mark container"><g transform="translate(0,0)"><path class="background" aria-hidden="true" d="M0.5,0.5h486v416h-486Z" stroke="#ddd"/><g><g class="mark-group role-axis" aria-hidden="true"><g transform="translate(0.5,416.5)"><path class="background" aria-hidden="true" d="M0,0h0v0h0Z" pointer-events="none"/><g><g class="mark-rule role-axis-grid" pointer-events="none"><line transform="translate(0,-416)" x2="0" y2="416" stroke="#ddd" stroke-width="1" opacity="1"/><line transform="translate(49,-416)" x2="0" y2="416" stroke="#ddd" stroke-width="1" opacity="1"/><line transform="translate(97,-416)" x2="0" y2="416" stroke="#ddd" stroke-width="1" opacity="1"/><line transform="translate(146,-416)" x2="0" y2="416" stroke="#ddd" stroke-width="1" opacity="1"/><line transform="translate(194,-416)" x2="0" y2="416" stroke="#ddd" stroke-width="1" opacity="1"/><line transform="translate(243,-416)" x2="0" y2="416" stroke="#ddd" stroke-width="1" opacity="1"/><line transform="translate(292,-416)" x2="0" y2="416" stroke="#ddd" stroke-width="1" opacity="1"/><line transform="translate(340,-416)" x2="0" y2="416" stroke="#ddd" stroke-width="1" opacity="1"/><line transform="translate(389,-416)" x2="0" y2="416" stroke="#ddd" stroke-width="1" opacity="1"/><line transform="translate(437,-416)" x2="0" y2="416" stroke="#ddd" stroke-width="1" opacity="1"/><line transform="translate(486,-416)" x2="0" y2="416" stroke="#ddd" stroke-width="1" opacity="1"/></g></g><path class="foreground" aria-hidden="true" d="" pointer-events="none" display="none"/></g></g><g class="mark-group role-axis" aria-hidden="true"><g transform="translate(0.5,0.5)"><path class="background" aria-hidden="true" d="M0,0h0v0h0Z" pointer-events="none"/><g><g class="mark-rule role-axis-grid" pointer-events="none"><line transform="translate(0,416)" x2="486" y2="0" stroke="#ddd" stroke-width="1" opacity="1"/><line transform="translate(0,370)" x2="486" y2="0" stroke="#ddd" stroke-width="1" opacity="1"/><line transform="translate(0,324)" x2="486" y2="0" stroke="#ddd" stroke-width="1" opacity="1"/><line transform="translate(0,277)" x2="486" y2="0" stroke="#ddd" stroke-width="1" opacity="1"/><line transform="translate(0,231)" x2="486" y2="0" stroke="#ddd" stroke-width="1" opacity="1"/><line transform="translate(0,185)" x2="486" y2="0" stroke="#ddd" stroke-width="1" opacity="1"/><line transform="translate(0,139)" x2="486" y2="0" stroke="#ddd" stroke-width="1" opacity="1"/><line transform="translate(0,92)" x2="486" y2="0" stroke="#ddd" stroke-width="1" opacity="1"/><line transform="translate(0,46)" x2="486" y2="0" stroke="#ddd" stroke-width="1" opacity="1"/><line transform="translate(0,0)" x2="486" y2="0" stroke="#ddd" stroke-width="1" opacity="1"/></g></g><path class="foreground" aria-hidden="true" d="" pointer-events="none" display="none"/></g></g><g class="mark-group role-axis" role="graphics-symbol" aria-roledescription="axis" aria-label="X-axis titled 'Compression ratio' for a linear scale with values from 2.7 to 3.7"><g transform="translate(0.5,416.5)"><path class="background" aria-hidden="true" d="M0,0h0v0h0Z" pointer-events="none"/><g><g class="mark-rule role-axis-tick" pointer-events="none"><line transform="translate(0,0)" x2="0" y2="5" stroke="#888" stroke-width="1" opacity="1"/><line transform="translate(49,0)" x2="0" y2="5" stroke="#888" stroke-width="1" opacity="1"/><line transform="translate(97,0)" x2="0" y2="5" stroke="#888" stroke-width="1" opacity="1"/><line transform="translate(146,0)" x2="0" y2="5" stroke="#888" stroke-width="1" opacity="1"/><line transform="translate(194,0)" x2="0" y2="5" stroke="#888" stroke-width="1" opacity="1"/><line transform="translate(243,0)" x2="0" y2="5" stroke="#888" stroke-width="1" opacity="1"/><line transform="translate(292,0)" x2="0" y2="5" stroke="#888" stroke-width="1" opacity="1"/><line transform="translate(340,0)" x2="0" y2="5" stroke="#888" stroke-width="1" opacity="1"/><line transform="translate(389,0)" x2="0" y2="5" stroke="#888" stroke-width="1" opacity="1"/><line transform="translate(437,0)" x2="0" y2="5" stroke="#888" stroke-width="1" opacity="1"/><line transform="translate(486,0)" x2="0" y2="5" stroke="#888" stroke-width="1" opacity="1"/></g><g class="mark-text role-axis-label" pointer-events="none"><text text-anchor="start" transform="translate(0,15)" font-family="sans-serif" font-size="10px" fill="#000" opacity="1">2.7</text><text text-anchor="middle" transform="translate(48.599999999999824,15)" font-family="sans-serif" font-size="10px" fill="#000" opacity="1">2.8</text><text text-anchor="middle" transform="translate(97.19999999999987,15)" font-family="sans-serif" font-size="10px" fill="#000" opacity="1">2.9</text><text text-anchor="middle" transform="translate(145.79999999999993,15)" font-family="sans-serif" font-size="10px" fill="#000" opacity="1">3.0</text><text text-anchor="middle" transform="translate(194.39999999999995,15)" font-family="sans-serif" font-size="10px" fill="#000" opacity="1">3.1</text><text text-anchor="middle" transform="translate(243,15)" font-family="sans-serif" font-size="10px" fill="#000" opacity="1">3.2</text><text text-anchor="middle" transform="translate(291.59999999999985,15)" font-family="sans-serif" font-size="10px" fill="#000" opacity="1">3.3</text><text text-anchor="middle" transform="translate(340.1999999999999,15)" font-family="sans-serif" font-size="10px" fill="#000" opacity="1">3.4</text><text text-anchor="middle" transform="translate(388.7999999999999,15)" font-family="sans-serif" font-size="10px" fill="#000" opacity="1">3.5</text><text text-anchor="middle" transform="translate(437.4,15)" font-family="sans-serif" font-size="10px" fill="#000" opacity="1">3.6</text><text text-anchor="end" transform="translate(486,15)" font-family="sans-serif" font-size="10px" fill="#000" opacity="1">3.7</text></g><g class="mark-rule role-axis-domain" pointer-events="none"><line transform="translate(0,0)" x2="486" y2="0" stroke="#888" stroke-width="1" opacity="1"/></g><g class="mark-text role-axis-title" pointer-events="none"><text text-anchor="middle" transform="translate(243,30)" font-family="sans-serif" font-size="11px" font-weight="bold" fill="#000" opacity="1">Compression ratio</text></g></g><path class="foreground" aria-hidden="true" d="" pointer-events="none" display="none"/></g></g><g class="mark-group role-axis" role="graphics-symbol" aria-roledescription="axis" aria-label="Y-axis titled 'Throughput (kb/ms)' for a linear scale with values from 0 to 90"><g transform="translate(0.5,0.5)"><path class="background" aria-hidden="true" d="M0,0h0v0h0Z" pointer-events="none"/><g><g class="mark-rule role-axis-tick" pointer-events="none"><line transform="translate(0,416)" x2="-5" y2="0" stroke="#888" stroke-width="1" opacity="1"/><line transform="translate(0,370)" x2="-5" y2="0" stroke="#888" stroke-width="1" opacity="1"/><line transform="translate(0,324)" x2="-5" y2="0" stroke="#888" stroke-width="1" opacity="1"/><line transform="translate(0,277)" x2="-5" y2="0" stroke="#888" stroke-width="1" opacity="1"/><line transform="translate(0,231)" x2="-5" y2="0" stroke="#888" stroke-width="1" opacity="1"/><line transform="translate(0,185)" x2="-5" y2="0" stroke="#888" stroke-width="1" opacity="1"/><line transform="translate(0,139)" x2="-5" y2="0" stroke="#888" stroke-width="1" opacity="1"/><line transform="translate(0,92)" x2="-5" y2="0" stroke="#888" stroke-width="1" opacity="1"/><line transform="translate(0,46)" x2="-5" y2="0" stroke="#888" stroke-width="1" opacity="1"/><line transform="translate(0,0)" x2="-5" y2="0" stroke="#888" stroke-width="1" opacity="1"/></g><g class="mark-text role-axis-label" pointer-events="none"><text text-anchor="end" transform="translate(-7,419)" font-family="sans-serif" font-size="10px" fill="#000" opacity="1">0</text><text text-anchor="end" transform="translate(-7,372.77777777777777)" font-family="sans-serif" font-size="10px" fill="#000" opacity="1">10</text><text text-anchor="end" transform="translate(-7,326.55555555555554)" font-family="sans-serif" font-size="10px" fill="#000" opacity="1">20</text><text text-anchor="end" transform="translate(-7,280.33333333333337)" font-family="sans-serif" font-size="10px" fill="#000" opacity="1">30</text><text text-anchor="end" transform="translate(-7,234.11111111111111)" font-family="sans-serif" font-size="10px" fill="#000" opacity="1">40</text><text text-anchor="end" transform="translate(-7,187.88888888888889)" font-family="sans-serif" font-size="10px" fill="#000" opacity="1">50</text><text text-anchor="end" transform="translate(-7,141.66666666666669)" font-family="sans-serif" font-size="10px" fill="#000" opacity="1">60</text><text text-anchor="end" transform="translate(-7,95.44444444444444)" font-family="sans-serif" font-size="10px" fill="#000" opacity="1">70</text><text text-anchor="end" transform="translate(-7,49.22222222222224)" font-family="sans-serif" font-size="10px" fill="#000" opacity="1">80</text><text text-anchor="end" transform="translate(-7,3)" font-family="sans-serif" font-size="10px" fill="#000" opacity="1">90</text></g><g class="mark-rule role-axis-domain" pointer-events="none"><line transform="translate(0,416)" x2="0" y2="-416" stroke="#888" stroke-width="1" opacity="1"/></g><g class="mark-text role-axis-title" pointer-events="none"><text text-anchor="middle" transform="translate(-23,208) rotate(-90) translate(0,-2)" font-family="sans-serif" font-size="11px" font-weight="bold" fill="#000" opacity="1">Throughput (kb/ms)</text></g></g><path class="foreground" aria-hidden="true" d="" pointer-events="none" display="none"/></g></g><g class="mark-group role-scope layer_0_layer_0_layer_0_pathgroup" role="graphics-object" aria-roledescription="group mark container"><g transform="translate(0,0)"><path class="background" aria-hidden="true" d="M0,0h486v416h-486Z"/><g><g class="mark-line role-mark layer_0_layer_0_layer_0_marks" role="graphics-object" aria-roledescription="line mark container"><path aria-label="Compression ratio: 2.87; Throughput (kb/ms): 74.316; new-type: ristretto19-chromium" role="graphics-symbol" aria-roledescription="line mark" d="M82.61999999999996,72.49493333333334L145.79999999999993,108.15075555555559L218.69999999999987,192.38613333333333L291.59999999999985,191.77600000000004L388.7999999999999,268.86542222222226L417.9599999999999,348.48782222222223L437.4,368.5575111111111L451.97999999999985,393.91502222222226L451.97999999999985,394.03520000000003" stroke="#4c78a8" stroke-width="2"/></g></g><path class="foreground" aria-hidden="true" d="" display="none"/></g><g transform="translate(0,0)"><path class="background" aria-hidden="true" d="M0,0h486v416h-486Z"/><g><g class="mark-line role-mark layer_0_layer_0_layer_0_marks" role="graphics-object" aria-roledescription="line mark container"><path aria-label="Compression ratio: 2.87; Throughput (kb/ms): 82.776; new-type: ristretto19-cloudflare" role="graphics-symbol" aria-roledescription="line mark" d="M82.61999999999996,33.39093333333335L145.79999999999993,63.27822222222221L218.69999999999987,163.41404444444441L291.59999999999985,153.73511111111114L388.7999999999999,248.23182222222226L437.4,320.12586666666664L451.97999999999985,338.8181333333333L456.84,367.2170666666667L456.84,367.40195555555556" stroke="#f58518" stroke-width="2"/></g></g><path class="foreground" aria-hidden="true" d="" display="none"/></g><g transform="translate(0,0)"><path class="background" aria-hidden="true" d="M0,0h486v416h-486Z"/><g><g class="mark-line role-mark layer_0_layer_0_layer_0_marks" role="graphics-object" aria-roledescription="line mark container"><path aria-label="Compression ratio: 2.79; Throughput (kb/ms): 57.764; new-type: ristretto19-madler" role="graphics-symbol" aria-roledescription="line mark" d="M43.73999999999993,149.00195555555558L111.77999999999999,180.18346666666667L194.39999999999995,254.0096L257.5799999999999,243.39697777777778L354.78,310.9831111111111L417.9599999999999,359.46097777777777L437.4,375.9808L451.97999999999985,396.7623111111111L451.97999999999985,396.83626666666663" stroke="#e45756" stroke-width="2"/></g></g><path class="foreground" aria-hidden="true" d="" display="none"/></g><g transform="translate(0,0)"><path class="background" aria-hidden="true" d="M0,0h486v416h-486Z"/><g><g class="mark-line role-mark layer_0_layer_0_layer_0_marks" role="graphics-object" aria-roledescription="line mark container"><path aria-label="Compression ratio: 2.79; Throughput (kb/ms): 58.01; new-type: ristretto19-system" role="graphics-symbol" aria-roledescription="line mark" d="M43.73999999999993,147.86488888888886L111.77999999999999,176.38400000000001L194.39999999999995,251.80942222222222L257.5799999999999,238.33102222222223L354.78,308.3946666666667L417.9599999999999,358.4625777777778L437.4,375.4446222222222L451.97999999999985,396.66062222222223L451.97999999999985,396.7438222222222" stroke="#72b7b2" stroke-width="2"/></g></g><path class="foreground" aria-hidden="true" d="" display="none"/></g></g><g class="mark-symbol role-mark layer_0_layer_0_layer_1_marks" role="graphics-object" aria-roledescription="symbol mark container"><path aria-label="Compression ratio: 2.87; Throughput (kb/ms): 74.316; new-type: ristretto19-chromium" role="graphics-symbol" aria-roledescription="point" transform="translate(82.61999999999996,72.49493333333334)" d="M2.7386127875258306,0A2.7386127875258306,2.7386127875258306,0,1,1,-2.7386127875258306,0A2.7386127875258306,2.7386127875258306,0,1,1,2.7386127875258306,0" fill="#4c78a8" stroke-width="2" opacity="1"/><path aria-label="Compression ratio: 3; Throughput (kb/ms): 66.602; new-type: ristretto19-chromium" role="graphics-symbol" aria-roledescription="point" transform="translate(145.79999999999993,108.15075555555559)" d="M2.7386127875258306,0A2.7386127875258306,2.7386127875258306,0,1,1,-2.7386127875258306,0A2.7386127875258306,2.7386127875258306,0,1,1,2.7386127875258306,0" fill="#4c78a8" stroke-width="2" opacity="1"/><path aria-label="Compression ratio: 3.15; Throughput (kb/ms): 48.378; new-type: ristretto19-chromium" role="graphics-symbol" aria-roledescription="point" transform="translate(218.69999999999987,192.38613333333333)" d="M2.7386127875258306,0A2.7386127875258306,2.7386127875258306,0,1,1,-2.7386127875258306,0A2.7386127875258306,2.7386127875258306,0,1,1,2.7386127875258306,0" fill="#4c78a8" stroke-width="2" opacity="1"/><path aria-label="Compression ratio: 3.3; Throughput (kb/ms): 48.51; new-type: ristretto19-chromium" role="graphics-symbol" aria-roledescription="point" transform="translate(291.59999999999985,191.77600000000004)" d="M2.7386127875258306,0A2.7386127875258306,2.7386127875258306,0,1,1,-2.7386127875258306,0A2.7386127875258306,2.7386127875258306,0,1,1,2.7386127875258306,0" fill="#4c78a8" stroke-width="2" opacity="1"/><path aria-label="Compression ratio: 3.5; Throughput (kb/ms): 31.832; new-type: ristretto19-chromium" role="graphics-symbol" aria-roledescription="point" transform="translate(388.7999999999999,268.86542222222226)" d="M2.7386127875258306,0A2.7386127875258306,2.7386127875258306,0,1,1,-2.7386127875258306,0A2.7386127875258306,2.7386127875258306,0,1,1,2.7386127875258306,0" fill="#4c78a8" stroke-width="2" opacity="1"/><path aria-label="Compression ratio: 3.56; Throughput (kb/ms): 14.606; new-type: ristretto19-chromium" role="graphics-symbol" aria-roledescription="point" transform="translate(417.9599999999999,348.48782222222223)" d="M2.7386127875258306,0A2.7386127875258306,2.7386127875258306,0,1,1,-2.7386127875258306,0A2.7386127875258306,2.7386127875258306,0,1,1,2.7386127875258306,0" fill="#4c78a8" stroke-width="2" opacity="1"/><path aria-label="Compression ratio: 3.6; Throughput (kb/ms): 10.264; new-type: ristretto19-chromium" role="graphics-symbol" aria-roledescription="point" transform="translate(437.4,368.5575111111111)" d="M2.7386127875258306,0A2.7386127875258306,2.7386127875258306,0,1,1,-2.7386127875258306,0A2.7386127875258306,2.7386127875258306,0,1,1,2.7386127875258306,0" fill="#4c78a8" stroke-width="2" opacity="1"/><path aria-label="Compression ratio: 3.63; Throughput (kb/ms): 4.778; new-type: ristretto19-chromium" role="graphics-symbol" aria-roledescription="point" transform="translate(451.97999999999985,393.91502222222226)" d="M2.7386127875258306,0A2.7386127875258306,2.7386127875258306,0,1,1,-2.7386127875258306,0A2.7386127875258306,2.7386127875258306,0,1,1,2.7386127875258306,0" fill="#4c78a8" stroke-width="2" opacity="1"/><path aria-label="Compression ratio: 3.63; Throughput (kb/ms): 4.752; new-type: ristretto19-chromium" role="graphics-symbol" aria-roledescription="point" transform="translate(451.97999999999985,394.03520000000003)" d="M2.7386127875258306,0A2.7386127875258306,2.7386127875258306,0,1,1,-2.7386127875258306,0A2.7386127875258306,2.7386127875258306,0,1,1,2.7386127875258306,0" fill="#4c78a8" stroke-width="2" opacity="1"/><path aria-label="Compression ratio: 2.87; Throughput (kb/ms): 82.776; new-type: ristretto19-cloudflare" role="graphics-symbol" aria-roledescription="point" transform="translate(82.61999999999996,33.39093333333335)" d="M2.7386127875258306,0A2.7386127875258306,2.7386127875258306,0,1,1,-2.7386127875258306,0A2.7386127875258306,2.7386127875258306,0,1,1,2.7386127875258306,0" fill="#f58518" stroke-width="2" opacity="1"/><path aria-label="Compression ratio: 3; Throughput (kb/ms): 76.31; new-type: ristretto19-cloudflare" role="graphics-symbol" aria-roledescription="point" transform="translate(145.79999999999993,63.27822222222221)" d="M2.7386127875258306,0A2.7386127875258306,2.7386127875258306,0,1,1,-2.7386127875258306,0A2.7386127875258306,2.7386127875258306,0,1,1,2.7386127875258306,0" fill="#f58518" stroke-width="2" opacity="1"/><path aria-label="Compression ratio: 3.15; Throughput (kb/ms): 54.646; new-type: ristretto19-cloudflare" role="graphics-symbol" aria-roledescription="point" transform="translate(218.69999999999987,163.41404444444441)" d="M2.7386127875258306,0A2.7386127875258306,2.7386127875258306,0,1,1,-2.7386127875258306,0A2.7386127875258306,2.7386127875258306,0,1,1,2.7386127875258306,0" fill="#f58518" stroke-width="2" opacity="1"/><path aria-label="Compression ratio: 3.3; Throughput (kb/ms): 56.74; new-type: ristretto19-cloudflare" role="graphics-symbol" aria-roledescription="point" transform="translate(291.59999999999985,153.73511111111114)" d="M2.7386127875258306,0A2.7386127875258306,2.7386127875258306,0,1,1,-2.7386127875258306,0A2.7386127875258306,2.7386127875258306,0,1,1,2.7386127875258306,0" fill="#f58518" stroke-width="2" opacity="1"/><path aria-label="Compression ratio: 3.5; Throughput (kb/ms): 36.296; new-type: ristretto19-cloudflare" role="graphics-symbol" aria-roledescription="point" transform="translate(388.7999999999999,248.23182222222226)" d="M2.7386127875258306,0A2.7386127875258306,2.7386127875258306,0,1,1,-2.7386127875258306,0A2.7386127875258306,2.7386127875258306,0,1,1,2.7386127875258306,0" fill="#f58518" stroke-width="2" opacity="1"/><path aria-label="Compression ratio: 3.6; Throughput (kb/ms): 20.742; new-type: ristretto19-cloudflare" role="graphics-symbol" aria-roledescription="point" transform="translate(437.4,320.12586666666664)" d="M2.7386127875258306,0A2.7386127875258306,2.7386127875258306,0,1,1,-2.7386127875258306,0A2.7386127875258306,2.7386127875258306,0,1,1,2.7386127875258306,0" fill="#f58518" stroke-width="2" opacity="1"/><path aria-label="Compression ratio: 3.63; Throughput (kb/ms): 16.698; new-type: ristretto19-cloudflare" role="graphics-symbol" aria-roledescription="point" transform="translate(451.97999999999985,338.8181333333333)" d="M2.7386127875258306,0A2.7386127875258306,2.7386127875258306,0,1,1,-2.7386127875258306,0A2.7386127875258306,2.7386127875258306,0,1,1,2.7386127875258306,0" fill="#f58518" stroke-width="2" opacity="1"/><path aria-label="Compression ratio: 3.64; Throughput (kb/ms): 10.554; new-type: ristretto19-cloudflare" role="graphics-symbol" aria-roledescription="point" transform="translate(456.84,367.2170666666667)" d="M2.7386127875258306,0A2.7386127875258306,2.7386127875258306,0,1,1,-2.7386127875258306,0A2.7386127875258306,2.7386127875258306,0,1,1,2.7386127875258306,0" fill="#f58518" stroke-width="2" opacity="1"/><path aria-label="Compression ratio: 3.64; Throughput (kb/ms): 10.514; new-type: ristretto19-cloudflare" role="graphics-symbol" aria-roledescription="point" transform="translate(456.84,367.40195555555556)" d="M2.7386127875258306,0A2.7386127875258306,2.7386127875258306,0,1,1,-2.7386127875258306,0A2.7386127875258306,2.7386127875258306,0,1,1,2.7386127875258306,0" fill="#f58518" stroke-width="2" opacity="1"/><path aria-label="Compression ratio: 2.79; Throughput (kb/ms): 57.764; new-type: ristretto19-madler" role="graphics-symbol" aria-roledescription="point" transform="translate(43.73999999999993,149.00195555555558)" d="M2.7386127875258306,0A2.7386127875258306,2.7386127875258306,0,1,1,-2.7386127875258306,0A2.7386127875258306,2.7386127875258306,0,1,1,2.7386127875258306,0" fill="#e45756" stroke-width="2" opacity="1"/><path aria-label="Compression ratio: 2.93; Throughput (kb/ms): 51.018; new-type: ristretto19-madler" role="graphics-symbol" aria-roledescription="point" transform="translate(111.77999999999999,180.18346666666667)" d="M2.7386127875258306,0A2.7386127875258306,2.7386127875258306,0,1,1,-2.7386127875258306,0A2.7386127875258306,2.7386127875258306,0,1,1,2.7386127875258306,0" fill="#e45756" stroke-width="2" opacity="1"/><path aria-label="Compression ratio: 3.1; Throughput (kb/ms): 35.046; new-type: ristretto19-madler" role="graphics-symbol" aria-roledescription="point" transform="translate(194.39999999999995,254.0096)" d="M2.7386127875258306,0A2.7386127875258306,2.7386127875258306,0,1,1,-2.7386127875258306,0A2.7386127875258306,2.7386127875258306,0,1,1,2.7386127875258306,0" fill="#e45756" stroke-width="2" opacity="1"/><path aria-label="Compression ratio: 3.23; Throughput (kb/ms): 37.342; new-type: ristretto19-madler" role="graphics-symbol" aria-roledescription="point" transform="translate(257.5799999999999,243.39697777777778)" d="M2.7386127875258306,0A2.7386127875258306,2.7386127875258306,0,1,1,-2.7386127875258306,0A2.7386127875258306,2.7386127875258306,0,1,1,2.7386127875258306,0" fill="#e45756" stroke-width="2" opacity="1"/><path aria-label="Compression ratio: 3.43; Throughput (kb/ms): 22.72; new-type: ristretto19-madler" role="graphics-symbol" aria-roledescription="point" transform="translate(354.78,310.9831111111111)" d="M2.7386127875258306,0A2.7386127875258306,2.7386127875258306,0,1,1,-2.7386127875258306,0A2.7386127875258306,2.7386127875258306,0,1,1,2.7386127875258306,0" fill="#e45756" stroke-width="2" opacity="1"/><path aria-label="Compression ratio: 3.56; Throughput (kb/ms): 12.232; new-type: ristretto19-madler" role="graphics-symbol" aria-roledescription="point" transform="translate(417.9599999999999,359.46097777777777)" d="M2.7386127875258306,0A2.7386127875258306,2.7386127875258306,0,1,1,-2.7386127875258306,0A2.7386127875258306,2.7386127875258306,0,1,1,2.7386127875258306,0" fill="#e45756" stroke-width="2" opacity="1"/><path aria-label="Compression ratio: 3.6; Throughput (kb/ms): 8.658; new-type: ristretto19-madler" role="graphics-symbol" aria-roledescription="point" transform="translate(437.4,375.9808)" d="M2.7386127875258306,0A2.7386127875258306,2.7386127875258306,0,1,1,-2.7386127875258306,0A2.7386127875258306,2.7386127875258306,0,1,1,2.7386127875258306,0" fill="#e45756" stroke-width="2" opacity="1"/><path aria-label="Compression ratio: 3.63; Throughput (kb/ms): 4.162; new-type: ristretto19-madler" role="graphics-symbol" aria-roledescription="point" transform="translate(451.97999999999985,396.7623111111111)" d="M2.7386127875258306,0A2.7386127875258306,2.7386127875258306,0,1,1,-2.7386127875258306,0A2.7386127875258306,2.7386127875258306,0,1,1,2.7386127875258306,0" fill="#e45756" stroke-width="2" opacity="1"/><path aria-label="Compression ratio: 3.63; Throughput (kb/ms): 4.146; new-type: ristretto19-madler" role="graphics-symbol" aria-roledescription="point" transform="translate(451.97999999999985,396.83626666666663)" d="M2.7386127875258306,0A2.7386127875258306,2.7386127875258306,0,1,1,-2.7386127875258306,0A2.7386127875258306,2.7386127875258306,0,1,1,2.7386127875258306,0" fill="#e45756" stroke-width="2" opacity="1"/><path aria-label="Compression ratio: 2.79; Throughput (kb/ms): 58.01; new-type: ristretto19-system" role="graphics-symbol" aria-roledescription="point" transform="translate(43.73999999999993,147.86488888888886)" d="M2.7386127875258306,0A2.7386127875258306,2.7386127875258306,0,1,1,-2.7386127875258306,0A2.7386127875258306,2.7386127875258306,0,1,1,2.7386127875258306,0" fill="#72b7b2" stroke-width="2" opacity="1"/><path aria-label="Compression ratio: 2.93; Throughput (kb/ms): 51.84; new-type: ristretto19-system" role="graphics-symbol" aria-roledescription="point" transform="translate(111.77999999999999,176.38400000000001)" d="M2.7386127875258306,0A2.7386127875258306,2.7386127875258306,0,1,1,-2.7386127875258306,0A2.7386127875258306,2.7386127875258306,0,1,1,2.7386127875258306,0" fill="#72b7b2" stroke-width="2" opacity="1"/><path aria-label="Compression ratio: 3.1; Throughput (kb/ms): 35.522; new-type: ristretto19-system" role="graphics-symbol" aria-roledescription="point" transform="translate(194.39999999999995,251.80942222222222)" d="M2.7386127875258306,0A2.7386127875258306,2.7386127875258306,0,1,1,-2.7386127875258306,0A2.7386127875258306,2.7386127875258306,0,1,1,2.7386127875258306,0" fill="#72b7b2" stroke-width="2" opacity="1"/><path aria-label="Compression ratio: 3.23; Throughput (kb/ms): 38.438; new-type: ristretto19-system" role="graphics-symbol" aria-roledescription="point" transform="translate(257.5799999999999,238.33102222222223)" d="M2.7386127875258306,0A2.7386127875258306,2.7386127875258306,0,1,1,-2.7386127875258306,0A2.7386127875258306,2.7386127875258306,0,1,1,2.7386127875258306,0" fill="#72b7b2" stroke-width="2" opacity="1"/><path aria-label="Compression ratio: 3.43; Throughput (kb/ms): 23.28; new-type: ristretto19-system" role="graphics-symbol" aria-roledescription="point" transform="translate(354.78,308.3946666666667)" d="M2.7386127875258306,0A2.7386127875258306,2.7386127875258306,0,1,1,-2.7386127875258306,0A2.7386127875258306,2.7386127875258306,0,1,1,2.7386127875258306,0" fill="#72b7b2" stroke-width="2" opacity="1"/><path aria-label="Compression ratio: 3.56; Throughput (kb/ms): 12.448; new-type: ristretto19-system" role="graphics-symbol" aria-roledescription="point" transform="translate(417.9599999999999,358.4625777777778)" d="M2.7386127875258306,0A2.7386127875258306,2.7386127875258306,0,1,1,-2.7386127875258306,0A2.7386127875258306,2.7386127875258306,0,1,1,2.7386127875258306,0" fill="#72b7b2" stroke-width="2" opacity="1"/><path aria-label="Compression ratio: 3.6; Throughput (kb/ms): 8.774; new-type: ristretto19-system" role="graphics-symbol" aria-roledescription="point" transform="translate(437.4,375.4446222222222)" d="M2.7386127875258306,0A2.7386127875258306,2.7386127875258306,0,1,1,-2.7386127875258306,0A2.7386127875258306,2.7386127875258306,0,1,1,2.7386127875258306,0" fill="#72b7b2" stroke-width="2" opacity="1"/><path aria-label="Compression ratio: 3.63; Throughput (kb/ms): 4.184; new-type: ristretto19-system" role="graphics-symbol" aria-roledescription="point" transform="translate(451.97999999999985,396.66062222222223)" d="M2.7386127875258306,0A2.7386127875258306,2.7386127875258306,0,1,1,-2.7386127875258306,0A2.7386127875258306,2.7386127875258306,0,1,1,2.7386127875258306,0" fill="#72b7b2" stroke-width="2" opacity="1"/><path aria-label="Compression ratio: 3.63; Throughput (kb/ms): 4.166; new-type: ristretto19-system" role="graphics-symbol" aria-roledescription="point" transform="translate(451.97999999999985,396.7438222222222)" d="M2.7386127875258306,0A2.7386127875258306,2.7386127875258306,0,1,1,-2.7386127875258306,0A2.7386127875258306,2.7386127875258306,0,1,1,2.7386127875258306,0" fill="#72b7b2" stroke-width="2" opacity="1"/></g><g class="mark-text role-mark layer_0_layer_1_marks" role="graphics-object" aria-roledescription="text mark container"><text aria-label="Compression ratio: 2.87; Throughput (kb/ms): 74.316; new-type: ristretto19-chromium; level: 1" role="graphics-symbol" aria-roledescription="text mark" text-anchor="end" transform="translate(87.61999999999996,67.49493333333334)" font-family="sans-serif" font-size="11px" fill="#4c78a8">1</text><text aria-label="Compression ratio: 3; Throughput (kb/ms): 66.602; new-type: ristretto19-chromium; level: 2" role="graphics-symbol" aria-roledescription="text mark" text-anchor="end" transform="translate(150.79999999999993,103.15075555555559)" font-family="sans-serif" font-size="11px" fill="#4c78a8">2</text><text aria-label="Compression ratio: 3.15; Throughput (kb/ms): 48.378; new-type: ristretto19-chromium; level: 3" role="graphics-symbol" aria-roledescription="text mark" text-anchor="end" transform="translate(223.69999999999987,187.38613333333333)" font-family="sans-serif" font-size="11px" fill="#4c78a8">3</text><text aria-label="Compression ratio: 3.3; Throughput (kb/ms): 48.51; new-type: ristretto19-chromium; level: 4" role="graphics-symbol" aria-roledescription="text mark" text-anchor="end" transform="translate(296.59999999999985,186.77600000000004)" font-family="sans-serif" font-size="11px" fill="#4c78a8">4</text><text aria-label="Compression ratio: 3.5; Throughput (kb/ms): 31.832; new-type: ristretto19-chromium; level: 5" role="graphics-symbol" aria-roledescription="text mark" text-anchor="end" transform="translate(393.7999999999999,263.86542222222226)" font-family="sans-serif" font-size="11px" fill="#4c78a8">5</text><text aria-label="Compression ratio: 3.56; Throughput (kb/ms): 14.606; new-type: ristretto19-chromium; level: 6" role="graphics-symbol" aria-roledescription="text mark" text-anchor="end" transform="translate(422.9599999999999,343.48782222222223)" font-family="sans-serif" font-size="11px" fill="#4c78a8">6</text><text aria-label="Compression ratio: 3.6; Throughput (kb/ms): 10.264; new-type: ristretto19-chromium; level: 7" role="graphics-symbol" aria-roledescription="text mark" text-anchor="end" transform="translate(442.4,363.5575111111111)" font-family="sans-serif" font-size="11px" fill="#4c78a8">7</text><text aria-label="Compression ratio: 3.63; Throughput (kb/ms): 4.778; new-type: ristretto19-chromium; level: 8" role="graphics-symbol" aria-roledescription="text mark" text-anchor="end" transform="translate(456.97999999999985,388.91502222222226)" font-family="sans-serif" font-size="11px" fill="#4c78a8">8</text><text aria-label="Compression ratio: 3.63; Throughput (kb/ms): 4.752; new-type: ristretto19-chromium; level: 9" role="graphics-symbol" aria-roledescription="text mark" text-anchor="end" transform="translate(456.97999999999985,389.03520000000003)" font-family="sans-serif" font-size="11px" fill="#4c78a8">9</text><text aria-label="Compression ratio: 2.87; Throughput (kb/ms): 82.776; new-type: ristretto19-cloudflare; level: 1" role="graphics-symbol" aria-roledescription="text mark" text-anchor="end" transform="translate(87.61999999999996,28.39093333333335)" font-family="sans-serif" font-size="11px" fill="#f58518">1</text><text aria-label="Compression ratio: 3; Throughput (kb/ms): 76.31; new-type: ristretto19-cloudflare; level: 2" role="graphics-symbol" aria-roledescription="text mark" text-anchor="end" transform="translate(150.79999999999993,58.27822222222221)" font-family="sans-serif" font-size="11px" fill="#f58518">2</text><text aria-label="Compression ratio: 3.15; Throughput (kb/ms): 54.646; new-type: ristretto19-cloudflare; level: 3" role="graphics-symbol" aria-roledescription="text mark" text-anchor="end" transform="translate(223.69999999999987,158.41404444444441)" font-family="sans-serif" font-size="11px" fill="#f58518">3</text><text aria-label="Compression ratio: 3.3; Throughput (kb/ms): 56.74; new-type: ristretto19-cloudflare; level: 4" role="graphics-symbol" aria-roledescription="text mark" text-anchor="end" transform="translate(296.59999999999985,148.73511111111114)" font-family="sans-serif" font-size="11px" fill="#f58518">4</text><text aria-label="Compression ratio: 3.5; Throughput (kb/ms): 36.296; new-type: ristretto19-cloudflare; level: 5" role="graphics-symbol" aria-roledescription="text mark" text-anchor="end" transform="translate(393.7999999999999,243.23182222222226)" font-family="sans-serif" font-size="11px" fill="#f58518">5</text><text aria-label="Compression ratio: 3.6; Throughput (kb/ms): 20.742; new-type: ristretto19-cloudflare; level: 6" role="graphics-symbol" aria-roledescription="text mark" text-anchor="end" transform="translate(442.4,315.12586666666664)" font-family="sans-serif" font-size="11px" fill="#f58518">6</text><text aria-label="Compression ratio: 3.63; Throughput (kb/ms): 16.698; new-type: ristretto19-cloudflare; level: 7" role="graphics-symbol" aria-roledescription="text mark" text-anchor="end" transform="translate(456.97999999999985,333.8181333333333)" font-family="sans-serif" font-size="11px" fill="#f58518">7</text><text aria-label="Compression ratio: 3.64; Throughput (kb/ms): 10.554; new-type: ristretto19-cloudflare; level: 8" role="graphics-symbol" aria-roledescription="text mark" text-anchor="end" transform="translate(461.84,362.2170666666667)" font-family="sans-serif" font-size="11px" fill="#f58518">8</text><text aria-label="Compression ratio: 3.64; Throughput (kb/ms): 10.514; new-type: ristretto19-cloudflare; level: 9" role="graphics-symbol" aria-roledescription="text mark" text-anchor="end" transform="translate(461.84,362.40195555555556)" font-family="sans-serif" font-size="11px" fill="#f58518">9</text><text aria-label="Compression ratio: 2.79; Throughput (kb/ms): 57.764; new-type: ristretto19-madler; level: 1" role="graphics-symbol" aria-roledescription="text mark" text-anchor="end" transform="translate(48.73999999999993,144.00195555555558)" font-family="sans-serif" font-size="11px" fill="#e45756">1</text><text aria-label="Compression ratio: 2.93; Throughput (kb/ms): 51.018; new-type: ristretto19-madler; level: 2" role="graphics-symbol" aria-roledescription="text mark" text-anchor="end" transform="translate(116.77999999999999,175.18346666666667)" font-family="sans-serif" font-size="11px" fill="#e45756">2</text><text aria-label="Compression ratio: 3.1; Throughput (kb/ms): 35.046; new-type: ristretto19-madler; level: 3" role="graphics-symbol" aria-roledescription="text mark" text-anchor="end" transform="translate(199.39999999999995,249.0096)" font-family="sans-serif" font-size="11px" fill="#e45756">3</text><text aria-label="Compression ratio: 3.23; Throughput (kb/ms): 37.342; new-type: ristretto19-madler; level: 4" role="graphics-symbol" aria-roledescription="text mark" text-anchor="end" transform="translate(262.5799999999999,238.39697777777778)" font-family="sans-serif" font-size="11px" fill="#e45756">4</text><text aria-label="Compression ratio: 3.43; Throughput (kb/ms): 22.72; new-type: ristretto19-madler; level: 5" role="graphics-symbol" aria-roledescription="text mark" text-anchor="end" transform="translate(359.78,305.9831111111111)" font-family="sans-serif" font-size="11px" fill="#e45756">5</text><text aria-label="Compression ratio: 3.56; Throughput (kb/ms): 12.232; new-type: ristretto19-madler; level: 6" role="graphics-symbol" aria-roledescription="text mark" text-anchor="end" transform="translate(422.9599999999999,354.46097777777777)" font-family="sans-serif" font-size="11px" fill="#e45756">6</text><text aria-label="Compression ratio: 3.6; Throughput (kb/ms): 8.658; new-type: ristretto19-madler; level: 7" role="graphics-symbol" aria-roledescription="text mark" text-anchor="end" transform="translate(442.4,370.9808)" font-family="sans-serif" font-size="11px" fill="#e45756">7</text><text aria-label="Compression ratio: 3.63; Throughput (kb/ms): 4.162; new-type: ristretto19-madler; level: 8" role="graphics-symbol" aria-roledescription="text mark" text-anchor="end" transform="translate(456.97999999999985,391.7623111111111)" font-family="sans-serif" font-size="11px" fill="#e45756">8</text><text aria-label="Compression ratio: 3.63; Throughput (kb/ms): 4.146; new-type: ristretto19-madler; level: 9" role="graphics-symbol" aria-roledescription="text mark" text-anchor="end" transform="translate(456.97999999999985,391.83626666666663)" font-family="sans-serif" font-size="11px" fill="#e45756">9</text><text aria-label="Compression ratio: 2.79; Throughput (kb/ms): 58.01; new-type: ristretto19-system; level: 1" role="graphics-symbol" aria-roledescription="text mark" text-anchor="end" transform="translate(48.73999999999993,142.86488888888886)" font-family="sans-serif" font-size="11px" fill="#72b7b2">1</text><text aria-label="Compression ratio: 2.93; Throughput (kb/ms): 51.84; new-type: ristretto19-system; level: 2" role="graphics-symbol" aria-roledescription="text mark" text-anchor="end" transform="translate(116.77999999999999,171.38400000000001)" font-family="sans-serif" font-size="11px" fill="#72b7b2">2</text><text aria-label="Compression ratio: 3.1; Throughput (kb/ms): 35.522; new-type: ristretto19-system; level: 3" role="graphics-symbol" aria-roledescription="text mark" text-anchor="end" transform="translate(199.39999999999995,246.80942222222222)" font-family="sans-serif" font-size="11px" fill="#72b7b2">3</text><text aria-label="Compression ratio: 3.23; Throughput (kb/ms): 38.438; new-type: ristretto19-system; level: 4" role="graphics-symbol" aria-roledescription="text mark" text-anchor="end" transform="translate(262.5799999999999,233.33102222222223)" font-family="sans-serif" font-size="11px" fill="#72b7b2">4</text><text aria-label="Compression ratio: 3.43; Throughput (kb/ms): 23.28; new-type: ristretto19-system; level: 5" role="graphics-symbol" aria-roledescription="text mark" text-anchor="end" transform="translate(359.78,303.3946666666667)" font-family="sans-serif" font-size="11px" fill="#72b7b2">5</text><text aria-label="Compression ratio: 3.56; Throughput (kb/ms): 12.448; new-type: ristretto19-system; level: 6" role="graphics-symbol" aria-roledescription="text mark" text-anchor="end" transform="translate(422.9599999999999,353.4625777777778)" font-family="sans-serif" font-size="11px" fill="#72b7b2">6</text><text aria-label="Compression ratio: 3.6; Throughput (kb/ms): 8.774; new-type: ristretto19-system; level: 7" role="graphics-symbol" aria-roledescription="text mark" text-anchor="end" transform="translate(442.4,370.4446222222222)" font-family="sans-serif" font-size="11px" fill="#72b7b2">7</text><text aria-label="Compression ratio: 3.63; Throughput (kb/ms): 4.184; new-type: ristretto19-system; level: 8" role="graphics-symbol" aria-roledescription="text mark" text-anchor="end" transform="translate(456.97999999999985,391.66062222222223)" font-family="sans-serif" font-size="11px" fill="#72b7b2">8</text><text aria-label="Compression ratio: 3.63; Throughput (kb/ms): 4.166; new-type: ristretto19-system; level: 9" role="graphics-symbol" aria-roledescription="text mark" text-anchor="end" transform="translate(456.97999999999985,391.7438222222222)" font-family="sans-serif" font-size="11px" fill="#72b7b2">9</text></g><g class="mark-group role-title"><g transform="translate(243,-22)"><path class="background" aria-hidden="true" d="M0,0h0v0h0Z" pointer-events="none"/><g><g class="mark-text role-title-text" role="graphics-symbol" aria-roledescription="title" aria-label="Title text '[Existing 2020 Zlib] Deflater throughput/ratio per level for 'silesia/reymont' on Xeon E5-2686 v4 / 1900MHz'" pointer-events="none"><text text-anchor="middle" transform="translate(0,10)" font-family="sans-serif" font-size="13px" font-weight="bold" fill="#000" opacity="1">[Existing 2020 Zlib] Deflater throughput/ratio per level for 'silesia/reymont' on Xeon E5-2686 v4 / 1900MHz</text></g></g><path class="foreground" aria-hidden="true" d="" pointer-events="none" display="none"/></g></g><g class="mark-group role-legend" role="graphics-symbol" aria-roledescription="legend" aria-label="Symbol legend for fill color and stroke color with 4 values: ristretto19-chromium, ristretto19-cloudflare, ristretto19-madler, ristretto19-system"><g transform="translate(350,0)"><path class="background" aria-hidden="true" d="M0.5,0.5h138v77h-138Z" pointer-events="none" fill="#ffffff" stroke="#000000"/><g><g class="mark-group role-legend-entry"><g transform="translate(8,8)"><path class="background" aria-hidden="true" d="M0,0h0v0h0Z" pointer-events="none"/><g><g class="mark-group role-scope" role="graphics-object" aria-roledescription="group mark container"><g transform="translate(0,0)"><path class="background" aria-hidden="true" d="M0,0h122v12.5h-122Z" pointer-events="none" opacity="1"/><g><g class="mark-symbol role-legend-symbol" pointer-events="none"><path transform="translate(6,6)" d="M5,0A5,5,0,1,1,-5,0A5,5,0,1,1,5,0" fill="#4c78a8" stroke="#4c78a8" stroke-width="1.5" opacity="1"/></g><g class="mark-text role-legend-label" pointer-events="none"><text text-anchor="start" transform="translate(16,9)" font-family="sans-serif" font-size="10px" fill="#000" opacity="1">ristretto19-chromium</text></g></g><path class="foreground" aria-hidden="true" d="" pointer-events="none" display="none"/></g><g transform="translate(0,16)"><path class="background" aria-hidden="true" d="M0,0h122v12.5h-122Z" pointer-events="none" opacity="1"/><g><g class="mark-symbol role-legend-symbol" pointer-events="none"><path transform="translate(6,6)" d="M5,0A5,5,0,1,1,-5,0A5,5,0,1,1,5,0" fill="#f58518" stroke="#f58518" stroke-width="1.5" opacity="1"/></g><g class="mark-text role-legend-label" pointer-events="none"><text text-anchor="start" transform="translate(16,9)" font-family="sans-serif" font-size="10px" fill="#000" opacity="1">ristretto19-cloudflare</text></g></g><path class="foreground" aria-hidden="true" d="" pointer-events="none" display="none"/></g><g transform="translate(0,32)"><path class="background" aria-hidden="true" d="M0,0h122v12.5h-122Z" pointer-events="none" opacity="1"/><g><g class="mark-symbol role-legend-symbol" pointer-events="none"><path transform="translate(6,6)" d="M5,0A5,5,0,1,1,-5,0A5,5,0,1,1,5,0" fill="#e45756" stroke="#e45756" stroke-width="1.5" opacity="1"/></g><g class="mark-text role-legend-label" pointer-events="none"><text text-anchor="start" transform="translate(16,9)" font-family="sans-serif" font-size="10px" fill="#000" opacity="1">ristretto19-madler</text></g></g><path class="foreground" aria-hidden="true" d="" pointer-events="none" display="none"/></g><g transform="translate(0,48)"><path class="background" aria-hidden="true" d="M0,0h122v12.5h-122Z" pointer-events="none" opacity="1"/><g><g class="mark-symbol role-legend-symbol" pointer-events="none"><path transform="translate(6,6)" d="M5,0A5,5,0,1,1,-5,0A5,5,0,1,1,5,0" fill="#72b7b2" stroke="#72b7b2" stroke-width="1.5" opacity="1"/></g><g class="mark-text role-legend-label" pointer-events="none"><text text-anchor="start" transform="translate(16,9)" font-family="sans-serif" font-size="10px" fill="#000" opacity="1">ristretto19-system</text></g></g><path class="foreground" aria-hidden="true" d="" pointer-events="none" display="none"/></g></g></g><path class="foreground" aria-hidden="true" d="" pointer-events="none" display="none"/></g></g></g><path class="foreground" aria-hidden="true" d="" pointer-events="none" display="none"/></g></g></g><path class="foreground" aria-hidden="true" d="" display="none"/></g></g></g></svg>