<svg xmlns="http://www.w3.org/2000/svg" xmlns:xlink="http://www.w3.org/1999/xlink" version="1.1" class="marks" width="1280" height="960" viewBox="0 0 640 480"><rect width="640" height="480" fill="white"/><g fill="none" stroke-miterlimit="10" transform="translate(39,36)"><g class="mark-group role-frame root" role="graphics-object" aria-roledescription="group mark container"><g transform="translate(0,0)"><path class="background" aria-hidden="true" d="M0.5,0.5h591v407h-591Z" stroke="#ddd"/><g><g class="mark-group role-axis" aria-hidden="true"><g transform="translate(0.5,407.5)"><path class="background" aria-hidden="true" d="M0,0h0v0h0Z" pointer-events="none"/><g><g class="mark-rule role-axis-grid" pointer-events="none"><line transform="translate(0,-407)" x2="0" y2="407" stroke="#ddd" stroke-width="1" opacity="1"/><line transform="translate(37,-407)" x2="0" y2="407" stroke="#ddd" stroke-width="1" opacity="1"/><line transform="translate(74,-407)" x2="0" y2="407" stroke="#ddd" stroke-width="1" opacity="1"/><line transform="translate(111,-407)" x2="0" y2="407" stroke="#ddd" stroke-width="1" opacity="1"/><line transform="translate(148,-407)" x2="0" y2="407" stroke="#ddd" stroke-width="1" opacity="1"/><line transform="translate(185,-407)" x2="0" y2="407" stroke="#ddd" stroke-width="1" opacity="1"/><line transform="translate(222,-407)" x2="0" y2="407" stroke="#ddd" stroke-width="1" opacity="1"/><line transform="translate(259,-407)" x2="0" y2="407" stroke="#ddd" stroke-width="1" opacity="1"/><line transform="translate(295,-407)" x2="0" y2="407" stroke="#ddd" stroke-width="1" opacity="1"/><line transform="translate(332,-407)" x2="0" y2="407" stroke="#ddd" stroke-width="1" opacity="1"/><line transform="translate(369,-407)" x2="0" y2="407" stroke="#ddd" stroke-width="1" opacity="1"/><line transform="translate(406,-407)" x2="0" y2="407" stroke="#ddd" stroke-width="1" opacity="1"/><line transform="translate(443,-407)" x2="0" y2="407" stroke="#ddd" stroke-width="1" opacity="1"/><line transform="translate(480,-407)" x2="0" y2="407" stroke="#ddd" stroke-width="1" opacity="1"/><line transform="translate(517,-407)" x2="0" y2="407" stroke="#ddd" stroke-width="1" opacity="1"/><line transform="translate(554,-407)" x2="0" y2="407" stroke="#ddd" stroke-width="1" opacity="1"/><line transform="translate(591,-407)" x2="0" y2="407" stroke="#ddd" stroke-width="1" opacity="1"/></g></g><path class="foreground" aria-hidden="true" d="" pointer-events="none" display="none"/></g></g><g class="mark-group role-axis" aria-hidden="true"><g transform="translate(0.5,0.5)"><path class="background" aria-hidden="true" d="M0,0h0v0h0Z" pointer-events="none"/><g><g class="mark-rule role-axis-grid" pointer-events="none"><line transform="translate(0,407)" x2="591" y2="0" stroke="#ddd" stroke-width="1" opacity="1"/><line transform="translate(0,349)" x2="591" y2="0" stroke="#ddd" stroke-width="1" opacity="1"/><line transform="translate(0,291)" x2="591" y2="0" stroke="#ddd" stroke-width="1" opacity="1"/><line transform="translate(0,233)" x2="591" y2="0" stroke="#ddd" stroke-width="1" opacity="1"/><line transform="translate(0,174)" x2="591" y2="0" stroke="#ddd" stroke-width="1" opacity="1"/><line transform="translate(0,116)" x2="591" y2="0" stroke="#ddd" stroke-width="1" opacity="1"/><line transform="translate(0,58)" x2="591" y2="0" stroke="#ddd" stroke-width="1" opacity="1"/><line transform="translate(0,0)" x2="591" y2="0" stroke="#ddd" stroke-width="1" opacity="1"/></g></g><path class="foreground" aria-hidden="true" d="" pointer-events="none" display="none"/></g></g><g class="mark-group role-axis" role="graphics-symbol" aria-roledescription="axis" aria-label="X-axis titled 'Compression ratio' for a linear scale with values from 1.34 to 1.42"><g transform="translate(0.5,407.5)"><path class="background" aria-hidden="true" d="M0,0h0v0h0Z" pointer-events="none"/><g><g class="mark-rule role-axis-tick" pointer-events="none"><line transform="translate(0,0)" x2="0" y2="5" stroke="#888" stroke-width="1" opacity="1"/><line transform="translate(37,0)" x2="0" y2="5" stroke="#888" stroke-width="1" opacity="1"/><line transform="translate(74,0)" x2="0" y2="5" stroke="#888" stroke-width="1" opacity="1"/><line transform="translate(111,0)" x2="0" y2="5" stroke="#888" stroke-width="1" opacity="1"/><line transform="translate(148,0)" x2="0" y2="5" stroke="#888" stroke-width="1" opacity="1"/><line transform="translate(185,0)" x2="0" y2="5" stroke="#888" stroke-width="1" opacity="1"/><line transform="translate(222,0)" x2="0" y2="5" stroke="#888" stroke-width="1" opacity="1"/><line transform="translate(259,0)" x2="0" y2="5" stroke="#888" stroke-width="1" opacity="1"/><line transform="translate(295,0)" x2="0" y2="5" stroke="#888" stroke-width="1" opacity="1"/><line transform="translate(332,0)" x2="0" y2="5" stroke="#888" stroke-width="1" opacity="1"/><line transform="translate(369,0)" x2="0" y2="5" stroke="#888" stroke-width="1" opacity="1"/><line transform="translate(406,0)" x2="0" y2="5" stroke="#888" stroke-width="1" opacity="1"/><line transform="translate(443,0)" x2="0" y2="5" stroke="#888" stroke-width="1" opacity="1"/><line transform="translate(480,0)" x2="0" y2="5" stroke="#888" stroke-width="1" opacity="1"/><line transform="translate(517,0)" x2="0" y2="5" stroke="#888" stroke-width="1" opacity="1"/><line transform="translate(554,0)" x2="0" y2="5" stroke="#888" stroke-width="1" opacity="1"/><line transform="translate(591,0)" x2="0" y2="5" stroke="#888" stroke-width="1" opacity="1"/></g><g class="mark-text role-axis-label" pointer-events="none"><text text-anchor="start" transform="translate(0,15)" font-family="sans-serif" font-size="10px" fill="#000" opacity="1">1.340</text><text text-anchor="middle" transform="translate(36.93749999999928,15)" font-family="sans-serif" font-size="10px" fill="#000" opacity="0">1.345</text><text text-anchor="middle" transform="translate(73.87500000000021,15)" font-family="sans-serif" font-size="10px" fill="#000" opacity="1">1.350</text><text text-anchor="middle" transform="translate(110.81249999999949,15)" font-family="sans-serif" font-size="10px" fill="#000" opacity="0">1.355</text><text text-anchor="middle" transform="translate(147.75000000000043,15)" font-family="sans-serif" font-size="10px" fill="#000" opacity="1">1.360</text><text text-anchor="middle" transform="translate(184.68749999999972,15)" font-family="sans-serif" font-size="10px" fill="#000" opacity="0">1.365</text><text text-anchor="middle" transform="translate(221.62500000000063,15)" font-family="sans-serif" font-size="10px" fill="#000" opacity="1">1.370</text><text text-anchor="middle" transform="translate(258.5624999999999,15)" font-family="sans-serif" font-size="10px" fill="#000" opacity="0">1.375</text><text text-anchor="middle" transform="translate(295.4999999999992,15)" font-family="sans-serif" font-size="10px" fill="#000" opacity="1">1.380</text><text text-anchor="middle" transform="translate(332.4375000000001,15)" font-family="sans-serif" font-size="10px" fill="#000" opacity="0">1.385</text><text text-anchor="middle" transform="translate(369.37499999999943,15)" font-family="sans-serif" font-size="10px" fill="#000" opacity="1">1.390</text><text text-anchor="middle" transform="translate(406.31250000000034,15)" font-family="sans-serif" font-size="10px" fill="#000" opacity="0">1.395</text><text text-anchor="middle" transform="translate(443.2499999999996,15)" font-family="sans-serif" font-size="10px" fill="#000" opacity="1">1.400</text><text text-anchor="middle" transform="translate(480.1875000000005,15)" font-family="sans-serif" font-size="10px" fill="#000" opacity="0">1.405</text><text text-anchor="middle" transform="translate(517.1249999999998,15)" font-family="sans-serif" font-size="10px" fill="#000" opacity="1">1.410</text><text text-anchor="middle" transform="translate(554.0625000000007,15)" font-family="sans-serif" font-size="10px" fill="#000" opacity="0">1.415</text><text text-anchor="end" transform="translate(591,15)" font-family="sans-serif" font-size="10px" fill="#000" opacity="1">1.420</text></g><g class="mark-rule role-axis-domain" pointer-events="none"><line transform="translate(0,0)" x2="591" y2="0" stroke="#888" stroke-width="1" opacity="1"/></g><g class="mark-text role-axis-title" pointer-events="none"><text text-anchor="middle" transform="translate(295.5,30)" font-family="sans-serif" font-size="11px" font-weight="bold" fill="#000" opacity="1">Compression ratio</text></g></g><path class="foreground" aria-hidden="true" d="" pointer-events="none" display="none"/></g></g><g class="mark-group role-axis" role="graphics-symbol" aria-roledescription="axis" aria-label="Y-axis titled 'Throughput (kb/ms)' for a linear scale with values from 0 to 35"><g transform="translate(0.5,0.5)"><path class="background" aria-hidden="true" d="M0,0h0v0h0Z" pointer-events="none"/><g><g class="mark-rule role-axis-tick" pointer-events="none"><line transform="translate(0,407)" x2="-5" y2="0" stroke="#888" stroke-width="1" opacity="1"/><line transform="translate(0,349)" x2="-5" y2="0" stroke="#888" stroke-width="1" opacity="1"/><line transform="translate(0,291)" x2="-5" y2="0" stroke="#888" stroke-width="1" opacity="1"/><line transform="translate(0,233)" x2="-5" y2="0" stroke="#888" stroke-width="1" opacity="1"/><line transform="translate(0,174)" x2="-5" y2="0" stroke="#888" stroke-width="1" opacity="1"/><line transform="translate(0,116)" x2="-5" y2="0" stroke="#888" stroke-width="1" opacity="1"/><line transform="translate(0,58)" x2="-5" y2="0" stroke="#888" stroke-width="1" opacity="1"/><line transform="translate(0,0)" x2="-5" y2="0" stroke="#888" stroke-width="1" opacity="1"/></g><g class="mark-text role-axis-label" pointer-events="none"><text text-anchor="end" transform="translate(-7,410)" font-family="sans-serif" font-size="10px" fill="#000" opacity="1">0</text><text text-anchor="end" transform="translate(-7,351.8571428571429)" font-family="sans-serif" font-size="10px" fill="#000" opacity="1">5</text><text text-anchor="end" transform="translate(-7,293.7142857142857)" font-family="sans-serif" font-size="10px" fill="#000" opacity="1">10</text><text text-anchor="end" transform="translate(-7,235.57142857142856)" font-family="sans-serif" font-size="10px" fill="#000" opacity="1">15</text><text text-anchor="end" transform="translate(-7,177.42857142857144)" font-family="sans-serif" font-size="10px" fill="#000" opacity="1">20</text><text text-anchor="end" transform="translate(-7,119.28571428571428)" font-family="sans-serif" font-size="10px" fill="#000" opacity="1">25</text><text text-anchor="end" transform="translate(-7,61.14285714285716)" font-family="sans-serif" font-size="10px" fill="#000" opacity="1">30</text><text text-anchor="end" transform="translate(-7,3)" font-family="sans-serif" font-size="10px" fill="#000" opacity="1">35</text></g><g class="mark-rule role-axis-domain" pointer-events="none"><line transform="translate(0,407)" x2="0" y2="-407" stroke="#888" stroke-width="1" opacity="1"/></g><g class="mark-text role-axis-title" pointer-events="none"><text text-anchor="middle" transform="translate(-23,203.5) rotate(-90) translate(0,-2)" font-family="sans-serif" font-size="11px" font-weight="bold" fill="#000" opacity="1">Throughput (kb/ms)</text></g></g><path class="foreground" aria-hidden="true" d="" pointer-events="none" display="none"/></g></g><g class="mark-group role-scope layer_0_layer_0_layer_0_pathgroup" role="graphics-object" aria-roledescription="group mark container"><g transform="translate(0,0)"><path class="background" aria-hidden="true" d="M0,0h591v407h-591Z"/><g><g class="mark-line role-mark layer_0_layer_0_layer_0_marks" role="graphics-object" aria-roledescription="line mark container"><path aria-label="Compression ratio: 1.34; Throughput (kb/ms): 32.598; new-type: ristretto19-chromium" role="graphics-symbol" aria-roledescription="line mark" d="M0,27.931828571428593L73.87500000000021,39.97902857142858L73.87500000000021,41.60702857142862L73.87500000000021,61.9802857142857L73.87500000000021,80.86508571428574L443.2499999999996,168.12588571428574L443.2499999999996,169.21897142857142L443.2499999999996,168.38171428571422L443.2499999999996,168.91662857142856" stroke="#4c78a8" stroke-width="2"/></g></g><path class="foreground" aria-hidden="true" d="" display="none"/></g><g transform="translate(0,0)"><path class="background" aria-hidden="true" d="M0,0h591v407h-591Z"/><g><g class="mark-line role-mark layer_0_layer_0_layer_0_marks" role="graphics-object" aria-roledescription="line mark container"><path aria-label="Compression ratio: 1.34; Throughput (kb/ms): 34.932; new-type: ristretto19-cloudflare" role="graphics-symbol" aria-roledescription="line mark" d="M0,0.790742857142854L73.87500000000021,13.372857142857033L73.87500000000021,13.931028571428554L73.87500000000021,33.118171428571415L73.87500000000021,55.07291428571429L73.87500000000021,54.88685714285716L73.87500000000021,55.58457142857143L73.87500000000021,56.67765714285714L73.87500000000021,55.70085714285712" stroke="#f58518" stroke-width="2"/></g></g><path class="foreground" aria-hidden="true" d="" display="none"/></g><g transform="translate(0,0)"><path class="background" aria-hidden="true" d="M0,0h591v407h-591Z"/><g><g class="mark-line role-mark layer_0_layer_0_layer_0_marks" role="graphics-object" aria-roledescription="line mark container"><path aria-label="Compression ratio: 1.39; Throughput (kb/ms): 21.736; new-type: ristretto19-madler" role="graphics-symbol" aria-roledescription="line mark" d="M369.37499999999943,154.24137142857145L443.2499999999996,19.210400000000007L443.2499999999996,198.91834285714285L443.2499999999996,208.03514285714286L443.2499999999996,207.96537142857144L443.2499999999996,208.2677142857143L443.2499999999996,208.0118857142857L517.1249999999998,51.6541142857143L591,101.72674285714285" stroke="#e45756" stroke-width="2"/></g></g><path class="foreground" aria-hidden="true" d="" display="none"/></g><g transform="translate(0,0)"><path class="background" aria-hidden="true" d="M0,0h591v407h-591Z"/><g><g class="mark-line role-mark layer_0_layer_0_layer_0_marks" role="graphics-object" aria-roledescription="line mark container"><path aria-label="Compression ratio: 1.39; Throughput (kb/ms): 21.976; new-type: ristretto19-system" role="graphics-symbol" aria-roledescription="line mark" d="M369.37499999999943,151.45051428571423L443.2499999999996,13.047257142857159L443.2499999999996,199.17417142857144L443.2499999999996,207.50022857142852L443.2499999999996,207.5234857142857L443.2499999999996,207.57L443.2499999999996,207.38394285714284L517.1249999999998,47.04920000000001L591,98.51725714285715" stroke="#72b7b2" stroke-width="2"/></g></g><path class="foreground" aria-hidden="true" d="" display="none"/></g></g><g class="mark-symbol role-mark layer_0_layer_0_layer_1_marks" role="graphics-object" aria-roledescription="symbol mark container"><path aria-label="Compression ratio: 1.34; Throughput (kb/ms): 32.598; new-type: ristretto19-chromium" role="graphics-symbol" aria-roledescription="point" transform="translate(0,27.931828571428593)" d="M2.7386127875258306,0A2.7386127875258306,2.7386127875258306,0,1,1,-2.7386127875258306,0A2.7386127875258306,2.7386127875258306,0,1,1,2.7386127875258306,0" fill="#4c78a8" stroke-width="2" opacity="1"/><path aria-label="Compression ratio: 1.35; Throughput (kb/ms): 31.562; new-type: ristretto19-chromium" role="graphics-symbol" aria-roledescription="point" transform="translate(73.87500000000021,39.97902857142858)" d="M2.7386127875258306,0A2.7386127875258306,2.7386127875258306,0,1,1,-2.7386127875258306,0A2.7386127875258306,2.7386127875258306,0,1,1,2.7386127875258306,0" fill="#4c78a8" stroke-width="2" opacity="1"/><path aria-label="Compression ratio: 1.35; Throughput (kb/ms): 31.422; new-type: ristretto19-chromium" role="graphics-symbol" aria-roledescription="point" transform="translate(73.87500000000021,41.60702857142862)" d="M2.7386127875258306,0A2.7386127875258306,2.7386127875258306,0,1,1,-2.7386127875258306,0A2.7386127875258306,2.7386127875258306,0,1,1,2.7386127875258306,0" fill="#4c78a8" stroke-width="2" opacity="1"/><path aria-label="Compression ratio: 1.35; Throughput (kb/ms): 29.67; new-type: ristretto19-chromium" role="graphics-symbol" aria-roledescription="point" transform="translate(73.87500000000021,61.9802857142857)" d="M2.7386127875258306,0A2.7386127875258306,2.7386127875258306,0,1,1,-2.7386127875258306,0A2.7386127875258306,2.7386127875258306,0,1,1,2.7386127875258306,0" fill="#4c78a8" stroke-width="2" opacity="1"/><path aria-label="Compression ratio: 1.35; Throughput (kb/ms): 28.046; new-type: ristretto19-chromium" role="graphics-symbol" aria-roledescription="point" transform="translate(73.87500000000021,80.86508571428574)" d="M2.7386127875258306,0A2.7386127875258306,2.7386127875258306,0,1,1,-2.7386127875258306,0A2.7386127875258306,2.7386127875258306,0,1,1,2.7386127875258306,0" fill="#4c78a8" stroke-width="2" opacity="1"/><path aria-label="Compression ratio: 1.4; Throughput (kb/ms): 20.542; new-type: ristretto19-chromium" role="graphics-symbol" aria-roledescription="point" transform="translate(443.2499999999996,168.12588571428574)" d="M2.7386127875258306,0A2.7386127875258306,2.7386127875258306,0,1,1,-2.7386127875258306,0A2.7386127875258306,2.7386127875258306,0,1,1,2.7386127875258306,0" fill="#4c78a8" stroke-width="2" opacity="1"/><path aria-label="Compression ratio: 1.4; Throughput (kb/ms): 20.448; new-type: ristretto19-chromium" role="graphics-symbol" aria-roledescription="point" transform="translate(443.2499999999996,169.21897142857142)" d="M2.7386127875258306,0A2.7386127875258306,2.7386127875258306,0,1,1,-2.7386127875258306,0A2.7386127875258306,2.7386127875258306,0,1,1,2.7386127875258306,0" fill="#4c78a8" stroke-width="2" opacity="1"/><path aria-label="Compression ratio: 1.4; Throughput (kb/ms): 20.52; new-type: ristretto19-chromium" role="graphics-symbol" aria-roledescription="point" transform="translate(443.2499999999996,168.38171428571422)" d="M2.7386127875258306,0A2.7386127875258306,2.7386127875258306,0,1,1,-2.7386127875258306,0A2.7386127875258306,2.7386127875258306,0,1,1,2.7386127875258306,0" fill="#4c78a8" stroke-width="2" opacity="1"/><path aria-label="Compression ratio: 1.4; Throughput (kb/ms): 20.474; new-type: ristretto19-chromium" role="graphics-symbol" aria-roledescription="point" transform="translate(443.2499999999996,168.91662857142856)" d="M2.7386127875258306,0A2.7386127875258306,2.7386127875258306,0,1,1,-2.7386127875258306,0A2.7386127875258306,2.7386127875258306,0,1,1,2.7386127875258306,0" fill="#4c78a8" stroke-width="2" opacity="1"/><path aria-label="Compression ratio: 1.34; Throughput (kb/ms): 34.932; new-type: ristretto19-cloudflare" role="graphics-symbol" aria-roledescription="point" transform="translate(0,0.790742857142854)" d="M2.7386127875258306,0A2.7386127875258306,2.7386127875258306,0,1,1,-2.7386127875258306,0A2.7386127875258306,2.7386127875258306,0,1,1,2.7386127875258306,0" fill="#f58518" stroke-width="2" opacity="1"/><path aria-label="Compression ratio: 1.35; Throughput (kb/ms): 33.85; new-type: ristretto19-cloudflare" role="graphics-symbol" aria-roledescription="point" transform="translate(73.87500000000021,13.372857142857033)" d="M2.7386127875258306,0A2.7386127875258306,2.7386127875258306,0,1,1,-2.7386127875258306,0A2.7386127875258306,2.7386127875258306,0,1,1,2.7386127875258306,0" fill="#f58518" stroke-width="2" opacity="1"/><path aria-label="Compression ratio: 1.35; Throughput (kb/ms): 33.802; new-type: ristretto19-cloudflare" role="graphics-symbol" aria-roledescription="point" transform="translate(73.87500000000021,13.931028571428554)" d="M2.7386127875258306,0A2.7386127875258306,2.7386127875258306,0,1,1,-2.7386127875258306,0A2.7386127875258306,2.7386127875258306,0,1,1,2.7386127875258306,0" fill="#f58518" stroke-width="2" opacity="1"/><path aria-label="Compression ratio: 1.35; Throughput (kb/ms): 32.152; new-type: ristretto19-cloudflare" role="graphics-symbol" aria-roledescription="point" transform="translate(73.87500000000021,33.118171428571415)" d="M2.7386127875258306,0A2.7386127875258306,2.7386127875258306,0,1,1,-2.7386127875258306,0A2.7386127875258306,2.7386127875258306,0,1,1,2.7386127875258306,0" fill="#f58518" stroke-width="2" opacity="1"/><path aria-label="Compression ratio: 1.35; Throughput (kb/ms): 30.264; new-type: ristretto19-cloudflare" role="graphics-symbol" aria-roledescription="point" transform="translate(73.87500000000021,55.07291428571429)" d="M2.7386127875258306,0A2.7386127875258306,2.7386127875258306,0,1,1,-2.7386127875258306,0A2.7386127875258306,2.7386127875258306,0,1,1,2.7386127875258306,0" fill="#f58518" stroke-width="2" opacity="1"/><path aria-label="Compression ratio: 1.35; Throughput (kb/ms): 30.28; new-type: ristretto19-cloudflare" role="graphics-symbol" aria-roledescription="point" transform="translate(73.87500000000021,54.88685714285716)" d="M2.7386127875258306,0A2.7386127875258306,2.7386127875258306,0,1,1,-2.7386127875258306,0A2.7386127875258306,2.7386127875258306,0,1,1,2.7386127875258306,0" fill="#f58518" stroke-width="2" opacity="1"/><path aria-label="Compression ratio: 1.35; Throughput (kb/ms): 30.22; new-type: ristretto19-cloudflare" role="graphics-symbol" aria-roledescription="point" transform="translate(73.87500000000021,55.58457142857143)" d="M2.7386127875258306,0A2.7386127875258306,2.7386127875258306,0,1,1,-2.7386127875258306,0A2.7386127875258306,2.7386127875258306,0,1,1,2.7386127875258306,0" fill="#f58518" stroke-width="2" opacity="1"/><path aria-label="Compression ratio: 1.35; Throughput (kb/ms): 30.126; new-type: ristretto19-cloudflare" role="graphics-symbol" aria-roledescription="point" transform="translate(73.87500000000021,56.67765714285714)" d="M2.7386127875258306,0A2.7386127875258306,2.7386127875258306,0,1,1,-2.7386127875258306,0A2.7386127875258306,2.7386127875258306,0,1,1,2.7386127875258306,0" fill="#f58518" stroke-width="2" opacity="1"/><path aria-label="Compression ratio: 1.35; Throughput (kb/ms): 30.21; new-type: ristretto19-cloudflare" role="graphics-symbol" aria-roledescription="point" transform="translate(73.87500000000021,55.70085714285712)" d="M2.7386127875258306,0A2.7386127875258306,2.7386127875258306,0,1,1,-2.7386127875258306,0A2.7386127875258306,2.7386127875258306,0,1,1,2.7386127875258306,0" fill="#f58518" stroke-width="2" opacity="1"/><path aria-label="Compression ratio: 1.4; Throughput (kb/ms): 33.348; new-type: ristretto19-madler" role="graphics-symbol" aria-roledescription="point" transform="translate(443.2499999999996,19.210400000000007)" d="M2.7386127875258306,0A2.7386127875258306,2.7386127875258306,0,1,1,-2.7386127875258306,0A2.7386127875258306,2.7386127875258306,0,1,1,2.7386127875258306,0" fill="#e45756" stroke-width="2" opacity="1"/><path aria-label="Compression ratio: 1.41; Throughput (kb/ms): 30.558; new-type: ristretto19-madler" role="graphics-symbol" aria-roledescription="point" transform="translate(517.1249999999998,51.6541142857143)" d="M2.7386127875258306,0A2.7386127875258306,2.7386127875258306,0,1,1,-2.7386127875258306,0A2.7386127875258306,2.7386127875258306,0,1,1,2.7386127875258306,0" fill="#e45756" stroke-width="2" opacity="1"/><path aria-label="Compression ratio: 1.42; Throughput (kb/ms): 26.252; new-type: ristretto19-madler" role="graphics-symbol" aria-roledescription="point" transform="translate(591,101.72674285714285)" d="M2.7386127875258306,0A2.7386127875258306,2.7386127875258306,0,1,1,-2.7386127875258306,0A2.7386127875258306,2.7386127875258306,0,1,1,2.7386127875258306,0" fill="#e45756" stroke-width="2" opacity="1"/><path aria-label="Compression ratio: 1.39; Throughput (kb/ms): 21.736; new-type: ristretto19-madler" role="graphics-symbol" aria-roledescription="point" transform="translate(369.37499999999943,154.24137142857145)" d="M2.7386127875258306,0A2.7386127875258306,2.7386127875258306,0,1,1,-2.7386127875258306,0A2.7386127875258306,2.7386127875258306,0,1,1,2.7386127875258306,0" fill="#e45756" stroke-width="2" opacity="1"/><path aria-label="Compression ratio: 1.4; Throughput (kb/ms): 17.894; new-type: ristretto19-madler" role="graphics-symbol" aria-roledescription="point" transform="translate(443.2499999999996,198.91834285714285)" d="M2.7386127875258306,0A2.7386127875258306,2.7386127875258306,0,1,1,-2.7386127875258306,0A2.7386127875258306,2.7386127875258306,0,1,1,2.7386127875258306,0" fill="#e45756" stroke-width="2" opacity="1"/><path aria-label="Compression ratio: 1.4; Throughput (kb/ms): 17.11; new-type: ristretto19-madler" role="graphics-symbol" aria-roledescription="point" transform="translate(443.2499999999996,208.03514285714286)" d="M2.7386127875258306,0A2.7386127875258306,2.7386127875258306,0,1,1,-2.7386127875258306,0A2.7386127875258306,2.7386127875258306,0,1,1,2.7386127875258306,0" fill="#e45756" stroke-width="2" opacity="1"/><path aria-label="Compression ratio: 1.4; Throughput (kb/ms): 17.116; new-type: ristretto19-madler" role="graphics-symbol" aria-roledescription="point" transform="translate(443.2499999999996,207.96537142857144)" d="M2.7386127875258306,0A2.7386127875258306,2.7386127875258306,0,1,1,-2.7386127875258306,0A2.7386127875258306,2.7386127875258306,0,1,1,2.7386127875258306,0" fill="#e45756" stroke-width="2" opacity="1"/><path aria-label="Compression ratio: 1.4; Throughput (kb/ms): 17.09; new-type: ristretto19-madler" role="graphics-symbol" aria-roledescription="point" transform="translate(443.2499999999996,208.2677142857143)" d="M2.7386127875258306,0A2.7386127875258306,2.7386127875258306,0,1,1,-2.7386127875258306,0A2.7386127875258306,2.7386127875258306,0,1,1,2.7386127875258306,0" fill="#e45756" stroke-width="2" opacity="1"/><path aria-label="Compression ratio: 1.4; Throughput (kb/ms): 17.112; new-type: ristretto19-madler" role="graphics-symbol" aria-roledescription="point" transform="translate(443.2499999999996,208.0118857142857)" d="M2.7386127875258306,0A2.7386127875258306,2.7386127875258306,0,1,1,-2.7386127875258306,0A2.7386127875258306,2.7386127875258306,0,1,1,2.7386127875258306,0" fill="#e45756" stroke-width="2" opacity="1"/><path aria-label="Compression ratio: 1.4; Throughput (kb/ms): 33.878; new-type: ristretto19-system" role="graphics-symbol" aria-roledescription="point" transform="translate(443.2499999999996,13.047257142857159)" d="M2.7386127875258306,0A2.7386127875258306,2.7386127875258306,0,1,1,-2.7386127875258306,0A2.7386127875258306,2.7386127875258306,0,1,1,2.7386127875258306,0" fill="#72b7b2" stroke-width="2" opacity="1"/><path aria-label="Compression ratio: 1.41; Throughput (kb/ms): 30.954; new-type: ristretto19-system" role="graphics-symbol" aria-roledescription="point" transform="translate(517.1249999999998,47.04920000000001)" d="M2.7386127875258306,0A2.7386127875258306,2.7386127875258306,0,1,1,-2.7386127875258306,0A2.7386127875258306,2.7386127875258306,0,1,1,2.7386127875258306,0" fill="#72b7b2" stroke-width="2" opacity="1"/><path aria-label="Compression ratio: 1.42; Throughput (kb/ms): 26.528; new-type: ristretto19-system" role="graphics-symbol" aria-roledescription="point" transform="translate(591,98.51725714285715)" d="M2.7386127875258306,0A2.7386127875258306,2.7386127875258306,0,1,1,-2.7386127875258306,0A2.7386127875258306,2.7386127875258306,0,1,1,2.7386127875258306,0" fill="#72b7b2" stroke-width="2" opacity="1"/><path aria-label="Compression ratio: 1.39; Throughput (kb/ms): 21.976; new-type: ristretto19-system" role="graphics-symbol" aria-roledescription="point" transform="translate(369.37499999999943,151.45051428571423)" d="M2.7386127875258306,0A2.7386127875258306,2.7386127875258306,0,1,1,-2.7386127875258306,0A2.7386127875258306,2.7386127875258306,0,1,1,2.7386127875258306,0" fill="#72b7b2" stroke-width="2" opacity="1"/><path aria-label="Compression ratio: 1.4; Throughput (kb/ms): 17.872; new-type: ristretto19-system" role="graphics-symbol" aria-roledescription="point" transform="translate(443.2499999999996,199.17417142857144)" d="M2.7386127875258306,0A2.7386127875258306,2.7386127875258306,0,1,1,-2.7386127875258306,0A2.7386127875258306,2.7386127875258306,0,1,1,2.7386127875258306,0" fill="#72b7b2" stroke-width="2" opacity="1"/><path aria-label="Compression ratio: 1.4; Throughput (kb/ms): 17.156; new-type: ristretto19-system" role="graphics-symbol" aria-roledescription="point" transform="translate(443.2499999999996,207.50022857142852)" d="M2.7386127875258306,0A2.7386127875258306,2.7386127875258306,0,1,1,-2.7386127875258306,0A2.7386127875258306,2.7386127875258306,0,1,1,2.7386127875258306,0" fill="#72b7b2" stroke-width="2" opacity="1"/><path aria-label="Compression ratio: 1.4; Throughput (kb/ms): 17.154; new-type: ristretto19-system" role="graphics-symbol" aria-roledescription="point" transform="translate(443.2499999999996,207.5234857142857)" d="M2.7386127875258306,0A2.7386127875258306,2.7386127875258306,0,1,1,-2.7386127875258306,0A2.7386127875258306,2.7386127875258306,0,1,1,2.7386127875258306,0" fill="#72b7b2" stroke-width="2" opacity="1"/><path aria-label="Compression ratio: 1.4; Throughput (kb/ms): 17.15; new-type: ristretto19-system" role="graphics-symbol" aria-roledescription="point" transform="translate(443.2499999999996,207.57)" d="M2.7386127875258306,0A2.7386127875258306,2.7386127875258306,0,1,1,-2.7386127875258306,0A2.7386127875258306,2.7386127875258306,0,1,1,2.7386127875258306,0" fill="#72b7b2" stroke-width="2" opacity="1"/><path aria-label="Compression ratio: 1.4; Throughput (kb/ms): 17.166; new-type: ristretto19-system" role="graphics-symbol" aria-roledescription="point" transform="translate(443.2499999999996,207.38394285714284)" d="M2.7386127875258306,0A2.7386127875258306,2.7386127875258306,0,1,1,-2.7386127875258306,0A2.7386127875258306,2.7386127875258306,0,1,1,2.7386127875258306,0" fill="#72b7b2" stroke-width="2" opacity="1"/></g><g class="mark-text role-mark layer_0_layer_1_marks" role="graphics-object" aria-roledescription="text mark container"><text aria-label="Compression ratio: 1.34; Throughput (kb/ms): 32.598; new-type: ristretto19-chromium; level: 1" role="graphics-symbol" aria-roledescription="text mark" text-anchor="end" transform="translate(5,22.931828571428593)" font-family="sans-serif" font-size="11px" fill="#4c78a8">1</text><text aria-label="Compression ratio: 1.35; Throughput (kb/ms): 31.562; new-type: ristretto19-chromium; level: 2" role="graphics-symbol" aria-roledescription="text mark" text-anchor="end" transform="translate(78.87500000000021,34.97902857142858)" font-family="sans-serif" font-size="11px" fill="#4c78a8">2</text><text aria-label="Compression ratio: 1.35; Throughput (kb/ms): 31.422; new-type: ristretto19-chromium; level: 3" role="graphics-symbol" aria-roledescription="text mark" text-anchor="end" transform="translate(78.87500000000021,36.60702857142862)" font-family="sans-serif" font-size="11px" fill="#4c78a8">3</text><text aria-label="Compression ratio: 1.35; Throughput (kb/ms): 29.67; new-type: ristretto19-chromium; level: 4" role="graphics-symbol" aria-roledescription="text mark" text-anchor="end" transform="translate(78.87500000000021,56.9802857142857)" font-family="sans-serif" font-size="11px" fill="#4c78a8">4</text><text aria-label="Compression ratio: 1.35; Throughput (kb/ms): 28.046; new-type: ristretto19-chromium; level: 5" role="graphics-symbol" aria-roledescription="text mark" text-anchor="end" transform="translate(78.87500000000021,75.86508571428574)" font-family="sans-serif" font-size="11px" fill="#4c78a8">5</text><text aria-label="Compression ratio: 1.4; Throughput (kb/ms): 20.542; new-type: ristretto19-chromium; level: 6" role="graphics-symbol" aria-roledescription="text mark" text-anchor="end" transform="translate(448.2499999999996,163.12588571428574)" font-family="sans-serif" font-size="11px" fill="#4c78a8">6</text><text aria-label="Compression ratio: 1.4; Throughput (kb/ms): 20.448; new-type: ristretto19-chromium; level: 7" role="graphics-symbol" aria-roledescription="text mark" text-anchor="end" transform="translate(448.2499999999996,164.21897142857142)" font-family="sans-serif" font-size="11px" fill="#4c78a8">7</text><text aria-label="Compression ratio: 1.4; Throughput (kb/ms): 20.52; new-type: ristretto19-chromium; level: 8" role="graphics-symbol" aria-roledescription="text mark" text-anchor="end" transform="translate(448.2499999999996,163.38171428571422)" font-family="sans-serif" font-size="11px" fill="#4c78a8">8</text><text aria-label="Compression ratio: 1.4; Throughput (kb/ms): 20.474; new-type: ristretto19-chromium; level: 9" role="graphics-symbol" aria-roledescription="text mark" text-anchor="end" transform="translate(448.2499999999996,163.91662857142856)" font-family="sans-serif" font-size="11px" fill="#4c78a8">9</text><text aria-label="Compression ratio: 1.34; Throughput (kb/ms): 34.932; new-type: ristretto19-cloudflare; level: 1" role="graphics-symbol" aria-roledescription="text mark" text-anchor="end" transform="translate(5,-4.209257142857146)" font-family="sans-serif" font-size="11px" fill="#f58518">1</text><text aria-label="Compression ratio: 1.35; Throughput (kb/ms): 33.85; new-type: ristretto19-cloudflare; level: 2" role="graphics-symbol" aria-roledescription="text mark" text-anchor="end" transform="translate(78.87500000000021,8.372857142857033)" font-family="sans-serif" font-size="11px" fill="#f58518">2</text><text aria-label="Compression ratio: 1.35; Throughput (kb/ms): 33.802; new-type: ristretto19-cloudflare; level: 3" role="graphics-symbol" aria-roledescription="text mark" text-anchor="end" transform="translate(78.87500000000021,8.931028571428554)" font-family="sans-serif" font-size="11px" fill="#f58518">3</text><text aria-label="Compression ratio: 1.35; Throughput (kb/ms): 32.152; new-type: ristretto19-cloudflare; level: 4" role="graphics-symbol" aria-roledescription="text mark" text-anchor="end" transform="translate(78.87500000000021,28.118171428571415)" font-family="sans-serif" font-size="11px" fill="#f58518">4</text><text aria-label="Compression ratio: 1.35; Throughput (kb/ms): 30.264; new-type: ristretto19-cloudflare; level: 5" role="graphics-symbol" aria-roledescription="text mark" text-anchor="end" transform="translate(78.87500000000021,50.07291428571429)" font-family="sans-serif" font-size="11px" fill="#f58518">5</text><text aria-label="Compression ratio: 1.35; Throughput (kb/ms): 30.28; new-type: ristretto19-cloudflare; level: 6" role="graphics-symbol" aria-roledescription="text mark" text-anchor="end" transform="translate(78.87500000000021,49.88685714285716)" font-family="sans-serif" font-size="11px" fill="#f58518">6</text><text aria-label="Compression ratio: 1.35; Throughput (kb/ms): 30.22; new-type: ristretto19-cloudflare; level: 7" role="graphics-symbol" aria-roledescription="text mark" text-anchor="end" transform="translate(78.87500000000021,50.58457142857143)" font-family="sans-serif" font-size="11px" fill="#f58518">7</text><text aria-label="Compression ratio: 1.35; Throughput (kb/ms): 30.126; new-type: ristretto19-cloudflare; level: 8" role="graphics-symbol" aria-roledescription="text mark" text-anchor="end" transform="translate(78.87500000000021,51.67765714285714)" font-family="sans-serif" font-size="11px" fill="#f58518">8</text><text aria-label="Compression ratio: 1.35; Throughput (kb/ms): 30.21; new-type: ristretto19-cloudflare; level: 9" role="graphics-symbol" aria-roledescription="text mark" text-anchor="end" transform="translate(78.87500000000021,50.70085714285712)" font-family="sans-serif" font-size="11px" fill="#f58518">9</text><text aria-label="Compression ratio: 1.4; Throughput (kb/ms): 33.348; new-type: ristretto19-madler; level: 1" role="graphics-symbol" aria-roledescription="text mark" text-anchor="end" transform="translate(448.2499999999996,14.210400000000007)" font-family="sans-serif" font-size="11px" fill="#e45756">1</text><text aria-label="Compression ratio: 1.41; Throughput (kb/ms): 30.558; new-type: ristretto19-madler; level: 2" role="graphics-symbol" aria-roledescription="text mark" text-anchor="end" transform="translate(522.1249999999998,46.6541142857143)" font-family="sans-serif" font-size="11px" fill="#e45756">2</text><text aria-label="Compression ratio: 1.42; Throughput (kb/ms): 26.252; new-type: ristretto19-madler; level: 3" role="graphics-symbol" aria-roledescription="text mark" text-anchor="end" transform="translate(596,96.72674285714285)" font-family="sans-serif" font-size="11px" fill="#e45756">3</text><text aria-label="Compression ratio: 1.39; Throughput (kb/ms): 21.736; new-type: ristretto19-madler; level: 4" role="graphics-symbol" aria-roledescription="text mark" text-anchor="end" transform="translate(374.37499999999943,149.24137142857145)" font-family="sans-serif" font-size="11px" fill="#e45756">4</text><text aria-label="Compression ratio: 1.4; Throughput (kb/ms): 17.894; new-type: ristretto19-madler; level: 5" role="graphics-symbol" aria-roledescription="text mark" text-anchor="end" transform="translate(448.2499999999996,193.91834285714285)" font-family="sans-serif" font-size="11px" fill="#e45756">5</text><text aria-label="Compression ratio: 1.4; Throughput (kb/ms): 17.11; new-type: ristretto19-madler; level: 6" role="graphics-symbol" aria-roledescription="text mark" text-anchor="end" transform="translate(448.2499999999996,203.03514285714286)" font-family="sans-serif" font-size="11px" fill="#e45756">6</text><text aria-label="Compression ratio: 1.4; Throughput (kb/ms): 17.116; new-type: ristretto19-madler; level: 7" role="graphics-symbol" aria-roledescription="text mark" text-anchor="end" transform="translate(448.2499999999996,202.96537142857144)" font-family="sans-serif" font-size="11px" fill="#e45756">7</text><text aria-label="Compression ratio: 1.4; Throughput (kb/ms): 17.09; new-type: ristretto19-madler; level: 8" role="graphics-symbol" aria-roledescription="text mark" text-anchor="end" transform="translate(448.2499999999996,203.2677142857143)" font-family="sans-serif" font-size="11px" fill="#e45756">8</text><text aria-label="Compression ratio: 1.4; Throughput (kb/ms): 17.112; new-type: ristretto19-madler; level: 9" role="graphics-symbol" aria-roledescription="text mark" text-anchor="end" transform="translate(448.2499999999996,203.0118857142857)" font-family="sans-serif" font-size="11px" fill="#e45756">9</text><text aria-label="Compression ratio: 1.4; Throughput (kb/ms): 33.878; new-type: ristretto19-system; level: 1" role="graphics-symbol" aria-roledescription="text mark" text-anchor="end" transform="translate(448.2499999999996,8.047257142857159)" font-family="sans-serif" font-size="11px" fill="#72b7b2">1</text><text aria-label="Compression ratio: 1.41; Throughput (kb/ms): 30.954; new-type: ristretto19-system; level: 2" role="graphics-symbol" aria-roledescription="text mark" text-anchor="end" transform="translate(522.1249999999998,42.04920000000001)" font-family="sans-serif" font-size="11px" fill="#72b7b2">2</text><text aria-label="Compression ratio: 1.42; Throughput (kb/ms): 26.528; new-type: ristretto19-system; level: 3" role="graphics-symbol" aria-roledescription="text mark" text-anchor="end" transform="translate(596,93.51725714285715)" font-family="sans-serif" font-size="11px" fill="#72b7b2">3</text><text aria-label="Compression ratio: 1.39; Throughput (kb/ms): 21.976; new-type: ristretto19-system; level: 4" role="graphics-symbol" aria-roledescription="text mark" text-anchor="end" transform="translate(374.37499999999943,146.45051428571423)" font-family="sans-serif" font-size="11px" fill="#72b7b2">4</text><text aria-label="Compression ratio: 1.4; Throughput (kb/ms): 17.872; new-type: ristretto19-system; level: 5" role="graphics-symbol" aria-roledescription="text mark" text-anchor="end" transform="translate(448.2499999999996,194.17417142857144)" font-family="sans-serif" font-size="11px" fill="#72b7b2">5</text><text aria-label="Compression ratio: 1.4; Throughput (kb/ms): 17.156; new-type: ristretto19-system; level: 6" role="graphics-symbol" aria-roledescription="text mark" text-anchor="end" transform="translate(448.2499999999996,202.50022857142852)" font-family="sans-serif" font-size="11px" fill="#72b7b2">6</text><text aria-label="Compression ratio: 1.4; Throughput (kb/ms): 17.154; new-type: ristretto19-system; level: 7" role="graphics-symbol" aria-roledescription="text mark" text-anchor="end" transform="translate(448.2499999999996,202.5234857142857)" font-family="sans-serif" font-size="11px" fill="#72b7b2">7</text><text aria-label="Compression ratio: 1.4; Throughput (kb/ms): 17.15; new-type: ristretto19-system; level: 8" role="graphics-symbol" aria-roledescription="text mark" text-anchor="end" transform="translate(448.2499999999996,202.57)" font-family="sans-serif" font-size="11px" fill="#72b7b2">8</text><text aria-label="Compression ratio: 1.4; Throughput (kb/ms): 17.166; new-type: ristretto19-system; level: 9" role="graphics-symbol" aria-roledescription="text mark" text-anchor="end" transform="translate(448.2499999999996,202.38394285714284)" font-family="sans-serif" font-size="11px" fill="#72b7b2">9</text></g><g class="mark-group role-title"><g transform="translate(295.5,-30.209257142857147)"><path class="background" aria-hidden="true" d="M0,0h0v0h0Z" pointer-events="none"/><g><g class="mark-text role-title-text" role="graphics-symbol" aria-roledescription="title" aria-label="Title text 'Deflater throughput/ratio per level for 'silesia/x-ray' on Xeon E5-2686 v4 / 1900MHz'" pointer-events="none"><text text-anchor="middle" transform="translate(0,10)" font-family="sans-serif" font-size="13px" font-weight="bold" fill="#000" opacity="1">Deflater throughput/ratio per level for 'silesia/x-ray' on Xeon E5-2686 v4 / 1900MHz</text></g></g><path class="foreground" aria-hidden="true" d="" pointer-events="none" display="none"/></g></g><g class="mark-group role-legend" role="graphics-symbol" aria-roledescription="legend" aria-label="Symbol legend for fill color and stroke color with 4 values: ristretto19-chromium, ristretto19-cloudflare, ristretto19-madler, ristretto19-system"><g transform="translate(457,0)"><path class="background" aria-hidden="true" d="M0.5,0.5h138v77h-138Z" pointer-events="none" fill="#ffffff" stroke="#000000"/><g><g class="mark-group role-legend-entry"><g transform="translate(8,8)"><path class="background" aria-hidden="true" d="M0,0h0v0h0Z" pointer-events="none"/><g><g class="mark-group role-scope" role="graphics-object" aria-roledescription="group mark container"><g transform="translate(0,0)"><path class="background" aria-hidden="true" d="M0,0h122v12.5h-122Z" pointer-events="none" opacity="1"/><g><g class="mark-symbol role-legend-symbol" pointer-events="none"><path transform="translate(6,6)" d="M5,0A5,5,0,1,1,-5,0A5,5,0,1,1,5,0" fill="#4c78a8" stroke="#4c78a8" stroke-width="1.5" opacity="1"/></g><g class="mark-text role-legend-label" pointer-events="none"><text text-anchor="start" transform="translate(16,9)" font-family="sans-serif" font-size="10px" fill="#000" opacity="1">ristretto19-chromium</text></g></g><path class="foreground" aria-hidden="true" d="" pointer-events="none" display="none"/></g><g transform="translate(0,16)"><path class="background" aria-hidden="true" d="M0,0h122v12.5h-122Z" pointer-events="none" opacity="1"/><g><g class="mark-symbol role-legend-symbol" pointer-events="none"><path transform="translate(6,6)" d="M5,0A5,5,0,1,1,-5,0A5,5,0,1,1,5,0" fill="#f58518" stroke="#f58518" stroke-width="1.5" opacity="1"/></g><g class="mark-text role-legend-label" pointer-events="none"><text text-anchor="start" transform="translate(16,9)" font-family="sans-serif" font-size="10px" fill="#000" opacity="1">ristretto19-cloudflare</text></g></g><path class="foreground" aria-hidden="true" d="" pointer-events="none" display="none"/></g><g transform="translate(0,32)"><path class="background" aria-hidden="true" d="M0,0h122v12.5h-122Z" pointer-events="none" opacity="1"/><g><g class="mark-symbol role-legend-symbol" pointer-events="none"><path transform="translate(6,6)" d="M5,0A5,5,0,1,1,-5,0A5,5,0,1,1,5,0" fill="#e45756" stroke="#e45756" stroke-width="1.5" opacity="1"/></g><g class="mark-text role-legend-label" pointer-events="none"><text text-anchor="start" transform="translate(16,9)" font-family="sans-serif" font-size="10px" fill="#000" opacity="1">ristretto19-madler</text></g></g><path class="foreground" aria-hidden="true" d="" pointer-events="none" display="none"/></g><g transform="translate(0,48)"><path class="background" aria-hidden="true" d="M0,0h122v12.5h-122Z" pointer-events="none" opacity="1"/><g><g class="mark-symbol role-legend-symbol" pointer-events="none"><path transform="translate(6,6)" d="M5,0A5,5,0,1,1,-5,0A5,5,0,1,1,5,0" fill="#72b7b2" stroke="#72b7b2" stroke-width="1.5" opacity="1"/></g><g class="mark-text role-legend-label" pointer-events="none"><text text-anchor="start" transform="translate(16,9)" font-family="sans-serif" font-size="10px" fill="#000" opacity="1">ristretto19-system</text></g></g><path class="foreground" aria-hidden="true" d="" pointer-events="none" display="none"/></g></g></g><path class="foreground" aria-hidden="true" d="" pointer-events="none" display="none"/></g></g></g><path class="foreground" aria-hidden="true" d="" pointer-events="none" display="none"/></g></g></g><path class="foreground" aria-hidden="true" d="" display="none"/></g></g></g></svg>