<svg xmlns="http://www.w3.org/2000/svg" xmlns:xlink="http://www.w3.org/1999/xlink" version="1.1" class="marks" width="1280" height="960" viewBox="0 0 640 480"><rect width="640" height="480" fill="white"/><g fill="none" stroke-miterlimit="10" transform="translate(39,27)"><g class="mark-group role-frame root" role="graphics-object" aria-roledescription="group mark container"><g transform="translate(0,0)"><path class="background" aria-hidden="true" d="M0.5,0.5h591v416h-591Z" stroke="#ddd"/><g><g class="mark-group role-axis" aria-hidden="true"><g transform="translate(0.5,416.5)"><path class="background" aria-hidden="true" d="M0,0h0v0h0Z" pointer-events="none"/><g><g class="mark-rule role-axis-grid" pointer-events="none"><line transform="translate(0,-416)" x2="0" y2="416" stroke="#ddd" stroke-width="1" opacity="1"/><line transform="translate(26,-416)" x2="0" y2="416" stroke="#ddd" stroke-width="1" opacity="1"/><line transform="translate(53,-416)" x2="0" y2="416" stroke="#ddd" stroke-width="1" opacity="1"/><line transform="translate(79,-416)" x2="0" y2="416" stroke="#ddd" stroke-width="1" opacity="1"/><line transform="translate(105,-416)" x2="0" y2="416" stroke="#ddd" stroke-width="1" opacity="1"/><line transform="translate(131,-416)" x2="0" y2="416" stroke="#ddd" stroke-width="1" opacity="1"/><line transform="translate(158,-416)" x2="0" y2="416" stroke="#ddd" stroke-width="1" opacity="1"/><line transform="translate(184,-416)" x2="0" y2="416" stroke="#ddd" stroke-width="1" opacity="1"/><line transform="translate(210,-416)" x2="0" y2="416" stroke="#ddd" stroke-width="1" opacity="1"/><line transform="translate(236,-416)" x2="0" y2="416" stroke="#ddd" stroke-width="1" opacity="1"/><line transform="translate(263,-416)" x2="0" y2="416" stroke="#ddd" stroke-width="1" opacity="1"/><line transform="translate(289,-416)" x2="0" y2="416" stroke="#ddd" stroke-width="1" opacity="1"/><line transform="translate(315,-416)" x2="0" y2="416" stroke="#ddd" stroke-width="1" opacity="1"/><line transform="translate(341,-416)" x2="0" y2="416" stroke="#ddd" stroke-width="1" opacity="1"/><line transform="translate(368,-416)" x2="0" y2="416" stroke="#ddd" stroke-width="1" opacity="1"/><line transform="translate(394,-416)" x2="0" y2="416" stroke="#ddd" stroke-width="1" opacity="1"/><line transform="translate(420,-416)" x2="0" y2="416" stroke="#ddd" stroke-width="1" opacity="1"/><line transform="translate(447,-416)" x2="0" y2="416" stroke="#ddd" stroke-width="1" opacity="1"/><line transform="translate(473,-416)" x2="0" y2="416" stroke="#ddd" stroke-width="1" opacity="1"/><line transform="translate(499,-416)" x2="0" y2="416" stroke="#ddd" stroke-width="1" opacity="1"/><line transform="translate(525,-416)" x2="0" y2="416" stroke="#ddd" stroke-width="1" opacity="1"/><line transform="translate(552,-416)" x2="0" y2="416" stroke="#ddd" stroke-width="1" opacity="1"/><line transform="translate(578,-416)" x2="0" y2="416" stroke="#ddd" stroke-width="1" opacity="1"/></g></g><path class="foreground" aria-hidden="true" d="" pointer-events="none" display="none"/></g></g><g class="mark-group role-axis" aria-hidden="true"><g transform="translate(0.5,0.5)"><path class="background" aria-hidden="true" d="M0,0h0v0h0Z" pointer-events="none"/><g><g class="mark-rule role-axis-grid" pointer-events="none"><line transform="translate(0,416)" x2="591" y2="0" stroke="#ddd" stroke-width="1" opacity="1"/><line transform="translate(0,386)" x2="591" y2="0" stroke="#ddd" stroke-width="1" opacity="1"/><line transform="translate(0,357)" x2="591" y2="0" stroke="#ddd" stroke-width="1" opacity="1"/><line transform="translate(0,327)" x2="591" y2="0" stroke="#ddd" stroke-width="1" opacity="1"/><line transform="translate(0,297)" x2="591" y2="0" stroke="#ddd" stroke-width="1" opacity="1"/><line transform="translate(0,267)" x2="591" y2="0" stroke="#ddd" stroke-width="1" opacity="1"/><line transform="translate(0,238)" x2="591" y2="0" stroke="#ddd" stroke-width="1" opacity="1"/><line transform="translate(0,208)" x2="591" y2="0" stroke="#ddd" stroke-width="1" opacity="1"/><line transform="translate(0,178)" x2="591" y2="0" stroke="#ddd" stroke-width="1" opacity="1"/><line transform="translate(0,149)" x2="591" y2="0" stroke="#ddd" stroke-width="1" opacity="1"/><line transform="translate(0,119)" x2="591" y2="0" stroke="#ddd" stroke-width="1" opacity="1"/><line transform="translate(0,89)" x2="591" y2="0" stroke="#ddd" stroke-width="1" opacity="1"/><line transform="translate(0,59)" x2="591" y2="0" stroke="#ddd" stroke-width="1" opacity="1"/><line transform="translate(0,30)" x2="591" y2="0" stroke="#ddd" stroke-width="1" opacity="1"/><line transform="translate(0,0)" x2="591" y2="0" stroke="#ddd" stroke-width="1" opacity="1"/></g></g><path class="foreground" aria-hidden="true" d="" pointer-events="none" display="none"/></g></g><g class="mark-group role-axis" role="graphics-symbol" aria-roledescription="axis" aria-label="X-axis titled 'Compression ratio' for a linear scale with values from 2.2 to 2.6"><g transform="translate(0.5,416.5)"><path class="background" aria-hidden="true" d="M0,0h0v0h0Z" pointer-events="none"/><g><g class="mark-rule role-axis-tick" pointer-events="none"><line transform="translate(0,0)" x2="0" y2="5" stroke="#888" stroke-width="1" opacity="1"/><line transform="translate(26,0)" x2="0" y2="5" stroke="#888" stroke-width="1" opacity="1"/><line transform="translate(53,0)" x2="0" y2="5" stroke="#888" stroke-width="1" opacity="1"/><line transform="translate(79,0)" x2="0" y2="5" stroke="#888" stroke-width="1" opacity="1"/><line transform="translate(105,0)" x2="0" y2="5" stroke="#888" stroke-width="1" opacity="1"/><line transform="translate(131,0)" x2="0" y2="5" stroke="#888" stroke-width="1" opacity="1"/><line transform="translate(158,0)" x2="0" y2="5" stroke="#888" stroke-width="1" opacity="1"/><line transform="translate(184,0)" x2="0" y2="5" stroke="#888" stroke-width="1" opacity="1"/><line transform="translate(210,0)" x2="0" y2="5" stroke="#888" stroke-width="1" opacity="1"/><line transform="translate(236,0)" x2="0" y2="5" stroke="#888" stroke-width="1" opacity="1"/><line transform="translate(263,0)" x2="0" y2="5" stroke="#888" stroke-width="1" opacity="1"/><line transform="translate(289,0)" x2="0" y2="5" stroke="#888" stroke-width="1" opacity="1"/><line transform="translate(315,0)" x2="0" y2="5" stroke="#888" stroke-width="1" opacity="1"/><line transform="translate(341,0)" x2="0" y2="5" stroke="#888" stroke-width="1" opacity="1"/><line transform="translate(368,0)" x2="0" y2="5" stroke="#888" stroke-width="1" opacity="1"/><line transform="translate(394,0)" x2="0" y2="5" stroke="#888" stroke-width="1" opacity="1"/><line transform="translate(420,0)" x2="0" y2="5" stroke="#888" stroke-width="1" opacity="1"/><line transform="translate(447,0)" x2="0" y2="5" stroke="#888" stroke-width="1" opacity="1"/><line transform="translate(473,0)" x2="0" y2="5" stroke="#888" stroke-width="1" opacity="1"/><line transform="translate(499,0)" x2="0" y2="5" stroke="#888" stroke-width="1" opacity="1"/><line transform="translate(525,0)" x2="0" y2="5" stroke="#888" stroke-width="1" opacity="1"/><line transform="translate(552,0)" x2="0" y2="5" stroke="#888" stroke-width="1" opacity="1"/><line transform="translate(578,0)" x2="0" y2="5" stroke="#888" stroke-width="1" opacity="1"/></g><g class="mark-text role-axis-label" pointer-events="none"><text text-anchor="start" transform="translate(0,15)" font-family="sans-serif" font-size="10px" fill="#000" opacity="1">2.20</text><text text-anchor="middle" transform="translate(26.266666666666705,15)" font-family="sans-serif" font-size="10px" fill="#000" opacity="0">2.22</text><text text-anchor="middle" transform="translate(52.53333333333341,15)" font-family="sans-serif" font-size="10px" fill="#000" opacity="1">2.24</text><text text-anchor="middle" transform="translate(78.79999999999954,15)" font-family="sans-serif" font-size="10px" fill="#000" opacity="0">2.26</text><text text-anchor="middle" transform="translate(105.06666666666625,15)" font-family="sans-serif" font-size="10px" fill="#000" opacity="1">2.28</text><text text-anchor="middle" transform="translate(131.33333333333294,15)" font-family="sans-serif" font-size="10px" fill="#000" opacity="0">2.30</text><text text-anchor="middle" transform="translate(157.59999999999962,15)" font-family="sans-serif" font-size="10px" fill="#000" opacity="1">2.32</text><text text-anchor="middle" transform="translate(183.86666666666633,15)" font-family="sans-serif" font-size="10px" fill="#000" opacity="0">2.34</text><text text-anchor="middle" transform="translate(210.13333333333304,15)" font-family="sans-serif" font-size="10px" fill="#000" opacity="1">2.36</text><text text-anchor="middle" transform="translate(236.39999999999975,15)" font-family="sans-serif" font-size="10px" fill="#000" opacity="0">2.38</text><text text-anchor="middle" transform="translate(262.6666666666665,15)" font-family="sans-serif" font-size="10px" fill="#000" opacity="1">2.40</text><text text-anchor="middle" transform="translate(288.93333333333317,15)" font-family="sans-serif" font-size="10px" fill="#000" opacity="0">2.42</text><text text-anchor="middle" transform="translate(315.1999999999999,15)" font-family="sans-serif" font-size="10px" fill="#000" opacity="1">2.44</text><text text-anchor="middle" transform="translate(341.4666666666666,15)" font-family="sans-serif" font-size="10px" fill="#000" opacity="0">2.46</text><text text-anchor="middle" transform="translate(367.7333333333333,15)" font-family="sans-serif" font-size="10px" fill="#000" opacity="1">2.48</text><text text-anchor="middle" transform="translate(394,15)" font-family="sans-serif" font-size="10px" fill="#000" opacity="0">2.50</text><text text-anchor="middle" transform="translate(420.2666666666667,15)" font-family="sans-serif" font-size="10px" fill="#000" opacity="1">2.52</text><text text-anchor="middle" transform="translate(446.53333333333336,15)" font-family="sans-serif" font-size="10px" fill="#000" opacity="0">2.54</text><text text-anchor="middle" transform="translate(472.80000000000007,15)" font-family="sans-serif" font-size="10px" fill="#000" opacity="1">2.56</text><text text-anchor="middle" transform="translate(499.0666666666668,15)" font-family="sans-serif" font-size="10px" fill="#000" opacity="0">2.58</text><text text-anchor="middle" transform="translate(525.3333333333335,15)" font-family="sans-serif" font-size="10px" fill="#000" opacity="1">2.60</text><text text-anchor="middle" transform="translate(551.6000000000003,15)" font-family="sans-serif" font-size="10px" fill="#000" opacity="0">2.62</text><text text-anchor="middle" transform="translate(577.8666666666669,15)" font-family="sans-serif" font-size="10px" fill="#000" opacity="1">2.64</text></g><g class="mark-rule role-axis-domain" pointer-events="none"><line transform="translate(0,0)" x2="591" y2="0" stroke="#888" stroke-width="1" opacity="1"/></g><g class="mark-text role-axis-title" pointer-events="none"><text text-anchor="middle" transform="translate(295.5,30)" font-family="sans-serif" font-size="11px" font-weight="bold" fill="#000" opacity="1">Compression ratio</text></g></g><path class="foreground" aria-hidden="true" d="" pointer-events="none" display="none"/></g></g><g class="mark-group role-axis" role="graphics-symbol" aria-roledescription="axis" aria-label="Y-axis titled 'Throughput (kb/ms)' for a linear scale with values from 0 to 70"><g transform="translate(0.5,0.5)"><path class="background" aria-hidden="true" d="M0,0h0v0h0Z" pointer-events="none"/><g><g class="mark-rule role-axis-tick" pointer-events="none"><line transform="translate(0,416)" x2="-5" y2="0" stroke="#888" stroke-width="1" opacity="1"/><line transform="translate(0,386)" x2="-5" y2="0" stroke="#888" stroke-width="1" opacity="1"/><line transform="translate(0,357)" x2="-5" y2="0" stroke="#888" stroke-width="1" opacity="1"/><line transform="translate(0,327)" x2="-5" y2="0" stroke="#888" stroke-width="1" opacity="1"/><line transform="translate(0,297)" x2="-5" y2="0" stroke="#888" stroke-width="1" opacity="1"/><line transform="translate(0,267)" x2="-5" y2="0" stroke="#888" stroke-width="1" opacity="1"/><line transform="translate(0,238)" x2="-5" y2="0" stroke="#888" stroke-width="1" opacity="1"/><line transform="translate(0,208)" x2="-5" y2="0" stroke="#888" stroke-width="1" opacity="1"/><line transform="translate(0,178)" x2="-5" y2="0" stroke="#888" stroke-width="1" opacity="1"/><line transform="translate(0,149)" x2="-5" y2="0" stroke="#888" stroke-width="1" opacity="1"/><line transform="translate(0,119)" x2="-5" y2="0" stroke="#888" stroke-width="1" opacity="1"/><line transform="translate(0,89)" x2="-5" y2="0" stroke="#888" stroke-width="1" opacity="1"/><line transform="translate(0,59)" x2="-5" y2="0" stroke="#888" stroke-width="1" opacity="1"/><line transform="translate(0,30)" x2="-5" y2="0" stroke="#888" stroke-width="1" opacity="1"/><line transform="translate(0,0)" x2="-5" y2="0" stroke="#888" stroke-width="1" opacity="1"/></g><g class="mark-text role-axis-label" pointer-events="none"><text text-anchor="end" transform="translate(-7,419)" font-family="sans-serif" font-size="10px" fill="#000" opacity="1">0</text><text text-anchor="end" transform="translate(-7,389.2857142857143)" font-family="sans-serif" font-size="10px" fill="#000" opacity="1">5</text><text text-anchor="end" transform="translate(-7,359.5714285714286)" font-family="sans-serif" font-size="10px" fill="#000" opacity="1">10</text><text text-anchor="end" transform="translate(-7,329.85714285714283)" font-family="sans-serif" font-size="10px" fill="#000" opacity="1">15</text><text text-anchor="end" transform="translate(-7,300.14285714285717)" font-family="sans-serif" font-size="10px" fill="#000" opacity="1">20</text><text text-anchor="end" transform="translate(-7,270.4285714285714)" font-family="sans-serif" font-size="10px" fill="#000" opacity="1">25</text><text text-anchor="end" transform="translate(-7,240.7142857142857)" font-family="sans-serif" font-size="10px" fill="#000" opacity="1">30</text><text text-anchor="end" transform="translate(-7,211)" font-family="sans-serif" font-size="10px" fill="#000" opacity="1">35</text><text text-anchor="end" transform="translate(-7,181.2857142857143)" font-family="sans-serif" font-size="10px" fill="#000" opacity="1">40</text><text text-anchor="end" transform="translate(-7,151.57142857142856)" font-family="sans-serif" font-size="10px" fill="#000" opacity="1">45</text><text text-anchor="end" transform="translate(-7,121.85714285714285)" font-family="sans-serif" font-size="10px" fill="#000" opacity="1">50</text><text text-anchor="end" transform="translate(-7,92.14285714285715)" font-family="sans-serif" font-size="10px" fill="#000" opacity="1">55</text><text text-anchor="end" transform="translate(-7,62.428571428571445)" font-family="sans-serif" font-size="10px" fill="#000" opacity="1">60</text><text text-anchor="end" transform="translate(-7,32.7142857142857)" font-family="sans-serif" font-size="10px" fill="#000" opacity="1">65</text><text text-anchor="end" transform="translate(-7,3)" font-family="sans-serif" font-size="10px" fill="#000" opacity="1">70</text></g><g class="mark-rule role-axis-domain" pointer-events="none"><line transform="translate(0,416)" x2="0" y2="-416" stroke="#888" stroke-width="1" opacity="1"/></g><g class="mark-text role-axis-title" pointer-events="none"><text text-anchor="middle" transform="translate(-23,208) rotate(-90) translate(0,-2)" font-family="sans-serif" font-size="11px" font-weight="bold" fill="#000" opacity="1">Throughput (kb/ms)</text></g></g><path class="foreground" aria-hidden="true" d="" pointer-events="none" display="none"/></g></g><g class="mark-group role-scope layer_0_layer_0_layer_0_pathgroup" role="graphics-object" aria-roledescription="group mark container"><g transform="translate(0,0)"><path class="background" aria-hidden="true" d="M0,0h591v416h-591Z"/><g><g class="mark-line role-mark layer_0_layer_0_layer_0_marks" role="graphics-object" aria-roledescription="line mark container"><path aria-label="Compression ratio: 2.34; Throughput (kb/ms): 59.912; new-type: ristretto19-chromium" role="graphics-symbol" aria-roledescription="line mark" d="M183.86666666666633,59.95154285714287L288.93333333333317,98.3780571428571L367.7333333333333,156.9152L472.80000000000007,172.74697142857144L564.7333333333333,249.23154285714287L564.7333333333333,336.2944L577.8666666666669,349.8441142857143L577.8666666666669,359.09119999999996L577.8666666666669,359.53097142857143" stroke="#4c78a8" stroke-width="2"/></g></g><path class="foreground" aria-hidden="true" d="" display="none"/></g><g transform="translate(0,0)"><path class="background" aria-hidden="true" d="M0,0h591v416h-591Z"/><g><g class="mark-line role-mark layer_0_layer_0_layer_0_marks" role="graphics-object" aria-roledescription="line mark container"><path aria-label="Compression ratio: 2.34; Throughput (kb/ms): 66.498; new-type: ristretto19-cloudflare" role="graphics-symbol" aria-roledescription="line mark" d="M183.86666666666633,20.811885714285665L288.93333333333317,57.28914285714284L367.7333333333333,127.75954285714283L472.80000000000007,137.39885714285714L564.7333333333333,230.10742857142858L591,271.69554285714287L591,285.51862857142856L591,292.99474285714285L591,293.00662857142856" stroke="#f58518" stroke-width="2"/></g></g><path class="foreground" aria-hidden="true" d="" display="none"/></g><g transform="translate(0,0)"><path class="background" aria-hidden="true" d="M0,0h591v416h-591Z"/><g><g class="mark-line role-mark layer_0_layer_0_layer_0_marks" role="graphics-object" aria-roledescription="line mark container"><path aria-label="Compression ratio: 2.22; Throughput (kb/ms): 49.808; new-type: ristretto19-madler" role="graphics-symbol" aria-roledescription="line mark" d="M26.266666666666705,119.99817142857142L157.59999999999962,161.85965714285715L302.06666666666683,242.59931428571429L380.86666666666696,235.12319999999997L499.0666666666668,307.2100571428571L564.7333333333333,346.2189714285714L577.8666666666669,356.9161142857143L577.8666666666669,365.36685714285716L577.8666666666669,365.34308571428573" stroke="#e45756" stroke-width="2"/></g></g><path class="foreground" aria-hidden="true" d="" display="none"/></g><g transform="translate(0,0)"><path class="background" aria-hidden="true" d="M0,0h591v416h-591Z"/><g><g class="mark-line role-mark layer_0_layer_0_layer_0_marks" role="graphics-object" aria-roledescription="line mark container"><path aria-label="Compression ratio: 2.22; Throughput (kb/ms): 49.426; new-type: ristretto19-system" role="graphics-symbol" aria-roledescription="line mark" d="M26.266666666666705,122.26834285714284L157.59999999999962,160.8137142857143L302.06666666666683,242.65874285714284L380.86666666666696,231.6050285714286L499.0666666666668,306.9485714285714L564.7333333333333,345.6128L577.8666666666669,356.9398857142857L577.8666666666669,365.0816L577.8666666666669,365.49760000000003" stroke="#72b7b2" stroke-width="2"/></g></g><path class="foreground" aria-hidden="true" d="" display="none"/></g></g><g class="mark-symbol role-mark layer_0_layer_0_layer_1_marks" role="graphics-object" aria-roledescription="symbol mark container"><path aria-label="Compression ratio: 2.34; Throughput (kb/ms): 59.912; new-type: ristretto19-chromium" role="graphics-symbol" aria-roledescription="point" transform="translate(183.86666666666633,59.95154285714287)" d="M2.7386127875258306,0A2.7386127875258306,2.7386127875258306,0,1,1,-2.7386127875258306,0A2.7386127875258306,2.7386127875258306,0,1,1,2.7386127875258306,0" fill="#4c78a8" stroke-width="2" opacity="1"/><path aria-label="Compression ratio: 2.42; Throughput (kb/ms): 53.446; new-type: ristretto19-chromium" role="graphics-symbol" aria-roledescription="point" transform="translate(288.93333333333317,98.3780571428571)" d="M2.7386127875258306,0A2.7386127875258306,2.7386127875258306,0,1,1,-2.7386127875258306,0A2.7386127875258306,2.7386127875258306,0,1,1,2.7386127875258306,0" fill="#4c78a8" stroke-width="2" opacity="1"/><path aria-label="Compression ratio: 2.48; Throughput (kb/ms): 43.596; new-type: ristretto19-chromium" role="graphics-symbol" aria-roledescription="point" transform="translate(367.7333333333333,156.9152)" d="M2.7386127875258306,0A2.7386127875258306,2.7386127875258306,0,1,1,-2.7386127875258306,0A2.7386127875258306,2.7386127875258306,0,1,1,2.7386127875258306,0" fill="#4c78a8" stroke-width="2" opacity="1"/><path aria-label="Compression ratio: 2.56; Throughput (kb/ms): 40.932; new-type: ristretto19-chromium" role="graphics-symbol" aria-roledescription="point" transform="translate(472.80000000000007,172.74697142857144)" d="M2.7386127875258306,0A2.7386127875258306,2.7386127875258306,0,1,1,-2.7386127875258306,0A2.7386127875258306,2.7386127875258306,0,1,1,2.7386127875258306,0" fill="#4c78a8" stroke-width="2" opacity="1"/><path aria-label="Compression ratio: 2.63; Throughput (kb/ms): 28.062; new-type: ristretto19-chromium" role="graphics-symbol" aria-roledescription="point" transform="translate(564.7333333333333,249.23154285714287)" d="M2.7386127875258306,0A2.7386127875258306,2.7386127875258306,0,1,1,-2.7386127875258306,0A2.7386127875258306,2.7386127875258306,0,1,1,2.7386127875258306,0" fill="#4c78a8" stroke-width="2" opacity="1"/><path aria-label="Compression ratio: 2.63; Throughput (kb/ms): 13.412; new-type: ristretto19-chromium" role="graphics-symbol" aria-roledescription="point" transform="translate(564.7333333333333,336.2944)" d="M2.7386127875258306,0A2.7386127875258306,2.7386127875258306,0,1,1,-2.7386127875258306,0A2.7386127875258306,2.7386127875258306,0,1,1,2.7386127875258306,0" fill="#4c78a8" stroke-width="2" opacity="1"/><path aria-label="Compression ratio: 2.64; Throughput (kb/ms): 11.132; new-type: ristretto19-chromium" role="graphics-symbol" aria-roledescription="point" transform="translate(577.8666666666669,349.8441142857143)" d="M2.7386127875258306,0A2.7386127875258306,2.7386127875258306,0,1,1,-2.7386127875258306,0A2.7386127875258306,2.7386127875258306,0,1,1,2.7386127875258306,0" fill="#4c78a8" stroke-width="2" opacity="1"/><path aria-label="Compression ratio: 2.64; Throughput (kb/ms): 9.576; new-type: ristretto19-chromium" role="graphics-symbol" aria-roledescription="point" transform="translate(577.8666666666669,359.09119999999996)" d="M2.7386127875258306,0A2.7386127875258306,2.7386127875258306,0,1,1,-2.7386127875258306,0A2.7386127875258306,2.7386127875258306,0,1,1,2.7386127875258306,0" fill="#4c78a8" stroke-width="2" opacity="1"/><path aria-label="Compression ratio: 2.64; Throughput (kb/ms): 9.502; new-type: ristretto19-chromium" role="graphics-symbol" aria-roledescription="point" transform="translate(577.8666666666669,359.53097142857143)" d="M2.7386127875258306,0A2.7386127875258306,2.7386127875258306,0,1,1,-2.7386127875258306,0A2.7386127875258306,2.7386127875258306,0,1,1,2.7386127875258306,0" fill="#4c78a8" stroke-width="2" opacity="1"/><path aria-label="Compression ratio: 2.34; Throughput (kb/ms): 66.498; new-type: ristretto19-cloudflare" role="graphics-symbol" aria-roledescription="point" transform="translate(183.86666666666633,20.811885714285665)" d="M2.7386127875258306,0A2.7386127875258306,2.7386127875258306,0,1,1,-2.7386127875258306,0A2.7386127875258306,2.7386127875258306,0,1,1,2.7386127875258306,0" fill="#f58518" stroke-width="2" opacity="1"/><path aria-label="Compression ratio: 2.42; Throughput (kb/ms): 60.36; new-type: ristretto19-cloudflare" role="graphics-symbol" aria-roledescription="point" transform="translate(288.93333333333317,57.28914285714284)" d="M2.7386127875258306,0A2.7386127875258306,2.7386127875258306,0,1,1,-2.7386127875258306,0A2.7386127875258306,2.7386127875258306,0,1,1,2.7386127875258306,0" fill="#f58518" stroke-width="2" opacity="1"/><path aria-label="Compression ratio: 2.48; Throughput (kb/ms): 48.502; new-type: ristretto19-cloudflare" role="graphics-symbol" aria-roledescription="point" transform="translate(367.7333333333333,127.75954285714283)" d="M2.7386127875258306,0A2.7386127875258306,2.7386127875258306,0,1,1,-2.7386127875258306,0A2.7386127875258306,2.7386127875258306,0,1,1,2.7386127875258306,0" fill="#f58518" stroke-width="2" opacity="1"/><path aria-label="Compression ratio: 2.56; Throughput (kb/ms): 46.88; new-type: ristretto19-cloudflare" role="graphics-symbol" aria-roledescription="point" transform="translate(472.80000000000007,137.39885714285714)" d="M2.7386127875258306,0A2.7386127875258306,2.7386127875258306,0,1,1,-2.7386127875258306,0A2.7386127875258306,2.7386127875258306,0,1,1,2.7386127875258306,0" fill="#f58518" stroke-width="2" opacity="1"/><path aria-label="Compression ratio: 2.63; Throughput (kb/ms): 31.28; new-type: ristretto19-cloudflare" role="graphics-symbol" aria-roledescription="point" transform="translate(564.7333333333333,230.10742857142858)" d="M2.7386127875258306,0A2.7386127875258306,2.7386127875258306,0,1,1,-2.7386127875258306,0A2.7386127875258306,2.7386127875258306,0,1,1,2.7386127875258306,0" fill="#f58518" stroke-width="2" opacity="1"/><path aria-label="Compression ratio: 2.65; Throughput (kb/ms): 24.282; new-type: ristretto19-cloudflare" role="graphics-symbol" aria-roledescription="point" transform="translate(591,271.69554285714287)" d="M2.7386127875258306,0A2.7386127875258306,2.7386127875258306,0,1,1,-2.7386127875258306,0A2.7386127875258306,2.7386127875258306,0,1,1,2.7386127875258306,0" fill="#f58518" stroke-width="2" opacity="1"/><path aria-label="Compression ratio: 2.65; Throughput (kb/ms): 21.956; new-type: ristretto19-cloudflare" role="graphics-symbol" aria-roledescription="point" transform="translate(591,285.51862857142856)" d="M2.7386127875258306,0A2.7386127875258306,2.7386127875258306,0,1,1,-2.7386127875258306,0A2.7386127875258306,2.7386127875258306,0,1,1,2.7386127875258306,0" fill="#f58518" stroke-width="2" opacity="1"/><path aria-label="Compression ratio: 2.65; Throughput (kb/ms): 20.698; new-type: ristretto19-cloudflare" role="graphics-symbol" aria-roledescription="point" transform="translate(591,292.99474285714285)" d="M2.7386127875258306,0A2.7386127875258306,2.7386127875258306,0,1,1,-2.7386127875258306,0A2.7386127875258306,2.7386127875258306,0,1,1,2.7386127875258306,0" fill="#f58518" stroke-width="2" opacity="1"/><path aria-label="Compression ratio: 2.65; Throughput (kb/ms): 20.696; new-type: ristretto19-cloudflare" role="graphics-symbol" aria-roledescription="point" transform="translate(591,293.00662857142856)" d="M2.7386127875258306,0A2.7386127875258306,2.7386127875258306,0,1,1,-2.7386127875258306,0A2.7386127875258306,2.7386127875258306,0,1,1,2.7386127875258306,0" fill="#f58518" stroke-width="2" opacity="1"/><path aria-label="Compression ratio: 2.22; Throughput (kb/ms): 49.808; new-type: ristretto19-madler" role="graphics-symbol" aria-roledescription="point" transform="translate(26.266666666666705,119.99817142857142)" d="M2.7386127875258306,0A2.7386127875258306,2.7386127875258306,0,1,1,-2.7386127875258306,0A2.7386127875258306,2.7386127875258306,0,1,1,2.7386127875258306,0" fill="#e45756" stroke-width="2" opacity="1"/><path aria-label="Compression ratio: 2.32; Throughput (kb/ms): 42.764; new-type: ristretto19-madler" role="graphics-symbol" aria-roledescription="point" transform="translate(157.59999999999962,161.85965714285715)" d="M2.7386127875258306,0A2.7386127875258306,2.7386127875258306,0,1,1,-2.7386127875258306,0A2.7386127875258306,2.7386127875258306,0,1,1,2.7386127875258306,0" fill="#e45756" stroke-width="2" opacity="1"/><path aria-label="Compression ratio: 2.43; Throughput (kb/ms): 29.178; new-type: ristretto19-madler" role="graphics-symbol" aria-roledescription="point" transform="translate(302.06666666666683,242.59931428571429)" d="M2.7386127875258306,0A2.7386127875258306,2.7386127875258306,0,1,1,-2.7386127875258306,0A2.7386127875258306,2.7386127875258306,0,1,1,2.7386127875258306,0" fill="#e45756" stroke-width="2" opacity="1"/><path aria-label="Compression ratio: 2.49; Throughput (kb/ms): 30.436; new-type: ristretto19-madler" role="graphics-symbol" aria-roledescription="point" transform="translate(380.86666666666696,235.12319999999997)" d="M2.7386127875258306,0A2.7386127875258306,2.7386127875258306,0,1,1,-2.7386127875258306,0A2.7386127875258306,2.7386127875258306,0,1,1,2.7386127875258306,0" fill="#e45756" stroke-width="2" opacity="1"/><path aria-label="Compression ratio: 2.58; Throughput (kb/ms): 18.306; new-type: ristretto19-madler" role="graphics-symbol" aria-roledescription="point" transform="translate(499.0666666666668,307.2100571428571)" d="M2.7386127875258306,0A2.7386127875258306,2.7386127875258306,0,1,1,-2.7386127875258306,0A2.7386127875258306,2.7386127875258306,0,1,1,2.7386127875258306,0" fill="#e45756" stroke-width="2" opacity="1"/><path aria-label="Compression ratio: 2.63; Throughput (kb/ms): 11.742; new-type: ristretto19-madler" role="graphics-symbol" aria-roledescription="point" transform="translate(564.7333333333333,346.2189714285714)" d="M2.7386127875258306,0A2.7386127875258306,2.7386127875258306,0,1,1,-2.7386127875258306,0A2.7386127875258306,2.7386127875258306,0,1,1,2.7386127875258306,0" fill="#e45756" stroke-width="2" opacity="1"/><path aria-label="Compression ratio: 2.64; Throughput (kb/ms): 9.942; new-type: ristretto19-madler" role="graphics-symbol" aria-roledescription="point" transform="translate(577.8666666666669,356.9161142857143)" d="M2.7386127875258306,0A2.7386127875258306,2.7386127875258306,0,1,1,-2.7386127875258306,0A2.7386127875258306,2.7386127875258306,0,1,1,2.7386127875258306,0" fill="#e45756" stroke-width="2" opacity="1"/><path aria-label="Compression ratio: 2.64; Throughput (kb/ms): 8.52; new-type: ristretto19-madler" role="graphics-symbol" aria-roledescription="point" transform="translate(577.8666666666669,365.36685714285716)" d="M2.7386127875258306,0A2.7386127875258306,2.7386127875258306,0,1,1,-2.7386127875258306,0A2.7386127875258306,2.7386127875258306,0,1,1,2.7386127875258306,0" fill="#e45756" stroke-width="2" opacity="1"/><path aria-label="Compression ratio: 2.64; Throughput (kb/ms): 8.524; new-type: ristretto19-madler" role="graphics-symbol" aria-roledescription="point" transform="translate(577.8666666666669,365.34308571428573)" d="M2.7386127875258306,0A2.7386127875258306,2.7386127875258306,0,1,1,-2.7386127875258306,0A2.7386127875258306,2.7386127875258306,0,1,1,2.7386127875258306,0" fill="#e45756" stroke-width="2" opacity="1"/><path aria-label="Compression ratio: 2.22; Throughput (kb/ms): 49.426; new-type: ristretto19-system" role="graphics-symbol" aria-roledescription="point" transform="translate(26.266666666666705,122.26834285714284)" d="M2.7386127875258306,0A2.7386127875258306,2.7386127875258306,0,1,1,-2.7386127875258306,0A2.7386127875258306,2.7386127875258306,0,1,1,2.7386127875258306,0" fill="#72b7b2" stroke-width="2" opacity="1"/><path aria-label="Compression ratio: 2.32; Throughput (kb/ms): 42.94; new-type: ristretto19-system" role="graphics-symbol" aria-roledescription="point" transform="translate(157.59999999999962,160.8137142857143)" d="M2.7386127875258306,0A2.7386127875258306,2.7386127875258306,0,1,1,-2.7386127875258306,0A2.7386127875258306,2.7386127875258306,0,1,1,2.7386127875258306,0" fill="#72b7b2" stroke-width="2" opacity="1"/><path aria-label="Compression ratio: 2.43; Throughput (kb/ms): 29.168; new-type: ristretto19-system" role="graphics-symbol" aria-roledescription="point" transform="translate(302.06666666666683,242.65874285714284)" d="M2.7386127875258306,0A2.7386127875258306,2.7386127875258306,0,1,1,-2.7386127875258306,0A2.7386127875258306,2.7386127875258306,0,1,1,2.7386127875258306,0" fill="#72b7b2" stroke-width="2" opacity="1"/><path aria-label="Compression ratio: 2.49; Throughput (kb/ms): 31.028; new-type: ristretto19-system" role="graphics-symbol" aria-roledescription="point" transform="translate(380.86666666666696,231.6050285714286)" d="M2.7386127875258306,0A2.7386127875258306,2.7386127875258306,0,1,1,-2.7386127875258306,0A2.7386127875258306,2.7386127875258306,0,1,1,2.7386127875258306,0" fill="#72b7b2" stroke-width="2" opacity="1"/><path aria-label="Compression ratio: 2.58; Throughput (kb/ms): 18.35; new-type: ristretto19-system" role="graphics-symbol" aria-roledescription="point" transform="translate(499.0666666666668,306.9485714285714)" d="M2.7386127875258306,0A2.7386127875258306,2.7386127875258306,0,1,1,-2.7386127875258306,0A2.7386127875258306,2.7386127875258306,0,1,1,2.7386127875258306,0" fill="#72b7b2" stroke-width="2" opacity="1"/><path aria-label="Compression ratio: 2.63; Throughput (kb/ms): 11.844; new-type: ristretto19-system" role="graphics-symbol" aria-roledescription="point" transform="translate(564.7333333333333,345.6128)" d="M2.7386127875258306,0A2.7386127875258306,2.7386127875258306,0,1,1,-2.7386127875258306,0A2.7386127875258306,2.7386127875258306,0,1,1,2.7386127875258306,0" fill="#72b7b2" stroke-width="2" opacity="1"/><path aria-label="Compression ratio: 2.64; Throughput (kb/ms): 9.938; new-type: ristretto19-system" role="graphics-symbol" aria-roledescription="point" transform="translate(577.8666666666669,356.9398857142857)" d="M2.7386127875258306,0A2.7386127875258306,2.7386127875258306,0,1,1,-2.7386127875258306,0A2.7386127875258306,2.7386127875258306,0,1,1,2.7386127875258306,0" fill="#72b7b2" stroke-width="2" opacity="1"/><path aria-label="Compression ratio: 2.64; Throughput (kb/ms): 8.568; new-type: ristretto19-system" role="graphics-symbol" aria-roledescription="point" transform="translate(577.8666666666669,365.0816)" d="M2.7386127875258306,0A2.7386127875258306,2.7386127875258306,0,1,1,-2.7386127875258306,0A2.7386127875258306,2.7386127875258306,0,1,1,2.7386127875258306,0" fill="#72b7b2" stroke-width="2" opacity="1"/><path aria-label="Compression ratio: 2.64; Throughput (kb/ms): 8.498; new-type: ristretto19-system" role="graphics-symbol" aria-roledescription="point" transform="translate(577.8666666666669,365.49760000000003)" d="M2.7386127875258306,0A2.7386127875258306,2.7386127875258306,0,1,1,-2.7386127875258306,0A2.7386127875258306,2.7386127875258306,0,1,1,2.7386127875258306,0" fill="#72b7b2" stroke-width="2" opacity="1"/></g><g class="mark-text role-mark layer_0_layer_1_marks" role="graphics-object" aria-roledescription="text mark container"><text aria-label="Compression ratio: 2.34; Throughput (kb/ms): 59.912; new-type: ristretto19-chromium; level: 1" role="graphics-symbol" aria-roledescription="text mark" text-anchor="end" transform="translate(188.86666666666633,54.95154285714287)" font-family="sans-serif" font-size="11px" fill="#4c78a8">1</text><text aria-label="Compression ratio: 2.42; Throughput (kb/ms): 53.446; new-type: ristretto19-chromium; level: 2" role="graphics-symbol" aria-roledescription="text mark" text-anchor="end" transform="translate(293.93333333333317,93.3780571428571)" font-family="sans-serif" font-size="11px" fill="#4c78a8">2</text><text aria-label="Compression ratio: 2.48; Throughput (kb/ms): 43.596; new-type: ristretto19-chromium; level: 3" role="graphics-symbol" aria-roledescription="text mark" text-anchor="end" transform="translate(372.7333333333333,151.9152)" font-family="sans-serif" font-size="11px" fill="#4c78a8">3</text><text aria-label="Compression ratio: 2.56; Throughput (kb/ms): 40.932; new-type: ristretto19-chromium; level: 4" role="graphics-symbol" aria-roledescription="text mark" text-anchor="end" transform="translate(477.80000000000007,167.74697142857144)" font-family="sans-serif" font-size="11px" fill="#4c78a8">4</text><text aria-label="Compression ratio: 2.63; Throughput (kb/ms): 28.062; new-type: ristretto19-chromium; level: 5" role="graphics-symbol" aria-roledescription="text mark" text-anchor="end" transform="translate(569.7333333333333,244.23154285714287)" font-family="sans-serif" font-size="11px" fill="#4c78a8">5</text><text aria-label="Compression ratio: 2.63; Throughput (kb/ms): 13.412; new-type: ristretto19-chromium; level: 6" role="graphics-symbol" aria-roledescription="text mark" text-anchor="end" transform="translate(569.7333333333333,331.2944)" font-family="sans-serif" font-size="11px" fill="#4c78a8">6</text><text aria-label="Compression ratio: 2.64; Throughput (kb/ms): 11.132; new-type: ristretto19-chromium; level: 7" role="graphics-symbol" aria-roledescription="text mark" text-anchor="end" transform="translate(582.8666666666669,344.8441142857143)" font-family="sans-serif" font-size="11px" fill="#4c78a8">7</text><text aria-label="Compression ratio: 2.64; Throughput (kb/ms): 9.576; new-type: ristretto19-chromium; level: 8" role="graphics-symbol" aria-roledescription="text mark" text-anchor="end" transform="translate(582.8666666666669,354.09119999999996)" font-family="sans-serif" font-size="11px" fill="#4c78a8">8</text><text aria-label="Compression ratio: 2.64; Throughput (kb/ms): 9.502; new-type: ristretto19-chromium; level: 9" role="graphics-symbol" aria-roledescription="text mark" text-anchor="end" transform="translate(582.8666666666669,354.53097142857143)" font-family="sans-serif" font-size="11px" fill="#4c78a8">9</text><text aria-label="Compression ratio: 2.34; Throughput (kb/ms): 66.498; new-type: ristretto19-cloudflare; level: 1" role="graphics-symbol" aria-roledescription="text mark" text-anchor="end" transform="translate(188.86666666666633,15.811885714285665)" font-family="sans-serif" font-size="11px" fill="#f58518">1</text><text aria-label="Compression ratio: 2.42; Throughput (kb/ms): 60.36; new-type: ristretto19-cloudflare; level: 2" role="graphics-symbol" aria-roledescription="text mark" text-anchor="end" transform="translate(293.93333333333317,52.28914285714284)" font-family="sans-serif" font-size="11px" fill="#f58518">2</text><text aria-label="Compression ratio: 2.48; Throughput (kb/ms): 48.502; new-type: ristretto19-cloudflare; level: 3" role="graphics-symbol" aria-roledescription="text mark" text-anchor="end" transform="translate(372.7333333333333,122.75954285714283)" font-family="sans-serif" font-size="11px" fill="#f58518">3</text><text aria-label="Compression ratio: 2.56; Throughput (kb/ms): 46.88; new-type: ristretto19-cloudflare; level: 4" role="graphics-symbol" aria-roledescription="text mark" text-anchor="end" transform="translate(477.80000000000007,132.39885714285714)" font-family="sans-serif" font-size="11px" fill="#f58518">4</text><text aria-label="Compression ratio: 2.63; Throughput (kb/ms): 31.28; new-type: ristretto19-cloudflare; level: 5" role="graphics-symbol" aria-roledescription="text mark" text-anchor="end" transform="translate(569.7333333333333,225.10742857142858)" font-family="sans-serif" font-size="11px" fill="#f58518">5</text><text aria-label="Compression ratio: 2.65; Throughput (kb/ms): 24.282; new-type: ristretto19-cloudflare; level: 6" role="graphics-symbol" aria-roledescription="text mark" text-anchor="end" transform="translate(596,266.69554285714287)" font-family="sans-serif" font-size="11px" fill="#f58518">6</text><text aria-label="Compression ratio: 2.65; Throughput (kb/ms): 21.956; new-type: ristretto19-cloudflare; level: 7" role="graphics-symbol" aria-roledescription="text mark" text-anchor="end" transform="translate(596,280.51862857142856)" font-family="sans-serif" font-size="11px" fill="#f58518">7</text><text aria-label="Compression ratio: 2.65; Throughput (kb/ms): 20.698; new-type: ristretto19-cloudflare; level: 8" role="graphics-symbol" aria-roledescription="text mark" text-anchor="end" transform="translate(596,287.99474285714285)" font-family="sans-serif" font-size="11px" fill="#f58518">8</text><text aria-label="Compression ratio: 2.65; Throughput (kb/ms): 20.696; new-type: ristretto19-cloudflare; level: 9" role="graphics-symbol" aria-roledescription="text mark" text-anchor="end" transform="translate(596,288.00662857142856)" font-family="sans-serif" font-size="11px" fill="#f58518">9</text><text aria-label="Compression ratio: 2.22; Throughput (kb/ms): 49.808; new-type: ristretto19-madler; level: 1" role="graphics-symbol" aria-roledescription="text mark" text-anchor="end" transform="translate(31.266666666666705,114.99817142857142)" font-family="sans-serif" font-size="11px" fill="#e45756">1</text><text aria-label="Compression ratio: 2.32; Throughput (kb/ms): 42.764; new-type: ristretto19-madler; level: 2" role="graphics-symbol" aria-roledescription="text mark" text-anchor="end" transform="translate(162.59999999999962,156.85965714285715)" font-family="sans-serif" font-size="11px" fill="#e45756">2</text><text aria-label="Compression ratio: 2.43; Throughput (kb/ms): 29.178; new-type: ristretto19-madler; level: 3" role="graphics-symbol" aria-roledescription="text mark" text-anchor="end" transform="translate(307.06666666666683,237.59931428571429)" font-family="sans-serif" font-size="11px" fill="#e45756">3</text><text aria-label="Compression ratio: 2.49; Throughput (kb/ms): 30.436; new-type: ristretto19-madler; level: 4" role="graphics-symbol" aria-roledescription="text mark" text-anchor="end" transform="translate(385.86666666666696,230.12319999999997)" font-family="sans-serif" font-size="11px" fill="#e45756">4</text><text aria-label="Compression ratio: 2.58; Throughput (kb/ms): 18.306; new-type: ristretto19-madler; level: 5" role="graphics-symbol" aria-roledescription="text mark" text-anchor="end" transform="translate(504.0666666666668,302.2100571428571)" font-family="sans-serif" font-size="11px" fill="#e45756">5</text><text aria-label="Compression ratio: 2.63; Throughput (kb/ms): 11.742; new-type: ristretto19-madler; level: 6" role="graphics-symbol" aria-roledescription="text mark" text-anchor="end" transform="translate(569.7333333333333,341.2189714285714)" font-family="sans-serif" font-size="11px" fill="#e45756">6</text><text aria-label="Compression ratio: 2.64; Throughput (kb/ms): 9.942; new-type: ristretto19-madler; level: 7" role="graphics-symbol" aria-roledescription="text mark" text-anchor="end" transform="translate(582.8666666666669,351.9161142857143)" font-family="sans-serif" font-size="11px" fill="#e45756">7</text><text aria-label="Compression ratio: 2.64; Throughput (kb/ms): 8.52; new-type: ristretto19-madler; level: 8" role="graphics-symbol" aria-roledescription="text mark" text-anchor="end" transform="translate(582.8666666666669,360.36685714285716)" font-family="sans-serif" font-size="11px" fill="#e45756">8</text><text aria-label="Compression ratio: 2.64; Throughput (kb/ms): 8.524; new-type: ristretto19-madler; level: 9" role="graphics-symbol" aria-roledescription="text mark" text-anchor="end" transform="translate(582.8666666666669,360.34308571428573)" font-family="sans-serif" font-size="11px" fill="#e45756">9</text><text aria-label="Compression ratio: 2.22; Throughput (kb/ms): 49.426; new-type: ristretto19-system; level: 1" role="graphics-symbol" aria-roledescription="text mark" text-anchor="end" transform="translate(31.266666666666705,117.26834285714284)" font-family="sans-serif" font-size="11px" fill="#72b7b2">1</text><text aria-label="Compression ratio: 2.32; Throughput (kb/ms): 42.94; new-type: ristretto19-system; level: 2" role="graphics-symbol" aria-roledescription="text mark" text-anchor="end" transform="translate(162.59999999999962,155.8137142857143)" font-family="sans-serif" font-size="11px" fill="#72b7b2">2</text><text aria-label="Compression ratio: 2.43; Throughput (kb/ms): 29.168; new-type: ristretto19-system; level: 3" role="graphics-symbol" aria-roledescription="text mark" text-anchor="end" transform="translate(307.06666666666683,237.65874285714284)" font-family="sans-serif" font-size="11px" fill="#72b7b2">3</text><text aria-label="Compression ratio: 2.49; Throughput (kb/ms): 31.028; new-type: ristretto19-system; level: 4" role="graphics-symbol" aria-roledescription="text mark" text-anchor="end" transform="translate(385.86666666666696,226.6050285714286)" font-family="sans-serif" font-size="11px" fill="#72b7b2">4</text><text aria-label="Compression ratio: 2.58; Throughput (kb/ms): 18.35; new-type: ristretto19-system; level: 5" role="graphics-symbol" aria-roledescription="text mark" text-anchor="end" transform="translate(504.0666666666668,301.9485714285714)" font-family="sans-serif" font-size="11px" fill="#72b7b2">5</text><text aria-label="Compression ratio: 2.63; Throughput (kb/ms): 11.844; new-type: ristretto19-system; level: 6" role="graphics-symbol" aria-roledescription="text mark" text-anchor="end" transform="translate(569.7333333333333,340.6128)" font-family="sans-serif" font-size="11px" fill="#72b7b2">6</text><text aria-label="Compression ratio: 2.64; Throughput (kb/ms): 9.938; new-type: ristretto19-system; level: 7" role="graphics-symbol" aria-roledescription="text mark" text-anchor="end" transform="translate(582.8666666666669,351.9398857142857)" font-family="sans-serif" font-size="11px" fill="#72b7b2">7</text><text aria-label="Compression ratio: 2.64; Throughput (kb/ms): 8.568; new-type: ristretto19-system; level: 8" role="graphics-symbol" aria-roledescription="text mark" text-anchor="end" transform="translate(582.8666666666669,360.0816)" font-family="sans-serif" font-size="11px" fill="#72b7b2">8</text><text aria-label="Compression ratio: 2.64; Throughput (kb/ms): 8.498; new-type: ristretto19-system; level: 9" role="graphics-symbol" aria-roledescription="text mark" text-anchor="end" transform="translate(582.8666666666669,360.49760000000003)" font-family="sans-serif" font-size="11px" fill="#72b7b2">9</text></g><g class="mark-group role-title"><g transform="translate(295.5,-22)"><path class="background" aria-hidden="true" d="M0,0h0v0h0Z" pointer-events="none"/><g><g class="mark-text role-title-text" role="graphics-symbol" aria-roledescription="title" aria-label="Title text 'Deflater throughput/ratio per level for 'silesia/dickens' on Xeon E5-2686 v4 / 1900MHz'" pointer-events="none"><text text-anchor="middle" transform="translate(0,10)" font-family="sans-serif" font-size="13px" font-weight="bold" fill="#000" opacity="1">Deflater throughput/ratio per level for 'silesia/dickens' on Xeon E5-2686 v4 / 1900MHz</text></g></g><path class="foreground" aria-hidden="true" d="" pointer-events="none" display="none"/></g></g><g class="mark-group role-legend" role="graphics-symbol" aria-roledescription="legend" aria-label="Symbol legend for fill color and stroke color with 4 values: ristretto19-chromium, ristretto19-cloudflare, ristretto19-madler, ristretto19-system"><g transform="translate(457,0)"><path class="background" aria-hidden="true" d="M0.5,0.5h138v77h-138Z" pointer-events="none" fill="#ffffff" stroke="#000000"/><g><g class="mark-group role-legend-entry"><g transform="translate(8,8)"><path class="background" aria-hidden="true" d="M0,0h0v0h0Z" pointer-events="none"/><g><g class="mark-group role-scope" role="graphics-object" aria-roledescription="group mark container"><g transform="translate(0,0)"><path class="background" aria-hidden="true" d="M0,0h122v12.5h-122Z" pointer-events="none" opacity="1"/><g><g class="mark-symbol role-legend-symbol" pointer-events="none"><path transform="translate(6,6)" d="M5,0A5,5,0,1,1,-5,0A5,5,0,1,1,5,0" fill="#4c78a8" stroke="#4c78a8" stroke-width="1.5" opacity="1"/></g><g class="mark-text role-legend-label" pointer-events="none"><text text-anchor="start" transform="translate(16,9)" font-family="sans-serif" font-size="10px" fill="#000" opacity="1">ristretto19-chromium</text></g></g><path class="foreground" aria-hidden="true" d="" pointer-events="none" display="none"/></g><g transform="translate(0,16)"><path class="background" aria-hidden="true" d="M0,0h122v12.5h-122Z" pointer-events="none" opacity="1"/><g><g class="mark-symbol role-legend-symbol" pointer-events="none"><path transform="translate(6,6)" d="M5,0A5,5,0,1,1,-5,0A5,5,0,1,1,5,0" fill="#f58518" stroke="#f58518" stroke-width="1.5" opacity="1"/></g><g class="mark-text role-legend-label" pointer-events="none"><text text-anchor="start" transform="translate(16,9)" font-family="sans-serif" font-size="10px" fill="#000" opacity="1">ristretto19-cloudflare</text></g></g><path class="foreground" aria-hidden="true" d="" pointer-events="none" display="none"/></g><g transform="translate(0,32)"><path class="background" aria-hidden="true" d="M0,0h122v12.5h-122Z" pointer-events="none" opacity="1"/><g><g class="mark-symbol role-legend-symbol" pointer-events="none"><path transform="translate(6,6)" d="M5,0A5,5,0,1,1,-5,0A5,5,0,1,1,5,0" fill="#e45756" stroke="#e45756" stroke-width="1.5" opacity="1"/></g><g class="mark-text role-legend-label" pointer-events="none"><text text-anchor="start" transform="translate(16,9)" font-family="sans-serif" font-size="10px" fill="#000" opacity="1">ristretto19-madler</text></g></g><path class="foreground" aria-hidden="true" d="" pointer-events="none" display="none"/></g><g transform="translate(0,48)"><path class="background" aria-hidden="true" d="M0,0h122v12.5h-122Z" pointer-events="none" opacity="1"/><g><g class="mark-symbol role-legend-symbol" pointer-events="none"><path transform="translate(6,6)" d="M5,0A5,5,0,1,1,-5,0A5,5,0,1,1,5,0" fill="#72b7b2" stroke="#72b7b2" stroke-width="1.5" opacity="1"/></g><g class="mark-text role-legend-label" pointer-events="none"><text text-anchor="start" transform="translate(16,9)" font-family="sans-serif" font-size="10px" fill="#000" opacity="1">ristretto19-system</text></g></g><path class="foreground" aria-hidden="true" d="" pointer-events="none" display="none"/></g></g></g><path class="foreground" aria-hidden="true" d="" pointer-events="none" display="none"/></g></g></g><path class="foreground" aria-hidden="true" d="" pointer-events="none" display="none"/></g></g></g><path class="foreground" aria-hidden="true" d="" display="none"/></g></g></g></svg>