<svg xmlns="http://www.w3.org/2000/svg" xmlns:xlink="http://www.w3.org/1999/xlink" version="1.1" class="marks" width="1280" height="960" viewBox="0 0 640 480"><rect width="640" height="480" fill="white"/><g fill="none" stroke-miterlimit="10" transform="translate(57,27)"><g class="mark-group role-frame root" role="graphics-object" aria-roledescription="group mark container"><g transform="translate(0,0)"><path class="background" aria-hidden="true" d="M0.5,0.5h526v416h-526Z" stroke="#ddd"/><g><g class="mark-group role-axis" aria-hidden="true"><g transform="translate(0.5,416.5)"><path class="background" aria-hidden="true" d="M0,0h0v0h0Z" pointer-events="none"/><g><g class="mark-rule role-axis-grid" pointer-events="none"><line transform="translate(0,-416)" x2="0" y2="416" stroke="#ddd" stroke-width="1" opacity="1"/><line transform="translate(117,-416)" x2="0" y2="416" stroke="#ddd" stroke-width="1" opacity="1"/><line transform="translate(234,-416)" x2="0" y2="416" stroke="#ddd" stroke-width="1" opacity="1"/><line transform="translate(351,-416)" x2="0" y2="416" stroke="#ddd" stroke-width="1" opacity="1"/><line transform="translate(468,-416)" x2="0" y2="416" stroke="#ddd" stroke-width="1" opacity="1"/><line transform="translate(58,-416)" x2="0" y2="416" stroke="#ddd" stroke-width="1" opacity="1"/><line transform="translate(175,-416)" x2="0" y2="416" stroke="#ddd" stroke-width="1" opacity="1"/><line transform="translate(292,-416)" x2="0" y2="416" stroke="#ddd" stroke-width="1" opacity="1"/><line transform="translate(409,-416)" x2="0" y2="416" stroke="#ddd" stroke-width="1" opacity="1"/><line transform="translate(526,-416)" x2="0" y2="416" stroke="#ddd" stroke-width="1" opacity="1"/></g></g><path class="foreground" aria-hidden="true" d="" pointer-events="none" display="none"/></g></g><g class="mark-group role-axis" aria-hidden="true"><g transform="translate(0.5,0.5)"><path class="background" aria-hidden="true" d="M0,0h0v0h0Z" pointer-events="none"/><g><g class="mark-rule role-axis-grid" pointer-events="none"><line transform="translate(0,416)" x2="526" y2="0" stroke="#ddd" stroke-width="1" opacity="1"/><line transform="translate(0,378)" x2="526" y2="0" stroke="#ddd" stroke-width="1" opacity="1"/><line transform="translate(0,340)" x2="526" y2="0" stroke="#ddd" stroke-width="1" opacity="1"/><line transform="translate(0,303)" x2="526" y2="0" stroke="#ddd" stroke-width="1" opacity="1"/><line transform="translate(0,265)" x2="526" y2="0" stroke="#ddd" stroke-width="1" opacity="1"/><line transform="translate(0,227)" x2="526" y2="0" stroke="#ddd" stroke-width="1" opacity="1"/><line transform="translate(0,189)" x2="526" y2="0" stroke="#ddd" stroke-width="1" opacity="1"/><line transform="translate(0,151)" x2="526" y2="0" stroke="#ddd" stroke-width="1" opacity="1"/><line transform="translate(0,113)" x2="526" y2="0" stroke="#ddd" stroke-width="1" opacity="1"/><line transform="translate(0,76)" x2="526" y2="0" stroke="#ddd" stroke-width="1" opacity="1"/><line transform="translate(0,38)" x2="526" y2="0" stroke="#ddd" stroke-width="1" opacity="1"/><line transform="translate(0,0)" x2="526" y2="0" stroke="#ddd" stroke-width="1" opacity="1"/></g></g><path class="foreground" aria-hidden="true" d="" pointer-events="none" display="none"/></g></g><g class="mark-group role-axis" role="graphics-symbol" aria-roledescription="axis" aria-label="X-axis titled 'Compression ratio' for a linear scale with values from 7 to 12"><g transform="translate(0.5,416.5)"><path class="background" aria-hidden="true" d="M0,0h0v0h0Z" pointer-events="none"/><g><g class="mark-rule role-axis-tick" pointer-events="none"><line transform="translate(0,0)" x2="0" y2="5" stroke="#888" stroke-width="1" opacity="1"/><line transform="translate(117,0)" x2="0" y2="5" stroke="#888" stroke-width="1" opacity="1"/><line transform="translate(234,0)" x2="0" y2="5" stroke="#888" stroke-width="1" opacity="1"/><line transform="translate(351,0)" x2="0" y2="5" stroke="#888" stroke-width="1" opacity="1"/><line transform="translate(468,0)" x2="0" y2="5" stroke="#888" stroke-width="1" opacity="1"/><line transform="translate(58,0)" x2="0" y2="5" stroke="#888" stroke-width="1" opacity="1"/><line transform="translate(175,0)" x2="0" y2="5" stroke="#888" stroke-width="1" opacity="1"/><line transform="translate(292,0)" x2="0" y2="5" stroke="#888" stroke-width="1" opacity="1"/><line transform="translate(409,0)" x2="0" y2="5" stroke="#888" stroke-width="1" opacity="1"/><line transform="translate(526,0)" x2="0" y2="5" stroke="#888" stroke-width="1" opacity="1"/></g><g class="mark-text role-axis-label" pointer-events="none"><text text-anchor="start" transform="translate(0,15)" font-family="sans-serif" font-size="10px" fill="#000" opacity="1">7.0</text><text text-anchor="middle" transform="translate(116.88888888888889,15)" font-family="sans-serif" font-size="10px" fill="#000" opacity="1">8.0</text><text text-anchor="middle" transform="translate(233.77777777777777,15)" font-family="sans-serif" font-size="10px" fill="#000" opacity="1">9.0</text><text text-anchor="middle" transform="translate(350.66666666666663,15)" font-family="sans-serif" font-size="10px" fill="#000" opacity="1">10.0</text><text text-anchor="middle" transform="translate(467.55555555555554,15)" font-family="sans-serif" font-size="10px" fill="#000" opacity="1">11.0</text><text text-anchor="middle" transform="translate(58.44444444444444,15)" font-family="sans-serif" font-size="10px" fill="#000" opacity="1">7.5</text><text text-anchor="middle" transform="translate(175.33333333333331,15)" font-family="sans-serif" font-size="10px" fill="#000" opacity="1">8.5</text><text text-anchor="middle" transform="translate(292.22222222222223,15)" font-family="sans-serif" font-size="10px" fill="#000" opacity="1">9.5</text><text text-anchor="middle" transform="translate(409.11111111111114,15)" font-family="sans-serif" font-size="10px" fill="#000" opacity="1">10.5</text><text text-anchor="end" transform="translate(526,15)" font-family="sans-serif" font-size="10px" fill="#000" opacity="1">11.5</text></g><g class="mark-rule role-axis-domain" pointer-events="none"><line transform="translate(0,0)" x2="526" y2="0" stroke="#888" stroke-width="1" opacity="1"/></g><g class="mark-text role-axis-title" pointer-events="none"><text text-anchor="middle" transform="translate(263,30)" font-family="sans-serif" font-size="11px" font-weight="bold" fill="#000" opacity="1">Compression ratio</text></g></g><path class="foreground" aria-hidden="true" d="" pointer-events="none" display="none"/></g></g><g class="mark-group role-axis" role="graphics-symbol" aria-roledescription="axis" aria-label="Y-axis titled 'Throughput (kb/ms)' for a linear scale with values from 0 to 220"><g transform="translate(0.5,0.5)"><path class="background" aria-hidden="true" d="M0,0h0v0h0Z" pointer-events="none"/><g><g class="mark-rule role-axis-tick" pointer-events="none"><line transform="translate(0,416)" x2="-5" y2="0" stroke="#888" stroke-width="1" opacity="1"/><line transform="translate(0,378)" x2="-5" y2="0" stroke="#888" stroke-width="1" opacity="1"/><line transform="translate(0,340)" x2="-5" y2="0" stroke="#888" stroke-width="1" opacity="1"/><line transform="translate(0,303)" x2="-5" y2="0" stroke="#888" stroke-width="1" opacity="1"/><line transform="translate(0,265)" x2="-5" y2="0" stroke="#888" stroke-width="1" opacity="1"/><line transform="translate(0,227)" x2="-5" y2="0" stroke="#888" stroke-width="1" opacity="1"/><line transform="translate(0,189)" x2="-5" y2="0" stroke="#888" stroke-width="1" opacity="1"/><line transform="translate(0,151)" x2="-5" y2="0" stroke="#888" stroke-width="1" opacity="1"/><line transform="translate(0,113)" x2="-5" y2="0" stroke="#888" stroke-width="1" opacity="1"/><line transform="translate(0,76)" x2="-5" y2="0" stroke="#888" stroke-width="1" opacity="1"/><line transform="translate(0,38)" x2="-5" y2="0" stroke="#888" stroke-width="1" opacity="1"/><line transform="translate(0,0)" x2="-5" y2="0" stroke="#888" stroke-width="1" opacity="1"/></g><g class="mark-text role-axis-label" pointer-events="none"><text text-anchor="end" transform="translate(-7,419)" font-family="sans-serif" font-size="10px" fill="#000" opacity="1">0</text><text text-anchor="end" transform="translate(-7,381.1818181818182)" font-family="sans-serif" font-size="10px" fill="#000" opacity="1">20</text><text text-anchor="end" transform="translate(-7,343.3636363636363)" font-family="sans-serif" font-size="10px" fill="#000" opacity="1">40</text><text text-anchor="end" transform="translate(-7,305.54545454545456)" font-family="sans-serif" font-size="10px" fill="#000" opacity="1">60</text><text text-anchor="end" transform="translate(-7,267.72727272727275)" font-family="sans-serif" font-size="10px" fill="#000" opacity="1">80</text><text text-anchor="end" transform="translate(-7,229.90909090909088)" font-family="sans-serif" font-size="10px" fill="#000" opacity="1">100</text><text text-anchor="end" transform="translate(-7,192.09090909090912)" font-family="sans-serif" font-size="10px" fill="#000" opacity="1">120</text><text text-anchor="end" transform="translate(-7,154.27272727272728)" font-family="sans-serif" font-size="10px" fill="#000" opacity="1">140</text><text text-anchor="end" transform="translate(-7,116.45454545454544)" font-family="sans-serif" font-size="10px" fill="#000" opacity="1">160</text><text text-anchor="end" transform="translate(-7,78.63636363636361)" font-family="sans-serif" font-size="10px" fill="#000" opacity="1">180</text><text text-anchor="end" transform="translate(-7,40.81818181818183)" font-family="sans-serif" font-size="10px" fill="#000" opacity="1">200</text><text text-anchor="end" transform="translate(-7,3)" font-family="sans-serif" font-size="10px" fill="#000" opacity="1">220</text></g><g class="mark-rule role-axis-domain" pointer-events="none"><line transform="translate(0,416)" x2="0" y2="-416" stroke="#888" stroke-width="1" opacity="1"/></g><g class="mark-text role-axis-title" pointer-events="none"><text text-anchor="middle" transform="translate(-29,208) rotate(-90) translate(0,-2)" font-family="sans-serif" font-size="11px" font-weight="bold" fill="#000" opacity="1">Throughput (kb/ms)</text></g></g><path class="foreground" aria-hidden="true" d="" pointer-events="none" display="none"/></g></g><g class="mark-group role-scope layer_0_layer_0_layer_0_pathgroup" role="graphics-object" aria-roledescription="group mark container"><g transform="translate(0,0)"><path class="background" aria-hidden="true" d="M0,0h526v416h-526Z"/><g><g class="mark-line role-mark layer_0_layer_0_layer_0_marks" role="graphics-object" aria-roledescription="line mark container"><path aria-label="Compression ratio: 8.08; Throughput (kb/ms): 199.88; new-type: ristretto19-chromium" role="graphics-symbol" aria-roledescription="line mark" d="M126.24000000000001,38.04509090909091L171.82666666666674,54.60945454545452L215.07555555555552,82.28101818181815L275.8577777777777,202.19869090909094L381.0577777777778,231.88974545454542L407.9422222222222,299.0813090909091L430.15111111111105,320.2594909090909L475.7377777777778,371.03796363636366L494.44000000000005,391.4522181818182" stroke="#4c78a8" stroke-width="2"/></g></g><path class="foreground" aria-hidden="true" d="" display="none"/></g><g transform="translate(0,0)"><path class="background" aria-hidden="true" d="M0,0h526v416h-526Z"/><g><g class="mark-line role-mark layer_0_layer_0_layer_0_marks" role="graphics-object" aria-roledescription="line mark container"><path aria-label="Compression ratio: 8.08; Throughput (kb/ms): 202.102; new-type: ristretto19-cloudflare" role="graphics-symbol" aria-roledescription="line mark" d="M126.24000000000001,33.84349090909091L171.82666666666674,47.461818181818245L215.07555555555552,66.99490909090912L275.8577777777777,183.76610909090908L381.0577777777778,211.41876363636368L432.4888888888888,253.71083636363636L453.528888888889,280.1457454545455L496.77777777777777,348.53236363636364L510.80444444444436,375.3757090909091" stroke="#f58518" stroke-width="2"/></g></g><path class="foreground" aria-hidden="true" d="" display="none"/></g><g transform="translate(0,0)"><path class="background" aria-hidden="true" d="M0,0h526v416h-526Z"/><g><g class="mark-line role-mark layer_0_layer_0_layer_0_marks" role="graphics-object" aria-roledescription="line mark container"><path aria-label="Compression ratio: 7.26; Throughput (kb/ms): 124.558; new-type: ristretto19-madler" role="graphics-symbol" aria-roledescription="line mark" d="M30.391111111111087,180.47214545454545L93.51111111111109,191.49614545454548L160.1377777777777,216.21789090909087L237.28444444444438,267.6279272727273L342.4844444444444,292.2626909090909L406.77333333333337,322.3735272727273L430.15111111111105,339.9816727272727L475.7377777777778,380.81774545454545L494.44000000000005,396.6597818181818" stroke="#e45756" stroke-width="2"/></g></g><path class="foreground" aria-hidden="true" d="" display="none"/></g><g transform="translate(0,0)"><path class="background" aria-hidden="true" d="M0,0h526v416h-526Z"/><g><g class="mark-line role-mark layer_0_layer_0_layer_0_marks" role="graphics-object" aria-roledescription="line mark container"><path aria-label="Compression ratio: 7.26; Throughput (kb/ms): 125.512; new-type: ristretto19-system" role="graphics-symbol" aria-roledescription="line mark" d="M30.391111111111087,178.66821818181816L93.51111111111109,189.47665454545458L160.1377777777777,214.35723636363636L237.28444444444438,260.2420363636364L342.4844444444444,287.13454545454545L406.77333333333337,318.9888L430.15111111111105,337.3570909090909L475.7377777777778,380.38661818181816L494.44000000000005,396.6862545454545" stroke="#72b7b2" stroke-width="2"/></g></g><path class="foreground" aria-hidden="true" d="" display="none"/></g></g><g class="mark-symbol role-mark layer_0_layer_0_layer_1_marks" role="graphics-object" aria-roledescription="symbol mark container"><path aria-label="Compression ratio: 8.08; Throughput (kb/ms): 199.88; new-type: ristretto19-chromium" role="graphics-symbol" aria-roledescription="point" transform="translate(126.24000000000001,38.04509090909091)" d="M2.7386127875258306,0A2.7386127875258306,2.7386127875258306,0,1,1,-2.7386127875258306,0A2.7386127875258306,2.7386127875258306,0,1,1,2.7386127875258306,0" fill="#4c78a8" stroke-width="2" opacity="1"/><path aria-label="Compression ratio: 8.47; Throughput (kb/ms): 191.12; new-type: ristretto19-chromium" role="graphics-symbol" aria-roledescription="point" transform="translate(171.82666666666674,54.60945454545452)" d="M2.7386127875258306,0A2.7386127875258306,2.7386127875258306,0,1,1,-2.7386127875258306,0A2.7386127875258306,2.7386127875258306,0,1,1,2.7386127875258306,0" fill="#4c78a8" stroke-width="2" opacity="1"/><path aria-label="Compression ratio: 8.84; Throughput (kb/ms): 176.486; new-type: ristretto19-chromium" role="graphics-symbol" aria-roledescription="point" transform="translate(215.07555555555552,82.28101818181815)" d="M2.7386127875258306,0A2.7386127875258306,2.7386127875258306,0,1,1,-2.7386127875258306,0A2.7386127875258306,2.7386127875258306,0,1,1,2.7386127875258306,0" fill="#4c78a8" stroke-width="2" opacity="1"/><path aria-label="Compression ratio: 9.36; Throughput (kb/ms): 113.068; new-type: ristretto19-chromium" role="graphics-symbol" aria-roledescription="point" transform="translate(275.8577777777777,202.19869090909094)" d="M2.7386127875258306,0A2.7386127875258306,2.7386127875258306,0,1,1,-2.7386127875258306,0A2.7386127875258306,2.7386127875258306,0,1,1,2.7386127875258306,0" fill="#4c78a8" stroke-width="2" opacity="1"/><path aria-label="Compression ratio: 10.26; Throughput (kb/ms): 97.366; new-type: ristretto19-chromium" role="graphics-symbol" aria-roledescription="point" transform="translate(381.0577777777778,231.88974545454542)" d="M2.7386127875258306,0A2.7386127875258306,2.7386127875258306,0,1,1,-2.7386127875258306,0A2.7386127875258306,2.7386127875258306,0,1,1,2.7386127875258306,0" fill="#4c78a8" stroke-width="2" opacity="1"/><path aria-label="Compression ratio: 10.49; Throughput (kb/ms): 61.832; new-type: ristretto19-chromium" role="graphics-symbol" aria-roledescription="point" transform="translate(407.9422222222222,299.0813090909091)" d="M2.7386127875258306,0A2.7386127875258306,2.7386127875258306,0,1,1,-2.7386127875258306,0A2.7386127875258306,2.7386127875258306,0,1,1,2.7386127875258306,0" fill="#4c78a8" stroke-width="2" opacity="1"/><path aria-label="Compression ratio: 10.68; Throughput (kb/ms): 50.632; new-type: ristretto19-chromium" role="graphics-symbol" aria-roledescription="point" transform="translate(430.15111111111105,320.2594909090909)" d="M2.7386127875258306,0A2.7386127875258306,2.7386127875258306,0,1,1,-2.7386127875258306,0A2.7386127875258306,2.7386127875258306,0,1,1,2.7386127875258306,0" fill="#4c78a8" stroke-width="2" opacity="1"/><path aria-label="Compression ratio: 11.07; Throughput (kb/ms): 23.778; new-type: ristretto19-chromium" role="graphics-symbol" aria-roledescription="point" transform="translate(475.7377777777778,371.03796363636366)" d="M2.7386127875258306,0A2.7386127875258306,2.7386127875258306,0,1,1,-2.7386127875258306,0A2.7386127875258306,2.7386127875258306,0,1,1,2.7386127875258306,0" fill="#4c78a8" stroke-width="2" opacity="1"/><path aria-label="Compression ratio: 11.23; Throughput (kb/ms): 12.982; new-type: ristretto19-chromium" role="graphics-symbol" aria-roledescription="point" transform="translate(494.44000000000005,391.4522181818182)" d="M2.7386127875258306,0A2.7386127875258306,2.7386127875258306,0,1,1,-2.7386127875258306,0A2.7386127875258306,2.7386127875258306,0,1,1,2.7386127875258306,0" fill="#4c78a8" stroke-width="2" opacity="1"/><path aria-label="Compression ratio: 8.08; Throughput (kb/ms): 202.102; new-type: ristretto19-cloudflare" role="graphics-symbol" aria-roledescription="point" transform="translate(126.24000000000001,33.84349090909091)" d="M2.7386127875258306,0A2.7386127875258306,2.7386127875258306,0,1,1,-2.7386127875258306,0A2.7386127875258306,2.7386127875258306,0,1,1,2.7386127875258306,0" fill="#f58518" stroke-width="2" opacity="1"/><path aria-label="Compression ratio: 8.47; Throughput (kb/ms): 194.9; new-type: ristretto19-cloudflare" role="graphics-symbol" aria-roledescription="point" transform="translate(171.82666666666674,47.461818181818245)" d="M2.7386127875258306,0A2.7386127875258306,2.7386127875258306,0,1,1,-2.7386127875258306,0A2.7386127875258306,2.7386127875258306,0,1,1,2.7386127875258306,0" fill="#f58518" stroke-width="2" opacity="1"/><path aria-label="Compression ratio: 8.84; Throughput (kb/ms): 184.57; new-type: ristretto19-cloudflare" role="graphics-symbol" aria-roledescription="point" transform="translate(215.07555555555552,66.99490909090912)" d="M2.7386127875258306,0A2.7386127875258306,2.7386127875258306,0,1,1,-2.7386127875258306,0A2.7386127875258306,2.7386127875258306,0,1,1,2.7386127875258306,0" fill="#f58518" stroke-width="2" opacity="1"/><path aria-label="Compression ratio: 9.36; Throughput (kb/ms): 122.816; new-type: ristretto19-cloudflare" role="graphics-symbol" aria-roledescription="point" transform="translate(275.8577777777777,183.76610909090908)" d="M2.7386127875258306,0A2.7386127875258306,2.7386127875258306,0,1,1,-2.7386127875258306,0A2.7386127875258306,2.7386127875258306,0,1,1,2.7386127875258306,0" fill="#f58518" stroke-width="2" opacity="1"/><path aria-label="Compression ratio: 10.26; Throughput (kb/ms): 108.192; new-type: ristretto19-cloudflare" role="graphics-symbol" aria-roledescription="point" transform="translate(381.0577777777778,211.41876363636368)" d="M2.7386127875258306,0A2.7386127875258306,2.7386127875258306,0,1,1,-2.7386127875258306,0A2.7386127875258306,2.7386127875258306,0,1,1,2.7386127875258306,0" fill="#f58518" stroke-width="2" opacity="1"/><path aria-label="Compression ratio: 10.7; Throughput (kb/ms): 85.826; new-type: ristretto19-cloudflare" role="graphics-symbol" aria-roledescription="point" transform="translate(432.4888888888888,253.71083636363636)" d="M2.7386127875258306,0A2.7386127875258306,2.7386127875258306,0,1,1,-2.7386127875258306,0A2.7386127875258306,2.7386127875258306,0,1,1,2.7386127875258306,0" fill="#f58518" stroke-width="2" opacity="1"/><path aria-label="Compression ratio: 10.88; Throughput (kb/ms): 71.846; new-type: ristretto19-cloudflare" role="graphics-symbol" aria-roledescription="point" transform="translate(453.528888888889,280.1457454545455)" d="M2.7386127875258306,0A2.7386127875258306,2.7386127875258306,0,1,1,-2.7386127875258306,0A2.7386127875258306,2.7386127875258306,0,1,1,2.7386127875258306,0" fill="#f58518" stroke-width="2" opacity="1"/><path aria-label="Compression ratio: 11.25; Throughput (kb/ms): 35.68; new-type: ristretto19-cloudflare" role="graphics-symbol" aria-roledescription="point" transform="translate(496.77777777777777,348.53236363636364)" d="M2.7386127875258306,0A2.7386127875258306,2.7386127875258306,0,1,1,-2.7386127875258306,0A2.7386127875258306,2.7386127875258306,0,1,1,2.7386127875258306,0" fill="#f58518" stroke-width="2" opacity="1"/><path aria-label="Compression ratio: 11.37; Throughput (kb/ms): 21.484; new-type: ristretto19-cloudflare" role="graphics-symbol" aria-roledescription="point" transform="translate(510.80444444444436,375.3757090909091)" d="M2.7386127875258306,0A2.7386127875258306,2.7386127875258306,0,1,1,-2.7386127875258306,0A2.7386127875258306,2.7386127875258306,0,1,1,2.7386127875258306,0" fill="#f58518" stroke-width="2" opacity="1"/><path aria-label="Compression ratio: 7.26; Throughput (kb/ms): 124.558; new-type: ristretto19-madler" role="graphics-symbol" aria-roledescription="point" transform="translate(30.391111111111087,180.47214545454545)" d="M2.7386127875258306,0A2.7386127875258306,2.7386127875258306,0,1,1,-2.7386127875258306,0A2.7386127875258306,2.7386127875258306,0,1,1,2.7386127875258306,0" fill="#e45756" stroke-width="2" opacity="1"/><path aria-label="Compression ratio: 7.8; Throughput (kb/ms): 118.728; new-type: ristretto19-madler" role="graphics-symbol" aria-roledescription="point" transform="translate(93.51111111111109,191.49614545454548)" d="M2.7386127875258306,0A2.7386127875258306,2.7386127875258306,0,1,1,-2.7386127875258306,0A2.7386127875258306,2.7386127875258306,0,1,1,2.7386127875258306,0" fill="#e45756" stroke-width="2" opacity="1"/><path aria-label="Compression ratio: 8.37; Throughput (kb/ms): 105.654; new-type: ristretto19-madler" role="graphics-symbol" aria-roledescription="point" transform="translate(160.1377777777777,216.21789090909087)" d="M2.7386127875258306,0A2.7386127875258306,2.7386127875258306,0,1,1,-2.7386127875258306,0A2.7386127875258306,2.7386127875258306,0,1,1,2.7386127875258306,0" fill="#e45756" stroke-width="2" opacity="1"/><path aria-label="Compression ratio: 9.03; Throughput (kb/ms): 78.466; new-type: ristretto19-madler" role="graphics-symbol" aria-roledescription="point" transform="translate(237.28444444444438,267.6279272727273)" d="M2.7386127875258306,0A2.7386127875258306,2.7386127875258306,0,1,1,-2.7386127875258306,0A2.7386127875258306,2.7386127875258306,0,1,1,2.7386127875258306,0" fill="#e45756" stroke-width="2" opacity="1"/><path aria-label="Compression ratio: 9.93; Throughput (kb/ms): 65.438; new-type: ristretto19-madler" role="graphics-symbol" aria-roledescription="point" transform="translate(342.4844444444444,292.2626909090909)" d="M2.7386127875258306,0A2.7386127875258306,2.7386127875258306,0,1,1,-2.7386127875258306,0A2.7386127875258306,2.7386127875258306,0,1,1,2.7386127875258306,0" fill="#e45756" stroke-width="2" opacity="1"/><path aria-label="Compression ratio: 10.48; Throughput (kb/ms): 49.514; new-type: ristretto19-madler" role="graphics-symbol" aria-roledescription="point" transform="translate(406.77333333333337,322.3735272727273)" d="M2.7386127875258306,0A2.7386127875258306,2.7386127875258306,0,1,1,-2.7386127875258306,0A2.7386127875258306,2.7386127875258306,0,1,1,2.7386127875258306,0" fill="#e45756" stroke-width="2" opacity="1"/><path aria-label="Compression ratio: 10.68; Throughput (kb/ms): 40.202; new-type: ristretto19-madler" role="graphics-symbol" aria-roledescription="point" transform="translate(430.15111111111105,339.9816727272727)" d="M2.7386127875258306,0A2.7386127875258306,2.7386127875258306,0,1,1,-2.7386127875258306,0A2.7386127875258306,2.7386127875258306,0,1,1,2.7386127875258306,0" fill="#e45756" stroke-width="2" opacity="1"/><path aria-label="Compression ratio: 11.07; Throughput (kb/ms): 18.606; new-type: ristretto19-madler" role="graphics-symbol" aria-roledescription="point" transform="translate(475.7377777777778,380.81774545454545)" d="M2.7386127875258306,0A2.7386127875258306,2.7386127875258306,0,1,1,-2.7386127875258306,0A2.7386127875258306,2.7386127875258306,0,1,1,2.7386127875258306,0" fill="#e45756" stroke-width="2" opacity="1"/><path aria-label="Compression ratio: 11.23; Throughput (kb/ms): 10.228; new-type: ristretto19-madler" role="graphics-symbol" aria-roledescription="point" transform="translate(494.44000000000005,396.6597818181818)" d="M2.7386127875258306,0A2.7386127875258306,2.7386127875258306,0,1,1,-2.7386127875258306,0A2.7386127875258306,2.7386127875258306,0,1,1,2.7386127875258306,0" fill="#e45756" stroke-width="2" opacity="1"/><path aria-label="Compression ratio: 7.26; Throughput (kb/ms): 125.512; new-type: ristretto19-system" role="graphics-symbol" aria-roledescription="point" transform="translate(30.391111111111087,178.66821818181816)" d="M2.7386127875258306,0A2.7386127875258306,2.7386127875258306,0,1,1,-2.7386127875258306,0A2.7386127875258306,2.7386127875258306,0,1,1,2.7386127875258306,0" fill="#72b7b2" stroke-width="2" opacity="1"/><path aria-label="Compression ratio: 7.8; Throughput (kb/ms): 119.796; new-type: ristretto19-system" role="graphics-symbol" aria-roledescription="point" transform="translate(93.51111111111109,189.47665454545458)" d="M2.7386127875258306,0A2.7386127875258306,2.7386127875258306,0,1,1,-2.7386127875258306,0A2.7386127875258306,2.7386127875258306,0,1,1,2.7386127875258306,0" fill="#72b7b2" stroke-width="2" opacity="1"/><path aria-label="Compression ratio: 8.37; Throughput (kb/ms): 106.638; new-type: ristretto19-system" role="graphics-symbol" aria-roledescription="point" transform="translate(160.1377777777777,214.35723636363636)" d="M2.7386127875258306,0A2.7386127875258306,2.7386127875258306,0,1,1,-2.7386127875258306,0A2.7386127875258306,2.7386127875258306,0,1,1,2.7386127875258306,0" fill="#72b7b2" stroke-width="2" opacity="1"/><path aria-label="Compression ratio: 9.03; Throughput (kb/ms): 82.372; new-type: ristretto19-system" role="graphics-symbol" aria-roledescription="point" transform="translate(237.28444444444438,260.2420363636364)" d="M2.7386127875258306,0A2.7386127875258306,2.7386127875258306,0,1,1,-2.7386127875258306,0A2.7386127875258306,2.7386127875258306,0,1,1,2.7386127875258306,0" fill="#72b7b2" stroke-width="2" opacity="1"/><path aria-label="Compression ratio: 9.93; Throughput (kb/ms): 68.15; new-type: ristretto19-system" role="graphics-symbol" aria-roledescription="point" transform="translate(342.4844444444444,287.13454545454545)" d="M2.7386127875258306,0A2.7386127875258306,2.7386127875258306,0,1,1,-2.7386127875258306,0A2.7386127875258306,2.7386127875258306,0,1,1,2.7386127875258306,0" fill="#72b7b2" stroke-width="2" opacity="1"/><path aria-label="Compression ratio: 10.48; Throughput (kb/ms): 51.304; new-type: ristretto19-system" role="graphics-symbol" aria-roledescription="point" transform="translate(406.77333333333337,318.9888)" d="M2.7386127875258306,0A2.7386127875258306,2.7386127875258306,0,1,1,-2.7386127875258306,0A2.7386127875258306,2.7386127875258306,0,1,1,2.7386127875258306,0" fill="#72b7b2" stroke-width="2" opacity="1"/><path aria-label="Compression ratio: 10.68; Throughput (kb/ms): 41.59; new-type: ristretto19-system" role="graphics-symbol" aria-roledescription="point" transform="translate(430.15111111111105,337.3570909090909)" d="M2.7386127875258306,0A2.7386127875258306,2.7386127875258306,0,1,1,-2.7386127875258306,0A2.7386127875258306,2.7386127875258306,0,1,1,2.7386127875258306,0" fill="#72b7b2" stroke-width="2" opacity="1"/><path aria-label="Compression ratio: 11.07; Throughput (kb/ms): 18.834; new-type: ristretto19-system" role="graphics-symbol" aria-roledescription="point" transform="translate(475.7377777777778,380.38661818181816)" d="M2.7386127875258306,0A2.7386127875258306,2.7386127875258306,0,1,1,-2.7386127875258306,0A2.7386127875258306,2.7386127875258306,0,1,1,2.7386127875258306,0" fill="#72b7b2" stroke-width="2" opacity="1"/><path aria-label="Compression ratio: 11.23; Throughput (kb/ms): 10.214; new-type: ristretto19-system" role="graphics-symbol" aria-roledescription="point" transform="translate(494.44000000000005,396.6862545454545)" d="M2.7386127875258306,0A2.7386127875258306,2.7386127875258306,0,1,1,-2.7386127875258306,0A2.7386127875258306,2.7386127875258306,0,1,1,2.7386127875258306,0" fill="#72b7b2" stroke-width="2" opacity="1"/></g><g class="mark-text role-mark layer_0_layer_1_marks" role="graphics-object" aria-roledescription="text mark container"><text aria-label="Compression ratio: 8.08; Throughput (kb/ms): 199.88; new-type: ristretto19-chromium; level: 1" role="graphics-symbol" aria-roledescription="text mark" text-anchor="end" transform="translate(131.24,33.04509090909091)" font-family="sans-serif" font-size="11px" fill="#4c78a8">1</text><text aria-label="Compression ratio: 8.47; Throughput (kb/ms): 191.12; new-type: ristretto19-chromium; level: 2" role="graphics-symbol" aria-roledescription="text mark" text-anchor="end" transform="translate(176.82666666666674,49.60945454545452)" font-family="sans-serif" font-size="11px" fill="#4c78a8">2</text><text aria-label="Compression ratio: 8.84; Throughput (kb/ms): 176.486; new-type: ristretto19-chromium; level: 3" role="graphics-symbol" aria-roledescription="text mark" text-anchor="end" transform="translate(220.07555555555552,77.28101818181815)" font-family="sans-serif" font-size="11px" fill="#4c78a8">3</text><text aria-label="Compression ratio: 9.36; Throughput (kb/ms): 113.068; new-type: ristretto19-chromium; level: 4" role="graphics-symbol" aria-roledescription="text mark" text-anchor="end" transform="translate(280.8577777777777,197.19869090909094)" font-family="sans-serif" font-size="11px" fill="#4c78a8">4</text><text aria-label="Compression ratio: 10.26; Throughput (kb/ms): 97.366; new-type: ristretto19-chromium; level: 5" role="graphics-symbol" aria-roledescription="text mark" text-anchor="end" transform="translate(386.0577777777778,226.88974545454542)" font-family="sans-serif" font-size="11px" fill="#4c78a8">5</text><text aria-label="Compression ratio: 10.49; Throughput (kb/ms): 61.832; new-type: ristretto19-chromium; level: 6" role="graphics-symbol" aria-roledescription="text mark" text-anchor="end" transform="translate(412.9422222222222,294.0813090909091)" font-family="sans-serif" font-size="11px" fill="#4c78a8">6</text><text aria-label="Compression ratio: 10.68; Throughput (kb/ms): 50.632; new-type: ristretto19-chromium; level: 7" role="graphics-symbol" aria-roledescription="text mark" text-anchor="end" transform="translate(435.15111111111105,315.2594909090909)" font-family="sans-serif" font-size="11px" fill="#4c78a8">7</text><text aria-label="Compression ratio: 11.07; Throughput (kb/ms): 23.778; new-type: ristretto19-chromium; level: 8" role="graphics-symbol" aria-roledescription="text mark" text-anchor="end" transform="translate(480.7377777777778,366.03796363636366)" font-family="sans-serif" font-size="11px" fill="#4c78a8">8</text><text aria-label="Compression ratio: 11.23; Throughput (kb/ms): 12.982; new-type: ristretto19-chromium; level: 9" role="graphics-symbol" aria-roledescription="text mark" text-anchor="end" transform="translate(499.44000000000005,386.4522181818182)" font-family="sans-serif" font-size="11px" fill="#4c78a8">9</text><text aria-label="Compression ratio: 8.08; Throughput (kb/ms): 202.102; new-type: ristretto19-cloudflare; level: 1" role="graphics-symbol" aria-roledescription="text mark" text-anchor="end" transform="translate(131.24,28.84349090909091)" font-family="sans-serif" font-size="11px" fill="#f58518">1</text><text aria-label="Compression ratio: 8.47; Throughput (kb/ms): 194.9; new-type: ristretto19-cloudflare; level: 2" role="graphics-symbol" aria-roledescription="text mark" text-anchor="end" transform="translate(176.82666666666674,42.461818181818245)" font-family="sans-serif" font-size="11px" fill="#f58518">2</text><text aria-label="Compression ratio: 8.84; Throughput (kb/ms): 184.57; new-type: ristretto19-cloudflare; level: 3" role="graphics-symbol" aria-roledescription="text mark" text-anchor="end" transform="translate(220.07555555555552,61.99490909090912)" font-family="sans-serif" font-size="11px" fill="#f58518">3</text><text aria-label="Compression ratio: 9.36; Throughput (kb/ms): 122.816; new-type: ristretto19-cloudflare; level: 4" role="graphics-symbol" aria-roledescription="text mark" text-anchor="end" transform="translate(280.8577777777777,178.76610909090908)" font-family="sans-serif" font-size="11px" fill="#f58518">4</text><text aria-label="Compression ratio: 10.26; Throughput (kb/ms): 108.192; new-type: ristretto19-cloudflare; level: 5" role="graphics-symbol" aria-roledescription="text mark" text-anchor="end" transform="translate(386.0577777777778,206.41876363636368)" font-family="sans-serif" font-size="11px" fill="#f58518">5</text><text aria-label="Compression ratio: 10.7; Throughput (kb/ms): 85.826; new-type: ristretto19-cloudflare; level: 6" role="graphics-symbol" aria-roledescription="text mark" text-anchor="end" transform="translate(437.4888888888888,248.71083636363636)" font-family="sans-serif" font-size="11px" fill="#f58518">6</text><text aria-label="Compression ratio: 10.88; Throughput (kb/ms): 71.846; new-type: ristretto19-cloudflare; level: 7" role="graphics-symbol" aria-roledescription="text mark" text-anchor="end" transform="translate(458.528888888889,275.1457454545455)" font-family="sans-serif" font-size="11px" fill="#f58518">7</text><text aria-label="Compression ratio: 11.25; Throughput (kb/ms): 35.68; new-type: ristretto19-cloudflare; level: 8" role="graphics-symbol" aria-roledescription="text mark" text-anchor="end" transform="translate(501.77777777777777,343.53236363636364)" font-family="sans-serif" font-size="11px" fill="#f58518">8</text><text aria-label="Compression ratio: 11.37; Throughput (kb/ms): 21.484; new-type: ristretto19-cloudflare; level: 9" role="graphics-symbol" aria-roledescription="text mark" text-anchor="end" transform="translate(515.8044444444444,370.3757090909091)" font-family="sans-serif" font-size="11px" fill="#f58518">9</text><text aria-label="Compression ratio: 7.26; Throughput (kb/ms): 124.558; new-type: ristretto19-madler; level: 1" role="graphics-symbol" aria-roledescription="text mark" text-anchor="end" transform="translate(35.39111111111109,175.47214545454545)" font-family="sans-serif" font-size="11px" fill="#e45756">1</text><text aria-label="Compression ratio: 7.8; Throughput (kb/ms): 118.728; new-type: ristretto19-madler; level: 2" role="graphics-symbol" aria-roledescription="text mark" text-anchor="end" transform="translate(98.51111111111109,186.49614545454548)" font-family="sans-serif" font-size="11px" fill="#e45756">2</text><text aria-label="Compression ratio: 8.37; Throughput (kb/ms): 105.654; new-type: ristretto19-madler; level: 3" role="graphics-symbol" aria-roledescription="text mark" text-anchor="end" transform="translate(165.1377777777777,211.21789090909087)" font-family="sans-serif" font-size="11px" fill="#e45756">3</text><text aria-label="Compression ratio: 9.03; Throughput (kb/ms): 78.466; new-type: ristretto19-madler; level: 4" role="graphics-symbol" aria-roledescription="text mark" text-anchor="end" transform="translate(242.28444444444438,262.6279272727273)" font-family="sans-serif" font-size="11px" fill="#e45756">4</text><text aria-label="Compression ratio: 9.93; Throughput (kb/ms): 65.438; new-type: ristretto19-madler; level: 5" role="graphics-symbol" aria-roledescription="text mark" text-anchor="end" transform="translate(347.4844444444444,287.2626909090909)" font-family="sans-serif" font-size="11px" fill="#e45756">5</text><text aria-label="Compression ratio: 10.48; Throughput (kb/ms): 49.514; new-type: ristretto19-madler; level: 6" role="graphics-symbol" aria-roledescription="text mark" text-anchor="end" transform="translate(411.77333333333337,317.3735272727273)" font-family="sans-serif" font-size="11px" fill="#e45756">6</text><text aria-label="Compression ratio: 10.68; Throughput (kb/ms): 40.202; new-type: ristretto19-madler; level: 7" role="graphics-symbol" aria-roledescription="text mark" text-anchor="end" transform="translate(435.15111111111105,334.9816727272727)" font-family="sans-serif" font-size="11px" fill="#e45756">7</text><text aria-label="Compression ratio: 11.07; Throughput (kb/ms): 18.606; new-type: ristretto19-madler; level: 8" role="graphics-symbol" aria-roledescription="text mark" text-anchor="end" transform="translate(480.7377777777778,375.81774545454545)" font-family="sans-serif" font-size="11px" fill="#e45756">8</text><text aria-label="Compression ratio: 11.23; Throughput (kb/ms): 10.228; new-type: ristretto19-madler; level: 9" role="graphics-symbol" aria-roledescription="text mark" text-anchor="end" transform="translate(499.44000000000005,391.6597818181818)" font-family="sans-serif" font-size="11px" fill="#e45756">9</text><text aria-label="Compression ratio: 7.26; Throughput (kb/ms): 125.512; new-type: ristretto19-system; level: 1" role="graphics-symbol" aria-roledescription="text mark" text-anchor="end" transform="translate(35.39111111111109,173.66821818181816)" font-family="sans-serif" font-size="11px" fill="#72b7b2">1</text><text aria-label="Compression ratio: 7.8; Throughput (kb/ms): 119.796; new-type: ristretto19-system; level: 2" role="graphics-symbol" aria-roledescription="text mark" text-anchor="end" transform="translate(98.51111111111109,184.47665454545458)" font-family="sans-serif" font-size="11px" fill="#72b7b2">2</text><text aria-label="Compression ratio: 8.37; Throughput (kb/ms): 106.638; new-type: ristretto19-system; level: 3" role="graphics-symbol" aria-roledescription="text mark" text-anchor="end" transform="translate(165.1377777777777,209.35723636363636)" font-family="sans-serif" font-size="11px" fill="#72b7b2">3</text><text aria-label="Compression ratio: 9.03; Throughput (kb/ms): 82.372; new-type: ristretto19-system; level: 4" role="graphics-symbol" aria-roledescription="text mark" text-anchor="end" transform="translate(242.28444444444438,255.24203636363637)" font-family="sans-serif" font-size="11px" fill="#72b7b2">4</text><text aria-label="Compression ratio: 9.93; Throughput (kb/ms): 68.15; new-type: ristretto19-system; level: 5" role="graphics-symbol" aria-roledescription="text mark" text-anchor="end" transform="translate(347.4844444444444,282.13454545454545)" font-family="sans-serif" font-size="11px" fill="#72b7b2">5</text><text aria-label="Compression ratio: 10.48; Throughput (kb/ms): 51.304; new-type: ristretto19-system; level: 6" role="graphics-symbol" aria-roledescription="text mark" text-anchor="end" transform="translate(411.77333333333337,313.9888)" font-family="sans-serif" font-size="11px" fill="#72b7b2">6</text><text aria-label="Compression ratio: 10.68; Throughput (kb/ms): 41.59; new-type: ristretto19-system; level: 7" role="graphics-symbol" aria-roledescription="text mark" text-anchor="end" transform="translate(435.15111111111105,332.3570909090909)" font-family="sans-serif" font-size="11px" fill="#72b7b2">7</text><text aria-label="Compression ratio: 11.07; Throughput (kb/ms): 18.834; new-type: ristretto19-system; level: 8" role="graphics-symbol" aria-roledescription="text mark" text-anchor="end" transform="translate(480.7377777777778,375.38661818181816)" font-family="sans-serif" font-size="11px" fill="#72b7b2">8</text><text aria-label="Compression ratio: 11.23; Throughput (kb/ms): 10.214; new-type: ristretto19-system; level: 9" role="graphics-symbol" aria-roledescription="text mark" text-anchor="end" transform="translate(499.44000000000005,391.6862545454545)" font-family="sans-serif" font-size="11px" fill="#72b7b2">9</text></g><g class="mark-group role-title"><g transform="translate(263,-22)"><path class="background" aria-hidden="true" d="M0,0h0v0h0Z" pointer-events="none"/><g><g class="mark-text role-title-text" role="graphics-symbol" aria-roledescription="title" aria-label="Title text '[Existing 2020 Zlib] Deflater throughput/ratio per level for 'silesia/nci' on Xeon E5-2686 v4 / 1900MHz'" pointer-events="none"><text text-anchor="middle" transform="translate(0,10)" font-family="sans-serif" font-size="13px" font-weight="bold" fill="#000" opacity="1">[Existing 2020 Zlib] Deflater throughput/ratio per level for 'silesia/nci' on Xeon E5-2686 v4 / 1900MHz</text></g></g><path class="foreground" aria-hidden="true" d="" pointer-events="none" display="none"/></g></g><g class="mark-group role-legend" role="graphics-symbol" aria-roledescription="legend" aria-label="Symbol legend for fill color and stroke color with 4 values: ristretto19-chromium, ristretto19-cloudflare, ristretto19-madler, ristretto19-system"><g transform="translate(390,0)"><path class="background" aria-hidden="true" d="M0.5,0.5h138v77h-138Z" pointer-events="none" fill="#ffffff" stroke="#000000"/><g><g class="mark-group role-legend-entry"><g transform="translate(8,8)"><path class="background" aria-hidden="true" d="M0,0h0v0h0Z" pointer-events="none"/><g><g class="mark-group role-scope" role="graphics-object" aria-roledescription="group mark container"><g transform="translate(0,0)"><path class="background" aria-hidden="true" d="M0,0h122v12.5h-122Z" pointer-events="none" opacity="1"/><g><g class="mark-symbol role-legend-symbol" pointer-events="none"><path transform="translate(6,6)" d="M5,0A5,5,0,1,1,-5,0A5,5,0,1,1,5,0" fill="#4c78a8" stroke="#4c78a8" stroke-width="1.5" opacity="1"/></g><g class="mark-text role-legend-label" pointer-events="none"><text text-anchor="start" transform="translate(16,9)" font-family="sans-serif" font-size="10px" fill="#000" opacity="1">ristretto19-chromium</text></g></g><path class="foreground" aria-hidden="true" d="" pointer-events="none" display="none"/></g><g transform="translate(0,16)"><path class="background" aria-hidden="true" d="M0,0h122v12.5h-122Z" pointer-events="none" opacity="1"/><g><g class="mark-symbol role-legend-symbol" pointer-events="none"><path transform="translate(6,6)" d="M5,0A5,5,0,1,1,-5,0A5,5,0,1,1,5,0" fill="#f58518" stroke="#f58518" stroke-width="1.5" opacity="1"/></g><g class="mark-text role-legend-label" pointer-events="none"><text text-anchor="start" transform="translate(16,9)" font-family="sans-serif" font-size="10px" fill="#000" opacity="1">ristretto19-cloudflare</text></g></g><path class="foreground" aria-hidden="true" d="" pointer-events="none" display="none"/></g><g transform="translate(0,32)"><path class="background" aria-hidden="true" d="M0,0h122v12.5h-122Z" pointer-events="none" opacity="1"/><g><g class="mark-symbol role-legend-symbol" pointer-events="none"><path transform="translate(6,6)" d="M5,0A5,5,0,1,1,-5,0A5,5,0,1,1,5,0" fill="#e45756" stroke="#e45756" stroke-width="1.5" opacity="1"/></g><g class="mark-text role-legend-label" pointer-events="none"><text text-anchor="start" transform="translate(16,9)" font-family="sans-serif" font-size="10px" fill="#000" opacity="1">ristretto19-madler</text></g></g><path class="foreground" aria-hidden="true" d="" pointer-events="none" display="none"/></g><g transform="translate(0,48)"><path class="background" aria-hidden="true" d="M0,0h122v12.5h-122Z" pointer-events="none" opacity="1"/><g><g class="mark-symbol role-legend-symbol" pointer-events="none"><path transform="translate(6,6)" d="M5,0A5,5,0,1,1,-5,0A5,5,0,1,1,5,0" fill="#72b7b2" stroke="#72b7b2" stroke-width="1.5" opacity="1"/></g><g class="mark-text role-legend-label" pointer-events="none"><text text-anchor="start" transform="translate(16,9)" font-family="sans-serif" font-size="10px" fill="#000" opacity="1">ristretto19-system</text></g></g><path class="foreground" aria-hidden="true" d="" pointer-events="none" display="none"/></g></g></g><path class="foreground" aria-hidden="true" d="" pointer-events="none" display="none"/></g></g></g><path class="foreground" aria-hidden="true" d="" pointer-events="none" display="none"/></g></g></g><path class="foreground" aria-hidden="true" d="" display="none"/></g></g></g></svg>